<?xml version="1.0" encoding="UTF-8" standalone="no"?>
<!-- Created with Inkscape (http://www.inkscape.org/) -->

<svg
   width="180.62222mm"
   height="180.62222mm"
   viewBox="0 0 180.62222 180.62222"
   version="1.1"
   id="svg5"
   inkscape:version="1.1.1 (3bf5ae0d25, 2021-09-20)"
   sodipodi:docname="base.svg"
   xmlns:inkscape="http://www.inkscape.org/namespaces/inkscape"
   xmlns:sodipodi="http://sodipodi.sourceforge.net/DTD/sodipodi-0.dtd"
   xmlns="http://www.w3.org/2000/svg"
   xmlns:svg="http://www.w3.org/2000/svg">
  <sodipodi:namedview
     id="namedview7"
     pagecolor="#ffffff"
     bordercolor="#666666"
     borderopacity="1.0"
     inkscape:pageshadow="2"
     inkscape:pageopacity="0.0"
     inkscape:pagecheckerboard="0"
     inkscape:document-units="mm"
     showgrid="false"
     fit-margin-top="0"
     fit-margin-left="0"
     fit-margin-right="0"
     fit-margin-bottom="0"
     inkscape:zoom="0.5499273"
     inkscape:cx="74.555309"
     inkscape:cy="210.02776"
     inkscape:window-width="2458"
     inkscape:window-height="1417"
     inkscape:window-x="94"
     inkscape:window-y="-8"
     inkscape:window-maximized="1"
     inkscape:current-layer="g357" />
  <defs
     id="defs2" />
  <g
     inkscape:label="Layer 1"
     inkscape:groupmode="layer"
     id="layer1"
     transform="translate(227.41422,-11.070331)">
    <g
       id="g8453"
       transform="matrix(1.5,0,0,1.5,-558.29262,-52.35898)">
      <g
         id="g357">
        <path
           style="fill:#ff6b1b;stroke-width:0.23518533;font-variation-settings:normal;opacity:1;vector-effect:none;fill-opacity:1;stroke-linecap:butt;stroke-linejoin:miter;stroke-miterlimit:4;stroke-dasharray:none;stroke-dashoffset:0;stroke-opacity:1;-inkscape-stroke:none;stop-color:#000000;stop-opacity:1"
           d="m 262.83662,146.34601 c -2.45915,-0.84971 -4.27798,-2.16169 -5.80729,-4.189 -3.39917,-4.50604 -27.17818,-37.61566 -27.36517,-38.10295 -0.26692,-0.6956 -2.48857,-11.872113 -2.38628,-12.004761 0.0699,-0.09067 5.05272,7.073247 23.05793,33.151061 4.25745,6.16627 8.1061,11.36781 8.93791,12.07981 1.88688,1.61509 4.76292,2.6808 7.88028,2.91999 4.86247,0.3731 1.91136,1.7398 47.96434,-22.21309 8.92528,-4.64218 16.76757,-8.94237 17.42732,-9.55599 0.65975,-0.61361 1.11959,-0.87754 1.02187,-0.58649 -0.0977,0.29104 -0.61215,1.84274 -1.1432,3.44824 -0.63347,1.91515 -1.34889,3.31667 -2.08021,4.07518 -0.73541,0.76275 -10.35693,6.06669 -28.27856,15.58877 -14.94014,7.93796 -28.03701,14.79192 -29.10417,15.23103 -2.51299,1.03402 -7.37041,1.10991 -10.12477,0.1582 z m 3.24561,-10.67281 c -2.19755,-0.27474 -3.89641,-0.97927 -5.38204,-2.23196 -1.25935,-1.06189 -1.0472,-0.76841 -21.75718,-30.09859 -7.30555,-10.346372 -7.25661,-10.26591 -7.25661,-11.931156 0,-1.209812 0.19978,-1.715269 0.95459,-2.415173 0.86779,-0.804657 1.00926,-0.835674 1.55577,-0.34109 0.57877,0.523773 1.20442,2.121267 1.06654,2.723215 -0.0366,0.159943 0.0749,0.203373 0.24776,0.09651 0.55697,-0.344226 1.54886,1.092056 1.29864,1.880457 -0.18141,0.571574 -0.0795,0.730836 0.46772,0.730836 0.80109,0 2.63237,2.153835 3.40643,4.006409 0.28643,0.685528 0.76728,1.384363 1.06856,1.552963 0.81605,0.456689 2.98676,3.640339 2.98676,4.380509 0,0.3539 0.21006,0.64346 0.46679,0.64346 0.57022,0 3.41377,3.42896 3.41377,4.11658 0,0.39054 -0.38009,0.44341 -1.81717,0.25277 -2.63966,-0.35016 -1.90883,0.38343 0.94762,0.95121 2.16299,0.42993 2.39047,0.56886 3.53102,2.15641 0.6705,0.93329 1.21908,1.82759 1.21908,1.98735 0,0.15975 0.41156,0.67532 0.91457,1.14571 0.76276,0.71329 0.88493,1.0786 0.73606,2.20094 -0.12499,0.94238 -0.0341,1.4011 0.30327,1.53057 0.78271,0.30035 1.32519,-0.20911 0.84226,-0.79101 -0.22721,-0.27376 -0.32192,-0.49776 -0.21047,-0.49776 0.11145,0 0.72049,0.75267 1.35342,1.6726 0.76998,1.11913 1.1164,2.00035 1.04689,2.66306 -0.0904,0.86134 0.0766,1.06135 1.28035,1.53421 1.03671,0.40723 1.67336,1.02079 2.53583,2.44386 0.7035,1.16076 1.75428,2.28086 2.70047,2.87861 1.89388,1.19645 2.07159,2.2644 0.48609,2.92114 -0.84482,0.34994 -0.98129,0.54046 -0.66236,0.92474 0.47672,0.57442 1.93933,0.64291 2.27095,0.10634 0.14387,-0.23278 0.76559,-0.28776 1.62052,-0.14332 1.91193,0.32301 2.66788,-0.28447 1.86977,-1.50255 -0.53199,-0.81191 -0.52154,-0.91419 0.16844,-1.64863 1.05435,-1.12232 0.97614,-2.85675 -0.16246,-3.60279 -0.76532,-0.50146 -1.09125,-0.52487 -2.20486,-0.15842 -0.93719,0.30839 -1.57751,0.32672 -2.26397,0.0648 -1.02676,-0.39177 -5.92199,-6.69108 -5.92199,-7.62059 0,-0.86448 3.24328,-0.72658 4.05695,0.1725 0.79664,0.88027 1.46136,0.89795 1.98911,0.0529 0.37162,-0.59505 0.49816,-0.60748 1.43366,-0.14079 1.75453,0.87527 3.28518,0.32784 4.73816,-1.69459 0.68962,-0.95991 1.39406,-1.74529 1.56541,-1.74529 0.17136,0 0.56294,0.38366 0.87019,0.85258 0.4656,0.71059 0.48311,0.9735 0.10516,1.57869 -0.35783,0.57298 -0.36233,0.81726 -0.0213,1.15826 0.51985,0.51984 0.57386,2.27847 0.0794,2.58408 -0.73699,0.45549 -0.3034,1.26743 0.97014,1.8167 3.28174,1.41538 3.79367,1.75622 3.66891,2.44279 -0.0679,0.37367 -0.27446,0.77317 -0.45902,0.88777 -0.56711,0.35213 0.45993,2.08476 1.37137,2.31352 0.66481,0.16685 1.09334,-0.06 2.01557,-1.0668 0.92554,-1.01046 1.43442,-1.2787 2.42576,-1.2787 1.70571,0 1.99037,0.63873 0.73571,1.65075 -0.81397,0.65654 -0.9249,0.8932 -0.5347,1.14071 0.38081,0.24155 0.24899,0.43813 -0.58188,0.86779 -0.94441,0.48838 -1.12635,0.49268 -1.50568,0.0356 -0.68226,-0.82207 -1.27705,-0.61589 -2.06221,0.71485 -0.57298,0.97113 -0.95254,1.23472 -1.77792,1.23472 -1.07586,0 -1.77894,0.53506 -1.03078,0.78444 0.24518,0.0817 0.30059,0.3282 0.13428,0.5973 -0.19396,0.31383 -0.70949,0.38998 -1.63648,0.24175 -1.16412,-0.18615 -1.4112,-0.10516 -1.76736,0.57936 -0.22773,0.43767 -0.46811,0.8581 -0.53419,0.93428 -0.32286,0.37228 -5.81933,0.89634 -7.36902,0.7026 z m 5.6067,-1.22275 c 0.45144,-1.17644 0.15967,-1.49564 -0.80741,-0.88329 -0.51157,0.32392 -0.30444,1.44131 0.26717,1.44131 0.17936,0 0.42247,-0.2511 0.54024,-0.55802 z m 4.80024,-7.55587 c 0,-0.19402 -0.15875,-0.35277 -0.35278,-0.35277 -0.19402,0 -0.35277,0.15875 -0.35277,0.35277 0,0.19403 0.15875,0.35278 0.35277,0.35278 0.19403,0 0.35278,-0.15875 0.35278,-0.35278 z m -25.92916,-11.99444 c 0.37989,-0.61468 -0.1832,-1.13908 -0.73308,-0.68271 -0.27164,0.22543 -0.40688,0.55064 -0.30055,0.72268 0.25734,0.41639 0.76368,0.39681 1.03363,-0.04 z M 235.91973,94.43903 c 0,-0.194028 -0.3175,-0.352778 -0.70556,-0.352778 -0.38805,0 -0.70555,0.15875 -0.70555,0.352778 0,0.194028 0.3175,0.352778 0.70555,0.352778 0.38806,0 0.70556,-0.15875 0.70556,-0.352778 z m -0.70556,-1.805527 c 0,-0.194028 -0.15875,-0.254667 -0.35278,-0.134751 -0.19402,0.119916 -0.35277,0.376777 -0.35277,0.570805 0,0.194028 0.15875,0.254667 0.35277,0.134751 0.19403,-0.119917 0.35278,-0.376778 0.35278,-0.570805 z m 53.62222,34.269217 c 0,-0.18956 0.39552,-0.6038 0.87892,-0.92053 0.4834,-0.31674 0.79153,-0.71728 0.68474,-0.89008 -0.35866,-0.58032 -1.90501,-0.32291 -2.35108,0.39136 -0.54201,0.8679 -0.99968,0.891 -1.74759,0.0882 -0.31634,-0.33955 -0.98662,-0.90259 -1.48952,-1.25119 -1.09769,-0.76093 -1.15242,-1.33443 -0.2088,-2.18839 1.96445,-1.77781 -0.41262,-4.9586 -2.62322,-3.51016 -0.83671,0.54824 -0.96233,0.5433 -2.04455,-0.0804 -1.23825,-0.71357 -11.56001,-13.30235 -11.56001,-14.09899 0,-0.7862 2.93407,-0.62395 3.68305,0.20367 0.53631,0.59261 0.94892,0.65728 3.14148,0.49237 1.69429,-0.12744 2.70208,-0.38071 3.06552,-0.77042 0.75011,-0.80432 2.7108,-2.16806 3.11709,-2.16806 0.18463,0 0.74089,0.51594 1.23612,1.14653 0.49523,0.63059 1.18403,1.46237 1.53067,1.8484 2.73899,3.05026 3.98163,4.57691 3.98163,4.89163 0,0.22558 -0.16415,0.20429 -0.42333,-0.0549 -0.23284,-0.23284 -0.72395,-0.42334 -1.09136,-0.42334 -0.37135,0 -0.74998,-0.31335 -0.85254,-0.70555 -0.2607,-0.99694 -0.99244,-0.87739 -1.07965,0.17639 -0.0452,0.54604 0.11059,0.88194 0.40902,0.88194 0.26511,0 0.67965,0.23813 0.92119,0.52917 0.24155,0.29104 0.86066,0.52917 1.37581,0.52917 1.04779,0 2.49746,0.87454 2.51845,1.5193 0.008,0.23154 0.81997,0.81385 1.8054,1.29403 2.07488,1.01105 2.39074,1.52975 1.51844,2.49364 -0.84238,0.93081 -0.5122,1.15825 1.7808,1.2267 1.31905,0.0394 2.16262,0.26374 2.65001,0.70482 0.47666,0.43137 0.83258,0.52946 1.06776,0.29428 0.23519,-0.23519 0.11482,-0.56813 -0.36111,-0.99884 -0.92561,-0.83767 -0.90007,-1.1652 0.16805,-2.15511 1.06643,-0.98833 1.13917,-2.35772 0.17639,-3.32049 -0.7922,-0.79221 -1.47999,-0.88232 -2.51332,-0.32929 -1.71651,0.91864 -2.46771,0.27118 -10.72155,-9.24103 -4.37305,-5.039758 -7.85794,-9.31378 -7.74419,-9.497828 0.35715,-0.577882 1.91054,-0.365912 3.36456,0.459119 1.13386,0.643364 1.45608,0.703301 1.70072,0.316353 0.23176,-0.366553 0.47067,-0.387032 1.02906,-0.08819 1.41561,0.757615 2.64752,0.468288 3.78752,-0.889547 0.94723,-1.128226 1.20399,-1.250146 2.18092,-1.035575 1.07366,0.235814 3.97739,2.949853 3.97739,3.717554 0,0.198363 -0.43656,0.36309 -0.97014,0.36606 -0.53357,0.0028 -0.79546,0.122033 -0.58197,0.264583 0.21348,0.142551 0.57626,0.61637 0.80616,1.052933 0.48382,0.918739 1.28128,1.040659 1.58748,0.242704 0.2803,-0.730444 0.87944,-0.291589 3.45807,2.532926 1.62156,1.776188 1.93835,2.325818 1.78945,3.104708 -0.16272,0.85121 -0.0966,0.9253 0.65738,0.73641 0.66942,-0.16772 1.15366,0.11145 2.40379,1.38581 0.86103,0.87771 1.45369,1.70765 1.31704,1.8443 -0.13665,0.13665 -0.43631,0.0606 -0.66592,-0.16899 -0.56502,-0.56503 -1.33467,-0.52804 -1.33467,0.0641 0,0.78694 1.41038,2.34063 2.12474,2.34063 0.36433,0 0.81775,-0.27757 1.00761,-0.61681 0.32368,-0.5784 0.40715,-0.57093 1.34044,0.11992 0.5474,0.4052 1.19787,1.14964 1.4455,1.65431 0.46572,0.94913 1.57015,1.52218 2.19244,1.13758 0.19576,-0.12099 0.35594,-0.66137 0.35594,-1.20086 0,-0.70102 0.24886,-1.09428 0.87221,-1.3783 0.47972,-0.21857 0.97347,-0.80084 1.09722,-1.29392 0.46758,-1.86299 -1.79574,-3.51393 -3.33718,-2.43425 -1.1743,0.8225 -2.60926,-0.0484 -5.74972,-3.48969 -1.61518,-1.769893 -4.64326,-5.043816 -6.72906,-7.275382 -2.0858,-2.231566 -3.79236,-4.18519 -3.79236,-4.341386 0,-0.639579 2.39149,-0.240372 3.51189,0.586236 0.64874,0.478621 1.35082,0.764356 1.56018,0.634965 0.20936,-0.129396 1.09848,-0.254046 1.97582,-0.277009 1.34174,-0.0351 1.79973,-0.24808 2.8828,-1.34052 0.7082,-0.714325 1.43862,-1.298772 1.62315,-1.298772 0.18453,0 1.06521,0.833437 1.95707,1.852083 0.89186,1.018646 1.94738,2.214869 2.34561,2.658279 0.39821,0.443407 0.72403,1.118094 0.72403,1.499306 0,0.490643 0.24011,0.693109 0.82196,0.693109 0.55927,0 1.82761,0.989426 3.96875,3.096017 1.73074,1.702809 3.58336,3.373334 4.11693,3.712294 1.20802,0.7674 1.24438,1.30557 0.0882,1.30557 -0.94281,0 -1.15811,0.64106 -0.45233,1.34684 0.33763,0.33764 0.28773,0.69308 -0.23308,1.66017 -0.79911,1.48386 -0.61784,1.73666 1.02432,1.42859 1.13848,-0.21358 1.23261,-0.31946 1.02377,-1.15156 -0.21078,-0.8398 -0.15225,-0.90148 0.70073,-0.73843 0.55105,0.10534 1.09316,-0.0178 1.32893,-0.3019 0.42922,-0.51718 2.27537,-0.6602 2.56078,-0.19839 0.30783,0.49808 -0.26982,1.02174 -1.98437,1.79889 -0.92164,0.41775 -1.6757,0.96602 -1.6757,1.2184 0,0.99996 -3.10612,3.05128 -4.62027,3.05128 -0.73196,0 -4.29312,2.11802 -4.71855,2.80639 -0.10873,0.17592 -0.0338,0.42117 0.1666,0.545 0.47991,0.2966 0.10106,0.88195 -0.57081,0.88195 -0.29104,0 -0.43105,-0.15875 -0.31113,-0.35278 0.37237,-0.60251 -1.00083,-0.38521 -2.20487,0.34891 -0.64856,0.39544 -1.14652,0.99135 -1.14652,1.37205 0,0.37015 -0.25111,0.76936 -0.55802,0.88713 -0.80941,0.3106 -0.85309,0.28544 -0.85309,-0.49142 0,-0.94336 -0.56195,-0.88912 -1.82835,0.17649 -0.57654,0.48512 -1.47258,0.98369 -1.9912,1.10792 -0.51863,0.12423 -1.44944,0.7195 -2.06849,1.32281 -1.95195,1.90237 -2.55866,2.33166 -3.29526,2.33166 -0.84838,0 -1.30978,-0.93692 -0.74132,-1.50538 0.50076,-0.50076 0.51514,-0.96406 0.0299,-0.96406 -0.48517,0 -2.07428,1.81422 -2.08859,2.38446 -0.006,0.2443 -0.4874,0.94253 -1.06949,1.55163 -0.58208,0.60909 -1.05833,1.23692 -1.05833,1.39518 0,0.31395 -2.46515,2.07706 -2.90411,2.07706 -0.14899,0 -0.27089,-0.15509 -0.27089,-0.34464 z m 3.35842,-6.71748 c 0.0109,-1.35744 -0.24059,-1.57813 -0.75036,-0.65845 -0.64988,1.17245 -0.60235,1.79677 0.12597,1.65445 0.38712,-0.0756 0.61998,-0.4471 0.62439,-0.996 z m -0.88617,-2.82089 c 0.30198,-0.56426 0.26329,-0.75573 -0.18769,-0.92879 -0.72563,-0.27845 -1.38383,0.36725 -1.10775,1.0867 0.29152,0.75968 0.84015,0.69281 1.29544,-0.15791 z m 12.6972,-5.28643 c 0,-0.19403 -0.16812,-0.35278 -0.3736,-0.35278 -0.20548,0 -0.27548,0.15875 -0.15557,0.35278 0.11992,0.19403 0.28804,0.35278 0.3736,0.35278 0.0856,0 0.15557,-0.15875 0.15557,-0.35278 z m -7.05556,-11.28889 c 0,-0.19403 -0.15875,-0.35278 -0.35277,-0.35278 -0.19403,0 -0.35278,0.15875 -0.35278,0.35278 0,0.19403 0.15875,0.35278 0.35278,0.35278 0.19402,0 0.35277,-0.15875 0.35277,-0.35278 z m -16.93333,25.4 c 0,-0.19403 0.3175,-0.35278 0.70556,-0.35278 0.38805,0 0.70555,0.15875 0.70555,0.35278 0,0.19403 -0.3175,0.35278 -0.70555,0.35278 -0.38806,0 -0.70556,-0.15875 -0.70556,-0.35278 z m -1.00593,-3.17888 c -0.72513,-0.6087 -0.7556,-0.72473 -0.24209,-0.92178 0.76733,-0.29445 2.40352,0.45765 2.21663,1.01892 -0.23205,0.69695 -1.07814,0.65533 -1.97454,-0.0971 z m 16.2634,0.26846 c 0.0808,-0.24253 0.44612,-0.49897 0.81192,-0.56985 0.57542,-0.11151 0.60133,-0.052 0.19216,0.44097 -0.55958,0.67425 -1.21361,0.7582 -1.00408,0.12888 z m -20.27559,-2.57807 c -0.10826,-0.10826 -0.0225,-0.65874 0.19062,-1.22331 0.36241,-0.96011 0.42835,-0.98947 1.01998,-0.45405 0.9252,0.8373 0.81974,1.87418 -0.19063,1.87418 -0.45273,0 -0.91172,-0.0886 -1.01997,-0.19682 z m 46.79925,-11.87021 c -0.14754,-0.46485 -0.0896,-0.83059 0.14379,-0.90841 0.7204,-0.24013 0.89873,-0.1009 1.01876,0.79536 0.15166,1.13247 -0.80934,1.22592 -1.16255,0.11305 z m 2.7569,-0.36838 c 0.0808,-0.24254 0.44612,-0.49897 0.81192,-0.56986 0.57541,-0.11151 0.60132,-0.052 0.19215,0.44097 -0.55958,0.67425 -1.21361,0.7582 -1.00407,0.12889 z m 0.61752,-2.02848 c 0,-0.19402 0.16812,-0.35277 0.3736,-0.35277 0.20548,0 0.27549,0.15875 0.15557,0.35277 -0.11991,0.19403 -0.28803,0.35278 -0.3736,0.35278 -0.0856,0 -0.15557,-0.15875 -0.15557,-0.35278 z m 2.92844,-1.44601 c -0.19972,-0.19972 -1.05374,-0.31326 -1.89782,-0.25231 -1.22259,0.0883 -1.69867,-0.0539 -2.34099,-0.69896 -0.97586,-0.98009 -0.99653,-1.13049 -0.15541,-1.13049 0.35798,0 0.93242,-0.31111 1.27653,-0.69135 0.81146,-0.89664 0.48468,-2.273821 -0.72808,-3.068453 -0.76133,-0.498839 -1.09144,-0.526722 -2.06558,-0.174467 -0.63769,0.230594 -1.45772,0.316192 -1.82229,0.190222 -0.70459,-0.243459 -22.00591,-21.289299 -22.00591,-21.74198 0,-0.532624 1.96627,-0.244891 2.99862,0.438802 0.76445,0.506279 1.65632,0.701552 3.21184,0.703231 l 2.15352,0.0025 10.42752,10.318749 c 5.73514,5.675313 10.83824,10.936217 11.34023,11.690896 0.5054,0.75979 0.90771,1.86184 0.9015,2.46945 -0.0137,1.33953 -0.76672,2.4713 -1.29368,1.94434 z m -82.12729,-4.10122 c -6.61486,-8.868335 -7.50427,-10.235504 -7.31224,-11.240053 0.10023,-0.524312 0.47685,-1.247912 0.83694,-1.608003 0.36009,-0.360091 0.65471,-0.868232 0.65471,-1.129199 0,-0.727199 -1.25306,-1.698964 -2.52664,-1.959437 l -1.14442,-0.234061 1.24255,-0.733129 c 1.39537,-0.823285 4.03271,-1.715918 6.09606,-2.063267 0.75597,-0.127261 1.73028,-0.464502 2.16512,-0.749427 0.70333,-0.460837 0.85478,-0.453898 1.37152,0.06283 0.54136,0.541362 0.53331,0.958984 -0.0483,2.508743 -0.0856,0.228092 0.25368,0.682911 0.75397,1.010712 1.05166,0.689078 1.15339,1.424644 0.3238,2.341323 -0.85153,0.940939 -0.33398,1.179385 1.35211,0.622928 1.20688,-0.398304 1.50333,-0.402989 1.62908,-0.02575 0.0846,0.253647 1.00893,1.419617 2.05417,2.591043 1.04525,1.171427 1.90045,2.33644 1.90045,2.58892 0,0.25248 0.36742,0.74839 0.81651,1.102021 0.44908,0.353632 1.11971,1.10605 1.4903,1.67204 0.6986,1.066976 1.30409,1.827064 3.24944,4.079138 0.63059,0.730018 1.14652,1.423198 1.14652,1.540398 0,0.35386 -1.8909,-0.47716 -2.64583,-1.16279 -1.24117,-1.127222 -2.91887,-1.781636 -4.56758,-1.781636 -1.34747,0 -1.82984,0.20404 -3.01613,1.275772 -1.01188,0.914174 -1.41212,1.557594 -1.41212,2.270094 0,1.35137 -0.5896,2.80414 -1.13804,2.80414 -0.24747,0 -1.71983,-1.70251 -3.27193,-3.78335 z m 5.64469,-8.563877 c 0.11992,-0.194028 0.0499,-0.352778 -0.15557,-0.352778 -0.20548,0 -0.3736,0.15875 -0.3736,0.352778 0,0.194028 0.07,0.352778 0.15557,0.352778 0.0856,0 0.25368,-0.15875 0.3736,-0.352778 z m 3.76183,-3.563091 c -3.09443,-3.828535 -3.38894,-4.674295 -2.16813,-6.226312 0.62251,-0.791394 0.65145,-0.99743 0.23075,-1.64314 -0.26456,-0.406062 -0.98173,-0.890182 -1.59371,-1.075828 -0.61197,-0.185642 -1.11269,-0.45938 -1.11269,-0.608302 0,-0.450373 1.78597,-1.223824 4.7187,-2.043528 l 2.77842,-0.776577 1.45491,1.05361 c 0.80021,0.579483 1.47196,1.366939 1.49279,1.749901 0.079,1.451716 1.97377,3.217799 2.32425,2.166359 0.0703,-0.210965 0.3513,0.18591 0.62441,0.881944 0.2731,0.696038 0.67283,1.26552 0.88827,1.26552 0.40452,0 3.00437,2.505156 3.00437,2.89494 0,0.12065 -0.77107,-0.106405 -1.71348,-0.504564 -2.34514,-0.99079 -3.83567,-0.678801 -5.48643,1.148394 -0.99939,1.106205 -1.26676,1.693683 -1.26676,2.783392 0,1.676404 -0.28336,2.497282 -0.86203,2.497282 -0.23857,0 -1.72971,-1.603392 -3.31364,-3.563091 z m 14.00845,-0.582048 c -0.43881,-0.559526 -0.42634,-0.572004 0.13319,-0.133194 0.33955,0.266294 0.61736,0.544106 0.61736,0.617361 0,0.29035 -0.2897,0.103473 -0.75055,-0.484167 z m -2.55522,-7.153878 c -1.33399,-1.585351 -1.49799,-2.600501 -0.60377,-3.737317 0.65864,-0.837318 0.68933,-1.036877 0.25957,-1.687876 -0.31686,-0.479989 -0.9438,-0.777053 -1.79196,-0.849083 -0.81132,-0.06891 -1.25283,-0.268979 -1.16773,-0.529167 0.2617,-0.800079 8.24466,-3.666024 9.66733,-3.470649 0.33513,0.04603 0.54683,0.993539 0.6014,2.691783 0.0369,1.148486 -0.0831,1.424411 -0.66046,1.519093 -2.55976,0.419749 -3.6198,1.786311 -4.0241,5.187724 -0.25709,2.162831 -0.96754,2.435602 -2.28028,0.875492 z m 6.46955,-7.133622 c -0.0161,-0.634382 -0.87369,-1.675694 -1.37999,-1.675694 -0.23731,0 -0.33897,0.198438 -0.22591,0.440972 0.11305,0.242535 0.30355,0.718785 0.42332,1.058334 0.24814,0.703498 1.19961,0.845414 1.18258,0.176388 z m 7.63316,3.542884 c -2.65084,-2.912519 -2.99477,-3.709328 -2.15453,-4.991689 1.1412,-1.741692 -0.22001,-3.057895 -2.65816,-2.570265 -0.57495,0.114988 -1.04536,0.07287 -1.04536,-0.09359 0,-0.363795 3.46238,-2.0427 4.84101,-2.347401 0.5389,-0.119108 1.98349,-0.559791 3.2102,-0.979294 2.20217,-0.753085 2.23674,-0.754069 2.73403,-0.07794 0.65012,0.883937 0.64045,1.761119 -0.0255,2.313823 -0.80694,0.6697 -0.65335,0.909447 0.87619,1.367709 2.00712,0.601349 2.83692,2.512847 1.09084,2.512847 -1.61961,0 -3.20855,2.767676 -3.6297,6.322367 -0.0557,0.469871 -0.28036,0.913232 -0.49931,0.985244 -0.21896,0.07202 -1.45182,-1.026802 -2.7397,-2.441811 z"
           id="path365" />
        <path
           style="fill:#575353;stroke-width:0.352778"
           d="m 278.07362,136.33677 c -3.81724,1.21451 -11.99132,-0.66358 -15.17022,0.50567 -5.36028,1.69804 -35.41814,-49.870907 -35.48522,-46.466662 l -0.0349,1.770193 -0.50694,-1.5875 c -0.27882,-0.873125 -0.60216,-2.564458 -0.71853,-3.758519 -0.34862,-3.577092 1.32195,-6.109747 5.38903,-8.169959 0.79638,-0.403412 13.33763,-5.212295 27.86944,-10.686408 l 26.42149,-9.95293 3.07344,-0.01605 c 2.90884,-0.01517 3.2165,0.05866 5.7449,1.379047 2.36408,1.234574 4.76092,3.37759 20.83136,18.625393 11.12844,10.558776 18.50733,17.823137 19.05719,18.761406 0.60273,1.028464 0.90733,2.089097 0.92788,3.23081 0.0317,1.760239 -1.26485,6.724229 -1.9182,7.344149 -14.40335,7.55098 -45.44587,23.88222 -55.48072,29.02136 z"
           id="path363"
           sodipodi:nodetypes="ccccssssccsssscc" />
        <path
           style="fill:#6c4835;stroke-width:0.352778"
           d="m 264.1505,139.73457 c -2.36206,-0.63475 -4.41184,-1.81244 -5.87106,-3.37319 -0.60501,-0.64711 -6.73402,-9.35218 -13.62002,-19.34461 -6.886,-9.99243 -13.57327,-19.676177 -14.8606,-21.519447 -2.1392,-3.06302 -2.34082,-3.50619 -2.34318,-5.15054 -0.003,-2.00311 1.1413,-3.98651 3.10732,-5.38643 1.3785,-0.98158 1.76885,-0.9491 1.56256,0.13003 -0.0927,0.48507 -0.0769,0.88194 0.0352,0.88194 0.11208,0 1.08085,-0.71437 2.15281,-1.5875 1.07196,-0.87312 2.09058,-1.5875 2.26359,-1.5875 0.17301,0 0.5198,-0.24729 0.77065,-0.54955 0.57263,-0.68997 2.63638,-1.56711 3.68714,-1.56711 0.43761,0 0.99184,-0.23638 1.23161,-0.52529 0.23977,-0.2889 0.55833,-0.44964 0.7079,-0.3572 0.98263,0.6073 7.93907,-1.85888 8.71166,-3.08844 0.43709,-0.69563 2.06571,-1.29643 2.91338,-1.07475 0.69798,0.18252 3.1925,-0.84298 3.1925,-1.31244 0,-0.11025 0.59514,-0.24053 1.32254,-0.28952 0.7274,-0.049 1.71958,-0.35925 2.20486,-0.68947 0.48528,-0.33021 1.04108,-0.61574 1.2351,-0.63449 0.68447,-0.0662 1.77208,-0.6075 2.46945,-1.22915 0.62953,-0.56116 3.76352,-1.60992 7.23194,-2.42009 1.65068,-0.38557 3.77554,-1.3294 4.07169,-1.80857 0.36611,-0.59238 3.06354,-1.65184 4.20565,-1.65184 0.56709,0 1.21912,-0.27744 1.47526,-0.62773 0.36097,-0.49367 1.00726,-0.63738 3.02612,-0.67293 1.61346,-0.0284 2.99972,-0.26357 3.73165,-0.63303 0.97024,-0.48976 1.19593,-0.506 1.35275,-0.0973 0.3738,0.9741 -0.0461,1.76554 -0.99518,1.87557 -1.43251,0.16609 -1.94439,0.97471 -1.16334,1.83776 0.3479,0.38442 0.84605,0.69894 1.10702,0.69894 0.32681,0 0.47449,0.49156 0.47449,1.57937 0,1.29537 0.15859,1.68327 0.88195,2.15724 1.41687,0.92837 1.12548,1.55505 -0.72308,1.55505 -2.51848,0 -3.53841,0.72066 -4.18945,2.96014 -0.70188,2.4144 -0.70036,2.44389 0.16707,3.2289 0.39742,0.35966 1.25798,1.5352 1.91235,2.61231 1.33032,2.18975 6.51273,7.42643 7.34946,7.42643 0.29724,0 1.25898,-0.308 2.13721,-0.68446 2.14533,-0.91959 2.7811,-2.16364 2.46784,-4.829 -0.19643,-1.67131 -0.15315,-1.95357 0.26039,-1.69805 0.82524,0.50991 4.3513,3.84251 12.13765,11.47173 7.7224,7.566547 9.25128,8.659427 11.71786,8.376177 0.82114,-0.0943 1.00023,-0.30032 1.0925,-1.25678 0.0917,-0.950727 -0.0491,-1.216657 -0.83368,-1.574127 -0.80933,-0.36875 -1.1425,-0.32142 -2.3348,0.33166 -0.76492,0.418987 -1.58038,0.688477 -1.81215,0.598867 -0.88145,-0.340787 -22.67171,-22.818017 -23.17556,-23.906197 -0.87672,-1.8935 -2.04024,-3.16241 -2.67602,-2.91844 -0.82123,0.31514 -3.98166,-2.90286 -3.28449,-3.34431 0.93183,-0.59003 1.64577,-0.31953 2.64008,1.00029 1.55556,2.0648 5.15159,5.38331 6.08825,5.61839 0.52467,0.13169 1.43808,-0.0746 2.4004,-0.54214 2.03523,-0.9888 2.44648,-0.95636 3.88473,0.30644 0.84609,0.74288 1.44204,1.00306 1.98686,0.86743 0.61172,-0.15229 1.39619,0.37881 3.66615,2.48203 1.60475,1.48689 2.93709,3.02161 2.99861,3.45411 0.0709,0.49885 0.40003,0.81937 0.91644,0.89263 1.10498,0.15675 3.75074,2.92392 3.16079,3.30584 -0.57565,0.37265 0.29157,0.97654 1.41334,0.98418 0.56002,0.004 0.79375,0.21573 0.79375,0.71969 0,0.43082 0.33848,0.84297 0.8529,1.03856 1.19993,0.45621 4.43876,3.62333 4.43876,4.34047 0,0.35914 0.38557,0.68762 0.97014,0.82651 1.41732,0.33673 2.29668,1.18752 1.82047,1.76132 -0.46298,0.55786 -0.0734,1.3124 0.55345,1.07187 0.24776,-0.0951 1.08709,0.42077 1.86519,1.14633 l 1.41471,1.319197 -0.66713,1.45524 c -0.36692,0.80038 -0.81322,1.54552 -0.99178,1.65588 -0.17856,0.11035 -0.43453,0.70092 -0.56883,1.31238 -0.44063,2.00617 -3.07719,4.12672 -8.62955,6.94062 -22.7649,11.53712 -27.40569,13.92297 -27.86944,14.3278 -0.29104,0.25407 -2.51354,1.37345 -4.93889,2.48752 -2.42535,1.11406 -4.8066,2.29382 -5.29167,2.62168 -0.48507,0.32785 -3.07959,1.69167 -5.7656,3.0307 -2.68602,1.33902 -4.70461,2.49428 -4.48577,2.56722 0.21883,0.0729 1.03063,-0.12054 1.80399,-0.42998 0.77336,-0.30944 1.7386,-0.56261 2.14498,-0.56261 0.79729,0 2.74253,-0.96478 7.18435,-3.56323 1.55222,-0.90805 3.21909,-1.76963 3.70416,-1.91464 0.48507,-0.145 1.26054,-0.5593 1.72327,-0.92066 0.46273,-0.36137 1.03037,-0.65703 1.26142,-0.65703 0.23106,0 0.79295,-0.39687 1.24865,-0.88194 0.4557,-0.48507 1.11181,-0.88195 1.45803,-0.88195 0.83959,0 8.03955,-3.38514 8.94237,-4.20436 0.39165,-0.35539 1.54367,-0.91631 2.56003,-1.24648 1.01636,-0.33018 1.93233,-0.73689 2.03549,-0.90379 0.10315,-0.16691 0.62095,-0.52244 1.15067,-0.79007 0.52972,-0.26764 1.28063,-0.66305 1.66868,-0.8787 0.38806,-0.21565 2.73567,-1.39579 5.21692,-2.62254 6.53595,-3.23142 7.34251,-3.66103 7.6021,-4.04923 0.25802,-0.38584 6.9056,-3.64927 7.43354,-3.64927 0.53002,0 2.5379,-1.81459 2.89584,-2.61706 0.26113,-0.58544 0.28583,-0.51975 0.12184,0.324 -0.11313,0.58209 -0.63272,1.48259 -1.15464,2.00112 -0.86954,0.8639 -11.70953,6.59704 -46.1045,24.38412 -6.985,3.61224 -13.41437,6.72972 -14.2875,6.92775 -2.21931,0.50334 -5.47298,0.42433 -7.75256,-0.18824 z m 9.30075,-4.76401 c 0.0661,-0.0762 0.30645,-0.49661 0.53418,-0.93428 0.35617,-0.68452 0.60324,-0.76551 1.76737,-0.57936 0.92699,0.14823 1.44251,0.0721 1.63647,-0.24175 0.16631,-0.2691 0.11091,-0.51557 -0.13428,-0.5973 -0.74816,-0.24938 -0.0451,-0.78444 1.03079,-0.78444 0.82538,0 1.20493,-0.26359 1.77791,-1.23472 0.78516,-1.33074 1.37996,-1.53692 2.06221,-0.71485 0.37933,0.45706 0.56127,0.45276 1.50569,-0.0356 0.83087,-0.42966 0.96268,-0.62624 0.58187,-0.86779 -0.3902,-0.24751 -0.27926,-0.48417 0.5347,-1.14071 1.25467,-1.01202 0.97,-1.65075 -0.7357,-1.65075 -0.99135,0 -1.50022,0.26824 -2.42577,1.2787 -0.92222,1.00684 -1.35075,1.23365 -2.01557,1.0668 -0.91144,-0.22876 -1.93848,-1.96139 -1.37137,-2.31352 0.18456,-0.1146 0.39112,-0.5141 0.45902,-0.88777 0.12476,-0.68657 -0.38717,-1.02741 -3.6689,-2.44279 -1.27354,-0.54927 -1.70713,-1.36121 -0.97014,-1.8167 0.49449,-0.30561 0.44048,-2.06424 -0.0794,-2.58408 -0.341,-0.341 -0.3365,-0.58528 0.0213,-1.15826 0.37795,-0.60519 0.36044,-0.8681 -0.10516,-1.57869 -0.30726,-0.46892 -0.69884,-0.85258 -0.8702,-0.85258 -0.17135,0 -0.87579,0.78538 -1.56541,1.74529 -1.45298,2.02243 -2.98363,2.56986 -4.73816,1.69459 -0.9355,-0.46669 -1.06204,-0.45426 -1.43366,0.14079 -0.52775,0.84506 -1.19247,0.82738 -1.98911,-0.0529 -0.81367,-0.89908 -4.05695,-1.03698 -4.05695,-0.1725 0,0.92951 4.89523,7.22882 5.92199,7.62059 0.68646,0.26192 1.32678,0.24359 2.26397,-0.0648 1.11361,-0.36645 1.43954,-0.34304 2.20486,0.15842 1.1386,0.74604 1.21681,2.48047 0.16246,3.60279 -0.68998,0.73444 -0.70043,0.83672 -0.16844,1.64863 0.79811,1.21808 0.0422,1.82556 -1.86977,1.50255 -0.85493,-0.14444 -1.47665,-0.0895 -1.62052,0.14332 -0.33162,0.53657 -1.79423,0.46808 -2.27095,-0.10634 -0.31893,-0.38428 -0.18246,-0.5748 0.66236,-0.92474 1.5855,-0.65674 1.40779,-1.72469 -0.48609,-2.92114 -0.94619,-0.59775 -1.99697,-1.71785 -2.70047,-2.87861 -0.86247,-1.42307 -1.49912,-2.03663 -2.53583,-2.44386 -1.20379,-0.47286 -1.3707,-0.67287 -1.28035,-1.53421 0.0695,-0.66271 -0.27691,-1.54393 -1.04689,-2.66306 -0.63293,-0.91993 -1.24197,-1.6726 -1.35342,-1.6726 -0.11145,0 -0.0167,0.224 0.21047,0.49776 0.48293,0.5819 -0.0596,1.09136 -0.84226,0.79101 -0.33737,-0.12947 -0.42826,-0.58819 -0.30327,-1.53057 0.14887,-1.12234 0.0267,-1.48765 -0.73606,-2.20094 -0.50301,-0.47039 -0.91457,-0.98596 -0.91457,-1.14571 0,-0.15976 -0.54858,-1.05406 -1.21908,-1.98735 -1.14055,-1.58755 -1.36803,-1.72648 -3.53102,-2.15641 -2.85645,-0.56778 -3.58728,-1.30137 -0.94762,-0.95121 1.43708,0.19064 1.81717,0.13777 1.81717,-0.25277 0,-0.68762 -2.84355,-4.11658 -3.41377,-4.11658 -0.25673,0 -0.46679,-0.28956 -0.46679,-0.64346 0,-0.74017 -2.17071,-3.92382 -2.98676,-4.380507 -0.30128,-0.1686 -0.78213,-0.86743 -1.06856,-1.55296 -0.77406,-1.85257 -2.60534,-4.00641 -3.40643,-4.00641 -0.54721,0 -0.64913,-0.15926 -0.46772,-0.73083 0.25022,-0.7884 -0.74167,-2.22469 -1.29864,-1.88046 -0.1729,0.10686 -0.2844,0.0634 -0.24776,-0.0965 0.13788,-0.60195 -0.48777,-2.19944 -1.06654,-2.72322 -0.54651,-0.49458 -0.68798,-0.46356 -1.55577,0.34109 -0.75481,0.69991 -0.95459,1.20537 -0.95459,2.41518 0,1.66524 -0.0489,1.58478 7.25661,11.931147 20.70998,29.33018 20.49783,29.0367 21.75718,30.09859 2.42579,2.04544 5.50564,2.68711 9.88842,2.06018 1.50838,-0.21576 2.79657,-0.45463 2.86264,-0.53082 z m -2.84539,-0.5269 c -0.11919,-0.31062 0.005,-0.70506 0.27566,-0.87654 0.96708,-0.61235 1.25885,-0.29315 0.80741,0.88329 -0.27565,0.71833 -0.8061,0.71502 -1.08307,-0.007 z m 5.17776,-7.54912 c 0,-0.19402 0.15875,-0.35277 0.35277,-0.35277 0.19403,0 0.35278,0.15875 0.35278,0.35277 0,0.19403 -0.15875,0.35278 -0.35278,0.35278 -0.19402,0 -0.35277,-0.15875 -0.35277,-0.35278 z m -26.25724,-11.95447 c -0.10633,-0.17204 0.0289,-0.49725 0.30055,-0.72268 0.54988,-0.45637 1.11297,0.068 0.73308,0.68271 -0.26995,0.43678 -0.77629,0.45636 -1.03363,0.04 z M 234.50862,94.438993 c 0,-0.19403 0.3175,-0.35278 0.70555,-0.35278 0.38806,0 0.70556,0.15875 0.70556,0.35278 0,0.19403 -0.3175,0.35278 -0.70556,0.35278 -0.38805,0 -0.70555,-0.15875 -0.70555,-0.35278 z m 0,-1.36947 c 0,-0.19403 0.15875,-0.45089 0.35277,-0.57081 0.19403,-0.11991 0.35278,-0.0593 0.35278,0.13475 0,0.19403 -0.15875,0.45089 -0.35278,0.57081 -0.19402,0.11991 -0.35277,0.0593 -0.35277,-0.13475 z m 35.18958,35.855317 c 0.6181,-0.49451 0.54884,-1.67916 -0.14287,-2.44349 -0.74554,-0.82381 -1.22714,-0.81125 -3.04917,0.0795 l -1.48227,0.72465 -1.54955,-1.69479 c -0.85226,-0.93214 -1.90223,-2.25275 -2.33327,-2.9347 -0.43104,-0.68194 -1.0752,-1.47569 -1.43146,-1.76389 -0.35626,-0.28819 0.39793,0.98414 1.67598,2.8274 1.27804,1.84327 2.66514,3.52775 3.08243,3.74329 0.41729,0.21555 1.10995,0.71128 1.53924,1.10163 1.29393,1.17656 2.52102,1.29637 3.69094,0.36038 z m 20.99658,-2.57218 c 0.72414,-0.49206 1.31661,-1.02414 1.31661,-1.1824 0,-0.15826 0.47625,-0.78609 1.05834,-1.39518 0.58208,-0.6091 1.06335,-1.30733 1.06948,-1.55163 0.0143,-0.57024 1.60342,-2.38446 2.08859,-2.38446 0.48523,0 0.47085,0.4633 -0.0299,0.96406 -0.56845,0.56846 -0.10706,1.50538 0.74133,1.50538 0.7366,0 1.3433,-0.42929 3.29526,-2.33166 0.61904,-0.60331 1.54986,-1.19858 2.06848,-1.32281 0.51862,-0.12423 1.41466,-0.6228 1.9912,-1.10792 1.2664,-1.06561 1.82835,-1.11985 1.82835,-0.17649 0,0.77686 0.0437,0.80202 0.85309,0.49142 0.30691,-0.11777 0.55802,-0.51698 0.55802,-0.88713 0,-0.3807 0.49796,-0.97661 1.14652,-1.37205 1.20404,-0.73412 2.57724,-0.95142 2.20487,-0.34891 -0.11992,0.19403 0.0201,0.35278 0.31113,0.35278 0.67187,0 1.05072,-0.58535 0.57081,-0.88195 -0.20036,-0.12383 -0.27533,-0.36908 -0.1666,-0.545 0.42543,-0.68837 3.98659,-2.80639 4.71855,-2.80639 1.51415,0 4.62027,-2.05132 4.62027,-3.05128 0,-0.25238 0.75406,-0.80065 1.6757,-1.2184 1.71455,-0.77715 2.2922,-1.30081 1.98437,-1.79889 -0.28541,-0.46181 -2.13156,-0.31879 -2.56078,0.19839 -0.23577,0.28409 -0.77788,0.40724 -1.32893,0.3019 -0.85298,-0.16305 -0.91151,-0.10137 -0.70073,0.73843 0.20884,0.8321 0.11471,0.93798 -1.02377,1.15156 -1.64216,0.30807 -1.82343,0.0553 -1.02432,-1.42859 0.52081,-0.96709 0.57071,-1.32253 0.23308,-1.66017 -0.70578,-0.70578 -0.49048,-1.34684 0.45233,-1.34684 1.15618,0 1.11982,-0.53817 -0.0882,-1.30557 -0.53357,-0.33896 -2.38619,-2.009487 -4.11693,-3.712297 -2.14114,-2.10659 -3.40948,-3.09601 -3.96875,-3.09601 -0.58185,0 -0.82196,-0.20247 -0.82196,-0.69311 0,-0.38122 -0.32582,-1.0559 -0.72403,-1.49931 -0.39823,-0.44341 -1.45375,-1.63963 -2.34561,-2.65828 -0.89186,-1.01864 -1.77254,-1.85208 -1.95707,-1.85208 -0.18453,0 -0.91495,0.58445 -1.62315,1.29877 -1.08307,1.09244 -1.54106,1.30541 -2.8828,1.34052 -0.87734,0.023 -1.76646,0.14761 -1.97582,0.27701 -0.20936,0.12939 -0.91144,-0.15634 -1.56018,-0.63497 -1.1204,-0.8266 -3.51189,-1.22581 -3.51189,-0.58623 0,0.15619 1.70656,2.10982 3.79236,4.34138 2.0858,2.23157 5.11388,5.50549 6.72906,7.275387 3.14046,3.44127 4.57542,4.31219 5.74972,3.48969 1.54144,-1.07968 3.80476,0.57126 3.33718,2.43425 -0.12375,0.49308 -0.6175,1.07535 -1.09722,1.29392 -0.62335,0.28402 -0.87221,0.67728 -0.87221,1.3783 0,0.53949 -0.16018,1.07987 -0.35594,1.20086 -0.62229,0.3846 -1.72672,-0.18845 -2.19244,-1.13758 -0.24763,-0.50467 -0.8981,-1.24911 -1.4455,-1.65431 -0.93329,-0.69085 -1.01676,-0.69832 -1.34044,-0.11992 -0.18986,0.33924 -0.64328,0.61681 -1.00761,0.61681 -0.71436,0 -2.12474,-1.55369 -2.12474,-2.34063 0,-0.59218 0.76965,-0.62917 1.33467,-0.0641 0.22961,0.2296 0.52927,0.30564 0.66592,0.16899 0.13665,-0.13665 -0.45601,-0.96659 -1.31704,-1.8443 -1.25013,-1.27436 -1.73437,-1.55353 -2.40379,-1.38581 -0.75396,0.18889 -0.8201,0.1148 -0.65738,-0.73641 0.1489,-0.77889 -0.16789,-1.32852 -1.78945,-3.104707 -2.57863,-2.82452 -3.17777,-3.26337 -3.45807,-2.53293 -0.3062,0.79796 -1.10366,0.67604 -1.58748,-0.2427 -0.2299,-0.43656 -0.59268,-0.91038 -0.80616,-1.05293 -0.21349,-0.14255 0.0484,-0.26162 0.58197,-0.26459 0.53358,-0.003 0.97014,-0.16769 0.97014,-0.36606 0,-0.7677 -2.90373,-3.48174 -3.97739,-3.71755 -0.97693,-0.21457 -1.23369,-0.0926 -2.18092,1.03557 -1.14,1.35784 -2.37191,1.64717 -3.78752,0.88955 -0.55839,-0.29884 -0.7973,-0.27836 -1.02906,0.0882 -0.24464,0.38695 -0.56686,0.32701 -1.70072,-0.31635 -1.45402,-0.82503 -3.00741,-1.037 -3.36456,-0.45912 -0.11375,0.18405 3.37114,4.45807 7.74419,9.497827 8.25384,9.51221 9.00504,10.15967 10.72155,9.24103 1.03333,-0.55303 1.72112,-0.46292 2.51332,0.32929 0.96278,0.96277 0.89004,2.33216 -0.17639,3.32049 -1.06812,0.98991 -1.09366,1.31744 -0.16805,2.15511 0.47593,0.43071 0.5963,0.76365 0.36111,0.99884 -0.23518,0.23518 -0.5911,0.13709 -1.06776,-0.29428 -0.48739,-0.44108 -1.33096,-0.66544 -2.65001,-0.70482 -2.293,-0.0684 -2.62318,-0.29589 -1.7808,-1.2267 0.8723,-0.96389 0.55644,-1.48259 -1.51844,-2.49364 -0.98543,-0.48018 -1.79786,-1.06249 -1.8054,-1.29403 -0.021,-0.64476 -1.47066,-1.5193 -2.51845,-1.5193 -0.51515,0 -1.13426,-0.23813 -1.37581,-0.52917 -0.24154,-0.29104 -0.65608,-0.52917 -0.92119,-0.52917 -0.29843,0 -0.45421,-0.3359 -0.40902,-0.88194 0.0872,-1.05378 0.81895,-1.17333 1.07965,-0.17639 0.10256,0.3922 0.48119,0.70555 0.85254,0.70555 0.36741,0 0.85852,0.1905 1.09136,0.42334 0.25918,0.25918 0.42333,0.28047 0.42333,0.0549 0,-0.31472 -1.24264,-1.84137 -3.98163,-4.89163 -0.34664,-0.38603 -1.03544,-1.21781 -1.53067,-1.8484 -0.49523,-0.63059 -1.05149,-1.14653 -1.23612,-1.14653 -0.40629,0 -2.36698,1.36374 -3.11709,2.16806 -0.36344,0.38971 -1.37123,0.64298 -3.06552,0.77042 -2.19256,0.16491 -2.60517,0.10024 -3.14148,-0.49237 -0.74898,-0.82762 -3.68305,-0.98987 -3.68305,-0.20367 0,0.79664 10.32176,13.38542 11.56001,14.09899 1.08222,0.62366 1.20784,0.6286 2.04455,0.0804 2.2106,-1.44844 4.58767,1.73235 2.62322,3.51016 -0.94362,0.85396 -0.88889,1.42746 0.2088,2.18839 0.5029,0.3486 1.17318,0.91164 1.48952,1.25119 0.74791,0.8028 1.20558,0.7797 1.74759,-0.0882 0.44607,-0.71427 1.99242,-0.97168 2.35108,-0.39136 0.10679,0.1728 -0.20134,0.57334 -0.68474,0.89008 -0.83897,0.54971 -1.18281,1.26517 -0.60803,1.26517 0.14899,0 0.86336,-0.40259 1.5875,-0.89466 z m 0.27078,-5.51767 c 0.0183,-0.68374 0.92033,-2.20319 1.09079,-1.83741 0.37378,0.80212 0.0915,2.0708 -0.48593,2.18362 -0.34149,0.0667 -0.61177,-0.088 -0.60486,-0.34621 z m -0.95236,-3.31277 c -0.27608,-0.71945 0.38212,-1.36515 1.10775,-1.0867 0.45098,0.17306 0.48967,0.36453 0.18769,0.92879 -0.45529,0.85072 -1.00392,0.91759 -1.29544,0.15791 z m 13.46347,-5.44434 c -0.11991,-0.19403 -0.0499,-0.35278 0.15557,-0.35278 0.20548,0 0.3736,0.15875 0.3736,0.35278 0,0.19403 -0.07,0.35278 -0.15557,0.35278 -0.0856,0 -0.25368,-0.15875 -0.3736,-0.35278 z m -7.23194,-11.28889 c 0,-0.19403 0.15875,-0.35278 0.35278,-0.35278 0.19402,0 0.35277,0.15875 0.35277,0.35278 0,0.19403 -0.15875,0.35278 -0.35277,0.35278 -0.19403,0 -0.35278,-0.15875 -0.35278,-0.35278 z m -14.81667,25.4 c 0,-0.19403 -0.3175,-0.35278 -0.70555,-0.35278 -0.38806,0 -0.70556,0.15875 -0.70556,0.35278 0,0.19403 0.3175,0.35278 0.70556,0.35278 0.38805,0 0.70555,-0.15875 0.70555,-0.35278 z m -0.4425,-3.08174 c 0.18689,-0.56127 -1.4493,-1.31337 -2.21663,-1.01892 -0.51351,0.19705 -0.48304,0.31308 0.24209,0.92178 0.8964,0.75247 1.74249,0.79409 1.97454,0.0971 z m 15.29294,0.0424 c 0.40917,-0.49302 0.38326,-0.55248 -0.19216,-0.44097 -0.3658,0.0709 -0.73116,0.32732 -0.81192,0.56985 -0.20953,0.62932 0.4445,0.54537 1.00408,-0.12888 z m -12.10671,-1.39043 c 1.04847,-0.73437 1.01475,-2.10562 -0.0692,-2.81587 -0.79131,-0.51849 -0.95684,-0.50627 -2.279,0.16825 -0.78415,0.40004 -1.61526,0.72735 -1.84691,0.72735 -0.40441,0 -2.18283,-1.89469 -3.66387,-3.9034 -2.34046,-3.17433 -6.45597,-8.46287 -7.47395,-9.60419 -0.65575,-0.73522 -1.28877,-1.81922 -1.4067,-2.4089 -0.31031,-1.55154 -7.64427,-10.644067 -8.86208,-10.987067 -0.59049,-0.16631 -1.75797,-1.28244 -3.06138,-2.9267 -2.33748,-2.94877 -4.13191,-4.72081 -2.46251,-2.43178 1.39724,1.91585 4.34608,5.79046 7.58083,9.96081 1.46225,1.88519 3.83204,5.015117 5.26618,6.955397 3.16972,4.28836 5.63622,7.28691 7.56188,9.19309 0.79564,0.78759 2.44891,2.6529 3.67394,4.14513 1.22503,1.49224 2.38438,2.71317 2.57635,2.71317 0.19198,0 0.9331,0.39687 1.64694,0.88194 1.52096,1.03352 1.77606,1.06363 2.81951,0.33277 z m -7.32984,-1.51282 c 0,-0.35798 -0.28464,-0.90847 -0.63252,-1.2233 -0.59163,-0.53542 -0.65757,-0.50606 -1.01998,0.45405 -0.44703,1.18433 -0.30932,1.42013 0.82935,1.42013 0.56492,0 0.82315,-0.20419 0.82315,-0.65088 z m -18.15921,-0.97263 c -0.33081,-0.50487 -0.52298,-1.21809 -0.42705,-1.58493 0.16158,-0.61787 -1.19608,-2.74182 -4.26261,-6.66854 -0.53,-0.67867 -1.54589,-2.13227 -2.25754,-3.23022 -0.73436,-1.133 -1.6497,-2.09873 -2.11666,-2.23319 -0.45252,-0.1303 -1.58336,-1.05795 -2.51297,-2.06145 l -1.69022,-1.82455 2.12005,3.35139 c 3.11949,4.93131 6.47451,9.54704 9.10929,12.53228 2.42097,2.74299 3.06397,3.28549 2.03771,1.71921 z m 5.67947,-3.14853 c 1.75937,-1.34193 2.11098,-3.08933 1.14581,-5.69427 -0.85455,-2.30639 -1.77029,-3.59037 -5.54715,-7.77783 -2.76843,-3.069397 -4.16225,-3.866187 -6.04115,-3.453517 -1.05812,0.23241 -3.18333,1.941607 -3.18333,2.560197 0,0.18426 0.76942,1.35139 1.70981,2.59363 2.03642,2.69004 2.70381,3.94041 3.01141,5.64196 0.15912,0.88021 0.49759,1.39116 1.10484,1.66784 0.48149,0.21938 1.47104,1.29695 2.199,2.39459 0.72795,1.09765 1.48149,2.21243 1.67453,2.4773 0.57594,0.79027 2.63449,0.57536 3.92623,-0.4099 z m 34.0596,-1.45625 c 0.83554,-0.75614 0.81894,-1.61896 -0.0462,-2.4019 -0.81095,-0.7339 -1.97923,-0.54933 -3.2328,0.51075 l -0.83836,0.70895 0.98981,0.88303 c 1.14773,1.0239 2.21403,1.1259 3.12755,0.29917 z m -5.32225,-2.18263 c -0.19127,-0.3574 -2.22092,-2.79673 -4.51033,-5.42074 -8.46199,-9.698737 -11.57518,-13.531817 -11.74728,-14.463747 -0.25355,-1.37298 -7.25375,-9.40652 -8.42338,-9.66681 -0.50888,-0.11324 -1.43881,-0.78589 -2.06651,-1.49476 -0.66562,-0.75169 -1.1379,-1.06831 -1.13317,-0.75968 0.004,0.29104 1.02812,1.71979 2.2748,3.175 2.75688,3.218 4.28758,5.10428 7.89076,9.72375 1.523,1.95258 4.18055,4.97321 5.90566,6.712517 3.32336,3.3507 7.39388,7.8598 8.21579,9.101 0.72027,1.08772 3.30944,3.74328 3.64969,3.74328 0.16046,0 0.13524,-0.29242 -0.056,-0.64981 z m 29.86107,-3.76916 c -0.12003,-0.89626 -0.29836,-1.03549 -1.01876,-0.79536 -0.56158,0.1872 -0.01,1.68655 0.62064,1.68655 0.34971,0 0.47877,-0.28892 0.39812,-0.89119 z m 2.59842,-0.38422 c 0.40917,-0.49302 0.38326,-0.55248 -0.19215,-0.44097 -0.3658,0.0709 -0.73117,0.32732 -0.81192,0.56986 -0.20954,0.62931 0.44449,0.54536 1.00407,-0.12889 z m -13.94276,-0.0529 c 1.23424,-0.84514 0.42745,-2.90502 -1.1378,-2.90502 -0.49262,0 -1.36964,0.33749 -1.94892,0.74997 l -1.05324,0.74998 -3.05816,-3.18558 c -7.83561,-8.162097 -11.89787,-12.811097 -12.40678,-14.198757 -0.72043,-1.96446 -7.17224,-8.81005 -8.30326,-8.81005 -0.56253,0 -1.57418,-0.83549 -3.29404,-2.72045 -1.36519,-1.49625 -2.58474,-2.61788 -2.7101,-2.49252 -0.12536,0.12536 0.48045,0.99237 1.34625,1.9267 0.8658,0.93432 1.98089,2.35092 2.47798,3.148 0.49709,0.79707 3.65054,4.2102 7.00765,7.58472 3.35712,3.37452 6.8897,7.00862 7.85018,8.07577 5.8026,6.447027 9.72447,10.357907 11.30683,11.275137 1.75562,1.01767 3.18256,1.30939 3.92341,0.8021 z m 14.08538,-1.84669 c 0.11992,-0.19402 0.0499,-0.35277 -0.15557,-0.35277 -0.20548,0 -0.3736,0.15875 -0.3736,0.35277 0,0.19403 0.07,0.35278 0.15557,0.35278 0.0856,0 0.25369,-0.15875 0.3736,-0.35278 z m 3.69295,-3.39035 c 0.006,-0.6076 -0.3961,-1.70965 -0.9015,-2.46944 -0.50199,-0.754677 -5.60509,-6.015587 -11.34023,-11.690897 l -10.42752,-10.31875 -2.15352,-0.002 c -1.55552,-0.002 -2.44739,-0.19695 -3.21184,-0.70323 -1.03235,-0.68369 -2.99862,-0.97143 -2.99862,-0.4388 0,0.45268 21.30132,21.49852 22.00591,21.74198 0.36457,0.12597 1.1846,0.0404 1.82229,-0.19022 0.97414,-0.35226 1.30425,-0.32438 2.06558,0.17446 1.21276,0.79463 1.53954,2.171807 0.72808,3.068457 -0.34411,0.38024 -0.91855,0.69134 -1.27653,0.69134 -0.84112,0 -0.82045,0.15041 0.15541,1.1305 0.64232,0.6451 1.1184,0.78724 2.34099,0.69896 0.84408,-0.061 1.6981,0.0526 1.89782,0.25231 0.52696,0.52696 1.27998,-0.60481 1.29368,-1.94434 z m -79.35505,0.72155 c 0.18923,-0.49769 0.34405,-1.35235 0.34405,-1.89922 0,-0.7125 0.40024,-1.35592 1.41212,-2.270087 1.18629,-1.07173 1.66866,-1.27577 3.01613,-1.27577 1.64871,0 3.32641,0.65441 4.56758,1.781647 0.75493,0.68563 2.64583,1.51664 2.64583,1.16279 0,-0.11721 -0.51593,-0.81038 -1.14652,-1.540397 -1.94535,-2.25207 -2.55084,-3.01216 -3.24944,-4.07914 -0.37059,-0.56599 -1.04122,-1.31841 -1.4903,-1.67204 -0.44909,-0.35363 -0.81651,-0.84954 -0.81651,-1.10202 0,-0.25248 -0.8552,-1.41749 -1.90045,-2.58892 -1.04524,-1.17142 -1.96962,-2.33739 -2.05417,-2.59104 -0.12575,-0.37725 -0.4222,-0.37257 -1.62908,0.0258 -1.68609,0.55646 -2.20364,0.31801 -1.35211,-0.62293 0.82959,-0.91668 0.72786,-1.65224 -0.3238,-2.34132 -0.50029,-0.3278 -0.83958,-0.78262 -0.75397,-1.01071 0.58163,-1.54976 0.58968,-1.96738 0.0483,-2.50875 -0.51674,-0.51673 -0.66819,-0.52367 -1.37152,-0.0628 -0.43484,0.28493 -1.40915,0.62217 -2.16512,0.74943 -2.06335,0.34735 -4.70069,1.23998 -6.09606,2.06327 l -1.24255,0.73313 1.14442,0.23406 c 1.27358,0.26047 2.52664,1.23224 2.52664,1.95943 0,0.26097 -0.29462,0.76911 -0.65471,1.1292 -1.39657,1.39658 -1.18496,2.33056 1.31707,5.81301 5.07572,7.064617 8.00081,10.818377 8.43016,10.818377 0.24747,0 0.60476,-0.40721 0.79399,-0.90492 z m 1.0496,-11.442307 c 0,-0.19402 0.16812,-0.35277 0.3736,-0.35277 0.20548,0 0.27549,0.15875 0.15557,0.35277 -0.11992,0.19403 -0.28804,0.35278 -0.3736,0.35278 -0.0856,0 -0.15557,-0.15875 -0.15557,-0.35278 z m 21.27806,10.539247 c 2.52293,-1.29939 3.02013,-2.76086 2.02987,-5.966577 -0.58309,-1.8876 -1.07049,-2.6436 -2.83434,-4.39628 -1.17158,-1.16416 -2.55674,-2.72402 -3.07812,-3.46635 -2.17764,-3.10045 -6.33044,-3.58036 -7.72054,-0.89221 -0.79255,1.53265 -0.61042,2.29602 1.0277,4.30718 0.84173,1.03341 1.90282,2.77742 2.35797,3.87557 0.45517,1.09816 1.01794,1.99665 1.25062,1.99665 0.23267,0 0.95752,0.72018 1.61078,1.6004 0.65325,0.880227 1.47706,1.991477 1.83069,2.469437 0.70735,0.95607 2.19815,1.15574 3.52537,0.47218 z m -28.68639,-3.969657 c 0,-0.0732 -0.27781,-0.35107 -0.61736,-0.61736 -0.55953,-0.43881 -0.57201,-0.42634 -0.1332,0.13319 0.46086,0.58764 0.75056,0.77452 0.75056,0.48417 z m -4.23333,-5.64445 c 0,-0.0733 -0.24176,-0.33383 -0.53725,-0.57906 -0.44921,-0.37281 -0.50083,-0.35099 -0.31503,0.13319 0.18976,0.4945 0.85228,0.8411 0.85228,0.44587 z m 19.8942,-1.48316 c 0.11777,-0.30691 0.21413,-1.17957 0.21413,-1.93926 0,-1.08971 0.26737,-1.67719 1.26676,-2.78339 1.65076,-1.8272 3.14129,-2.13918 5.48643,-1.14839 0.94241,0.39815 1.71348,0.62521 1.71348,0.50456 0,-0.38978 -2.59985,-2.89494 -3.00437,-2.89494 -0.21544,0 -0.61517,-0.56948 -0.88827,-1.26552 -0.27311,-0.69603 -0.55409,-1.09291 -0.62441,-0.88194 -0.35048,1.05144 -2.24528,-0.71465 -2.32425,-2.16636 -0.0208,-0.38297 -0.69258,-1.17042 -1.49279,-1.7499 l -1.45491,-1.05361 -2.77842,0.77657 c -2.93273,0.81971 -4.7187,1.59316 -4.7187,2.04353 0,0.14892 0.50072,0.42266 1.11269,0.6083 0.61198,0.18565 1.32915,0.66977 1.59371,1.07583 0.4207,0.64571 0.39176,0.85175 -0.23075,1.64314 -1.22081,1.55202 -0.9263,2.39778 2.16813,6.22631 2.86662,3.54668 3.5537,4.06788 3.96154,3.00507 z m 22.61552,-0.2525 c 2.15555,-1.22038 2.52752,-2.30869 1.81036,-5.29683 -0.57065,-2.37772 -0.6806,-2.53658 -4.08699,-5.90507 -3.95526,-3.91126 -4.40181,-4.21535 -6.19004,-4.21535 -1.73465,0 -2.61055,0.53494 -3.20486,1.95734 -0.74402,1.78067 -0.62067,2.53504 0.67968,4.15689 0.64845,0.80877 1.69197,2.3833 2.31895,3.49896 0.62698,1.11566 1.25934,2.02847 1.40525,2.02847 0.14591,0 1.10249,1.03188 2.12575,2.29306 2.11618,2.60824 2.80353,2.80642 5.1419,1.48253 z m -11.81806,-2.85045 c 0,-0.0733 -0.27781,-0.35107 -0.61736,-0.61736 -0.55953,-0.43881 -0.572,-0.42633 -0.13319,0.13319 0.46085,0.58764 0.75055,0.77452 0.75055,0.48417 z m -31.60961,-0.62014 c 1.09879,-0.50065 1.35136,-1.1182 0.77801,-1.9023 -0.5183,-0.70882 -2.09404,-0.80117 -2.85759,-0.16749 -0.71431,0.59283 -0.67031,1.64816 0.0871,2.08931 0.79413,0.46254 0.93753,0.46114 1.99247,-0.0195 z m 13.99392,-5.60907 c 0.89263,-0.47773 0.87279,-1.62474 -0.0365,-2.11139 -1.42504,-0.76266 -3.15589,0.46348 -2.46819,1.74847 0.42403,0.79231 1.43002,0.93807 2.50471,0.36292 z m 16.5902,-2.28433 c 0.4043,-3.40141 1.46434,-4.76797 4.0241,-5.18772 0.5774,-0.0947 0.69737,-0.37061 0.66046,-1.51909 -0.0546,-1.69825 -0.26627,-2.64576 -0.6014,-2.69179 -1.42267,-0.19537 -9.40563,2.67057 -9.66733,3.47065 -0.0851,0.26019 0.35641,0.46027 1.16773,0.52917 0.84816,0.072 1.4751,0.36909 1.79196,0.84908 0.42976,0.651 0.39907,0.85056 -0.25957,1.68788 -0.89422,1.13682 -0.73022,2.15197 0.60377,3.73732 1.31274,1.56011 2.02319,1.28734 2.28028,-0.8755 z m 3.00669,-6.43451 c -0.11977,-0.33955 -0.31027,-0.8158 -0.42332,-1.05834 -0.11306,-0.24253 -0.0114,-0.44097 0.22591,-0.44097 0.5063,0 1.36385,1.04131 1.37999,1.67569 0.017,0.66903 -0.93444,0.52711 -1.18258,-0.17638 z m 12.05474,5.17584 c 0.42116,-3.5547 2.0101,-6.32237 3.62971,-6.32237 1.74607,0 0.91628,-1.9115 -1.09085,-2.51285 -1.52954,-0.45826 -1.68313,-0.69801 -0.87619,-1.36771 0.66597,-0.5527 0.67564,-1.42988 0.0255,-2.31382 -0.49728,-0.67613 -0.53186,-0.67514 -2.73403,0.0779 -1.2267,0.4195 -2.6713,0.86019 -3.2102,0.97929 -1.37862,0.3047 -4.841,1.98361 -4.841,2.3474 0,0.16647 0.47041,0.20858 1.04536,0.0936 2.43815,-0.48763 3.79936,0.82858 2.65816,2.57027 -0.33332,0.50871 -0.50137,1.22755 -0.3877,1.65842 0.26727,1.01315 4.77504,5.94179 5.28192,5.77508 0.21895,-0.072 0.44364,-0.51537 0.49931,-0.98524 z m -18.33983,-1.80682 c 1.1334,-1.13339 -0.0831,-2.34966 -1.89518,-1.89485 -0.59814,0.15012 -0.85648,0.46122 -0.85648,1.03139 0,0.44903 0.10583,0.92226 0.23518,1.05161 0.38976,0.38976 2.06373,0.26461 2.51648,-0.18815 z m 12.56897,-5.06992 c 0.3049,-0.3049 0.55437,-0.61106 0.55437,-0.68035 0,-0.4458 -1.24791,-1.23473 -1.95307,-1.23473 -1.0681,0 -1.81756,1.2226 -1.20322,1.96283 0.55588,0.6698 1.90921,0.64496 2.60192,-0.0478 z"
           id="path361" />
        <path
           style="fill:#4f3c35;stroke-width:0.352778"
           d="m 272.97053,137.01724 c 0.10204,-0.1124 2.53095,-1.39128 5.39758,-2.84196 2.86664,-1.45069 5.40252,-2.79038 5.63531,-2.97711 0.23279,-0.18673 2.40763,-1.2495 4.83297,-2.36172 2.42535,-1.11223 4.64785,-2.2301 4.93889,-2.48417 0.46375,-0.40483 5.10454,-2.79068 27.86945,-14.3278 5.55236,-2.8139 8.18892,-4.93445 8.62955,-6.94062 0.13429,-0.61146 0.39027,-1.20203 0.56882,-1.31238 0.17856,-0.11036 0.62436,-0.85441 0.99067,-1.65346 l 0.66602,-1.4528 -1.28239,-1.219755 c -0.70532,-0.670863 -1.58675,-1.238317 -1.95873,-1.261008 -0.84856,-0.05177 -1.15301,-0.852544 -0.42966,-1.13012 1.10591,-0.424377 5.16294,4.366313 5.16294,6.096603 0,2.34457 -1.62573,5.09111 -3.32531,5.61782 -1.31096,0.40628 -7.4281,3.42445 -7.66817,3.78343 -0.2596,0.3882 -1.06615,0.81781 -7.60211,4.04923 -2.48125,1.22675 -4.82885,2.40689 -5.21691,2.62254 -0.38806,0.21565 -1.13896,0.61106 -1.66868,0.8787 -0.52972,0.26763 -1.04753,0.62316 -1.15068,0.79007 -0.10315,0.1669 -1.01912,0.57361 -2.03548,0.90379 -1.01637,0.33017 -2.16838,0.89109 -2.56003,1.24648 -0.90282,0.81922 -8.10278,4.20436 -8.94238,4.20436 -0.34621,0 -1.00233,0.39688 -1.45803,0.88195 -0.4557,0.48507 -1.01759,0.88194 -1.24864,0.88194 -0.23105,0 -0.79869,0.29566 -1.26142,0.65703 -0.46273,0.36136 -1.2382,0.77566 -1.72327,0.92066 -0.48507,0.14501 -2.15195,1.00988 -3.70417,1.92194 -4.70052,2.76196 -6.53929,3.53217 -10.75972,4.50701 -0.48507,0.11203 -0.79846,0.11174 -0.69642,-7.1e-4 z m -5.65358,-7.5531 c -0.29104,-0.10445 -0.8804,-0.50929 -1.30969,-0.89964 -0.42929,-0.39035 -1.12195,-0.88608 -1.53924,-1.10163 -0.41729,-0.21554 -1.80439,-1.90002 -3.08243,-3.74329 -1.27805,-1.84326 -2.03224,-3.11559 -1.67598,-2.8274 0.35626,0.2882 1.00042,1.08195 1.43146,1.76389 0.43104,0.68195 1.48101,2.00256 2.33327,2.9347 l 1.54955,1.69479 1.48227,-0.72465 c 1.82203,-0.89077 2.30363,-0.90333 3.04917,-0.0795 0.69171,0.76433 0.76097,1.94898 0.14287,2.44349 -0.63,0.50403 -1.76391,0.76081 -2.38125,0.53926 z m 14.03533,-8.03761 c -0.71384,-0.48507 -1.45496,-0.88194 -1.64694,-0.88194 -0.19197,0 -1.35132,-1.22093 -2.57635,-2.71317 -1.22503,-1.49223 -2.8783,-3.35754 -3.67394,-4.14513 -1.92566,-1.90618 -4.39216,-4.90473 -7.56188,-9.19309 -1.43414,-1.94028 -3.80393,-5.07021 -5.26618,-6.955398 -3.23475,-4.170349 -6.18359,-8.044964 -7.58083,-9.960815 -1.6694,-2.289023 0.12503,-0.516989 2.46251,2.431782 1.30341,1.644265 2.47089,2.760394 3.06138,2.926704 1.21781,0.342999 8.55177,9.435527 8.86208,10.987067 0.11793,0.58968 0.75095,1.67368 1.4067,2.4089 1.01798,1.14132 5.13349,6.42986 7.47395,9.60419 1.48104,2.00871 3.25946,3.9034 3.66387,3.9034 0.23165,0 1.06276,-0.32731 1.84691,-0.72735 1.32216,-0.67452 1.48769,-0.68674 2.279,-0.16825 1.08398,0.71025 1.1177,2.0815 0.0692,2.81587 -1.04345,0.73086 -1.29855,0.70075 -2.81951,-0.33277 z m -24.70725,-3.87189 c -2.63478,-2.98524 -5.9898,-7.60097 -9.10929,-12.53228 l -2.12005,-3.35139 1.69022,1.82455 c 0.92961,1.0035 2.06045,1.93115 2.51297,2.06145 0.46696,0.13446 1.3823,1.10019 2.11666,2.23319 0.71165,1.09795 1.72754,2.55155 2.25754,3.23022 3.06653,3.92672 4.42419,6.05067 4.26261,6.66854 -0.0959,0.36684 0.0962,1.08006 0.42705,1.58493 1.02626,1.56628 0.38326,1.02378 -2.03771,-1.71921 z m 3.79095,-1.01942 c -0.19304,-0.26487 -0.94658,-1.37965 -1.67453,-2.4773 -0.72796,-1.09764 -1.71751,-2.17521 -2.199,-2.39459 -0.60725,-0.27668 -0.94572,-0.78763 -1.10484,-1.66784 -0.3076,-1.70155 -0.97499,-2.95192 -3.01141,-5.64196 -0.94039,-1.24224 -1.70981,-2.40937 -1.70981,-2.59363 0,-0.61859 2.12521,-2.327795 3.18333,-2.560198 1.8789,-0.412676 3.27272,0.384122 6.04115,3.453518 3.77686,4.18746 4.6926,5.47144 5.54715,7.77783 0.96517,2.60494 0.61356,4.35234 -1.14581,5.69427 -1.29174,0.98526 -3.35029,1.20017 -3.92623,0.4099 z m 34.85828,-2.16532 -0.98981,-0.88303 0.83836,-0.70895 c 1.25357,-1.06008 2.42185,-1.24465 3.2328,-0.51075 0.86514,0.78294 0.88174,1.64576 0.0462,2.4019 -0.91352,0.82673 -1.97982,0.72473 -3.12755,-0.29917 z m -3.86283,-2.73295 c -0.78783,-0.82462 -1.65432,-1.83441 -1.92553,-2.24398 -0.82191,-1.2412 -4.89243,-5.7503 -8.21579,-9.101 -1.72511,-1.739308 -4.38266,-4.759936 -5.90566,-6.712519 -3.60318,-4.619476 -5.13388,-6.505751 -7.89076,-9.723754 -1.24668,-1.455209 -2.27034,-2.883959 -2.2748,-3.175 -0.005,-0.308624 0.46755,0.008 1.13317,0.759685 0.6277,0.708872 1.55763,1.381513 2.06651,1.494759 1.16963,0.26029 8.16983,8.29383 8.42338,9.666806 0.1721,0.931929 3.28529,4.765011 11.74728,14.463753 2.28941,2.62401 4.31906,5.06334 4.51033,5.42074 0.59252,1.10713 -0.16957,0.71904 -1.66813,-0.84949 z m 16.26145,-4.15889 c -1.58236,-0.91723 -5.50423,-4.82811 -11.30683,-11.275141 -0.96048,-1.067153 -4.49306,-4.701251 -7.85018,-8.075771 -3.35711,-3.374521 -6.51056,-6.787646 -7.00765,-7.584723 -0.49709,-0.797076 -1.61218,-2.213673 -2.47798,-3.147998 -0.8658,-0.934325 -1.47161,-1.801336 -1.34625,-1.926699 0.12536,-0.12536 1.34491,0.996276 2.7101,2.492519 1.71986,1.884959 2.73151,2.72045 3.29404,2.72045 1.13102,0 7.58283,6.845589 8.30326,8.810049 0.50891,1.387662 4.57117,6.036663 12.40678,14.198764 l 3.05816,3.18558 1.05324,-0.74998 c 0.57928,-0.41248 1.4563,-0.74997 1.94892,-0.74997 1.56525,0 2.37204,2.05988 1.1378,2.90502 -0.74085,0.50729 -2.16779,0.21557 -3.92341,-0.8021 z m -38.85102,-5.08863 c -0.35363,-0.47796 -1.17744,-1.58921 -1.83069,-2.46944 -0.65326,-0.880223 -1.37811,-1.600405 -1.61078,-1.600405 -0.23268,0 -0.79545,-0.898489 -1.25062,-1.996641 -0.45515,-1.098151 -1.51624,-2.842161 -2.35797,-3.875571 -1.63812,-2.011168 -1.82025,-2.774537 -1.0277,-4.30718 1.3901,-2.688152 5.5429,-2.208244 7.72054,0.892203 0.52138,0.74233 1.90654,2.302189 3.07812,3.466356 1.76385,1.752674 2.25125,2.50868 2.83434,4.396281 0.78973,2.556563 0.66414,3.819087 -0.48387,4.863937 -1.92572,1.7527 -4.04605,2.01629 -5.07137,0.63046 z m 51.74453,-0.92957 c -1.11324,-0.49627 -3.74798,-2.836946 -8.81944,-7.835126 -7.47656,-7.368522 -11.1041,-10.806476 -11.96127,-11.336105 -0.41354,-0.25552 -0.45682,0.02674 -0.26039,1.698054 0.31326,2.665356 -0.3225,3.909402 -2.46783,4.828999 -0.87823,0.376452 -1.83998,0.684459 -2.13721,0.684459 -0.83674,0 -6.01914,-5.236686 -7.34946,-7.426431 -0.65437,-1.077108 -1.51493,-2.252648 -1.91236,-2.612316 -0.86742,-0.785008 -0.86894,-0.814497 -0.16706,-3.228893 0.65103,-2.239483 1.67097,-2.960138 4.18945,-2.960138 1.84855,0 2.13995,-0.626688 0.72307,-1.555058 -0.72335,-0.473964 -0.88194,-0.861868 -0.88194,-2.15724 0,-1.087811 -0.14768,-1.579368 -0.47449,-1.579368 -0.26097,0 -0.75913,-0.314523 -1.10702,-0.698938 -0.78168,-0.863751 -0.26878,-1.671902 1.16635,-1.83776 0.73537,-0.08499 0.9691,-0.324517 1.05626,-1.082492 0.0735,-0.639268 0.44559,-1.145896 1.08403,-1.476047 0.53465,-0.276475 1.1784,-0.751279 1.43057,-1.055112 0.61387,-0.739676 2.78815,-0.702479 3.93136,0.06726 0.5024,0.338272 2.30389,1.885036 4.00332,3.437258 3.06168,2.79648 4.85814,5.499503 4.95527,7.455874 0.0206,0.414203 1.05633,1.922328 2.3017,3.351389 1.24538,1.42906 1.84708,2.226119 1.33711,1.771244 -0.62077,-0.553709 -1.16076,-0.752923 -1.63388,-0.602763 -0.49507,0.157131 -1.07256,-0.09697 -1.92866,-0.848646 -1.45223,-1.275069 -1.86012,-1.308368 -3.89815,-0.318212 -0.96231,0.467525 -1.87573,0.673826 -2.40039,0.542142 -0.93666,-0.235085 -4.53269,-3.553595 -6.08825,-5.618389 -0.99431,-1.319819 -1.70826,-1.590322 -2.64008,-1.000294 -0.69718,0.441448 2.46325,3.659448 3.28448,3.344312 0.63579,-0.24397 1.7993,1.024943 2.67603,2.918435 0.50385,1.088186 22.2941,23.565418 23.17555,23.906202 0.23177,0.0896 1.04724,-0.17988 1.81216,-0.598866 1.19229,-0.653086 1.52546,-0.700412 2.33479,-0.33166 0.78456,0.35747 0.9254,0.623397 0.83368,1.574126 -0.0998,1.03476 -0.22824,1.15086 -1.34507,1.21589 -0.6791,0.0395 -1.9491,-0.24657 -2.82223,-0.63579 z m -77.65611,-3.05208 c -0.43881,-0.559527 -0.42633,-0.572005 0.1332,-0.133195 0.33955,0.266294 0.61736,0.544107 0.61736,0.617361 0,0.29035 -0.2897,0.103473 -0.75056,-0.484166 z m 83.38875,-3.144055 c -0.24253,-0.09786 -0.44097,-0.469042 -0.44097,-0.824836 0,-0.355794 -0.67469,-1.212582 -1.4993,-1.903974 -0.82462,-0.691391 -1.33559,-1.260182 -1.13549,-1.263981 0.2001,-0.0038 1.30638,0.945596 2.4584,2.109762 1.85053,1.87004 2.04345,2.458466 0.61736,1.883029 z m -87.7238,-2.462092 c -0.1858,-0.484181 -0.13418,-0.506003 0.31503,-0.133195 0.61216,0.508046 0.67587,0.712258 0.22221,0.712258 -0.17327,0 -0.41503,-0.260579 -0.53724,-0.579063 z m 38.2201,-2.772325 c -1.02326,-1.261181 -1.97984,-2.293056 -2.12575,-2.293056 -0.14591,0 -0.77827,-0.912812 -1.40525,-2.028472 -0.62698,-1.11566 -1.6705,-2.690188 -2.31895,-3.498956 -1.30035,-1.62185 -1.4237,-2.376226 -0.67968,-4.156897 0.59431,-1.422396 1.47021,-1.957341 3.20486,-1.957341 1.78823,0 2.23478,0.304098 6.19004,4.215355 3.40639,3.368492 3.51634,3.527348 4.08699,5.90507 0.71716,2.98814 0.34519,4.076446 -1.81036,5.296831 -2.33837,1.323887 -3.02572,1.125707 -5.1419,-1.482534 z m 44.56481,0.146635 c -0.74718,-0.28267 -1.1414,-1.381358 -0.49565,-1.381358 0.36898,0 1.63355,1.36536 1.43423,1.548543 -0.0796,0.07321 -0.50201,-0.0021 -0.93858,-0.167185 z m -84.84305,-2.115171 c -0.75742,-0.441155 -0.80142,-1.496486 -0.0871,-2.089312 0.76355,-0.633684 2.33929,-0.54133 2.85759,0.167485 0.57335,0.784105 0.32078,1.401657 -0.77801,1.902301 -1.05494,0.480663 -1.19834,0.482067 -1.99247,0.01954 z m 81.93264,-0.004 c -0.42197,-0.298425 -0.43461,-0.412224 -0.0624,-0.561763 0.34729,-0.139528 0.25699,-0.421796 -0.35278,-1.102741 -0.78663,-0.878452 -0.76995,-0.875168 0.41518,0.0818 1.60187,1.29347 2.00287,1.969477 1.16405,1.962341 -0.34919,-0.0028 -0.87301,-0.173807 -1.16405,-0.379635 z m -86.35957,-3.163111 c 0.10203,-1.339078 0.38246,-1.573411 2.93306,-2.450945 2.44864,-0.842458 2.86855,-0.87449 2.28762,-0.174519 -0.24154,0.291041 -0.58073,0.529166 -0.75373,0.529166 -0.17302,0 -1.19163,0.714375 -2.26359,1.5875 -1.07196,0.873125 -2.02474,1.5875 -2.11729,1.5875 -0.0925,0 -0.13128,-0.485415 -0.0861,-1.078702 z m 84.06651,-0.332409 c -0.11991,-0.194028 -0.53114,-0.352778 -0.91383,-0.352778 -0.70488,0 -1.19771,-0.720922 -0.96667,-1.414053 0.0695,-0.208446 0.67123,0.183191 1.3372,0.870306 0.66598,0.687116 1.10973,1.249303 0.9861,1.249303 -0.12362,0 -0.32288,-0.15875 -0.4428,-0.352778 z m -66.1579,-2.491994 c -0.28753,-0.537263 -0.28244,-0.857313 0.0194,-1.221062 0.9947,-1.198531 3.16763,-0.829434 3.16763,0.538056 0,1.378956 -2.52501,1.920078 -3.18707,0.683006 z m -8.80738,-1.741339 c 0.69087,-0.446476 1.15789,-0.446476 0.88195,0 -0.11992,0.194028 -0.48647,0.350347 -0.81457,0.347377 -0.51409,-0.0047 -0.52341,-0.05267 -0.0674,-0.347377 z m 1.5563,-0.302288 c 0.50191,-0.812102 7.12381,-3.562185 8.60689,-3.574451 1.83098,-0.01513 -3.25113,2.61353 -6.0549,3.131834 -1.11784,0.206647 -2.20654,0.483313 -2.41932,0.614818 -0.23375,0.144473 -0.28626,0.07632 -0.13267,-0.172201 z M 263.3188,77.27051 c -0.12935,-0.129349 -0.23518,-0.602576 -0.23518,-1.051609 0,-0.570174 0.25834,-0.881267 0.85648,-1.031392 1.8121,-0.454808 3.02858,0.761457 1.89518,1.894854 -0.45275,0.452755 -2.12672,0.57791 -2.51648,0.188147 z m -9.05463,-1.848319 c 0,-0.245805 2.83316,-1.444272 3.41424,-1.444272 0.46244,0 -0.0788,0.636132 -0.97561,1.146528 -1.16497,0.663049 -2.43863,0.818557 -2.43863,0.297744 z m 3.88056,-1.411418 c 0,-0.347694 2.07203,-1.364209 4.37675,-2.147185 2.36806,-0.804496 2.81734,-0.864669 2.48897,-0.333354 -0.26632,0.430907 -1.95309,1.185368 -2.41196,1.078823 -0.16981,-0.03943 -0.60181,0.193548 -0.96002,0.517719 -0.65151,0.589611 -3.49374,1.308759 -3.49374,0.883997 z m 17.6576,-1.950582 c -0.61434,-0.74023 0.13512,-1.962828 1.20322,-1.962828 0.70516,0 1.95307,0.788924 1.95307,1.234723 0,0.0693 -0.24947,0.375457 -0.55437,0.680356 -0.69271,0.692711 -2.04604,0.717547 -2.60192,0.04775 z m -7.75043,-2.097017 c 0.40412,-0.368918 8.16869,-3.393588 8.71162,-3.393588 0.0906,0 -0.0343,0.239973 -0.27776,0.533273 -0.53108,0.639924 -3.36416,1.936171 -4.23168,1.936171 -0.3397,0 -1.18754,0.238125 -1.88411,0.529167 -1.1325,0.473191 -2.69546,0.739507 -2.31807,0.394977 z m 12.15308,-4.43308 c -0.10295,-0.166588 0.30072,-0.47298 0.89707,-0.680864 0.79617,-0.277548 1.04899,-0.272197 0.95155,0.02014 -0.17704,0.531111 -1.61179,1.043916 -1.84862,0.660724 z m 3.69253,-1.368185 c 0,-0.871181 3.28375,-1.62179 4.93888,-1.128945 l 0.88195,0.262615 -1.05833,0.432283 c -1.5267,0.623584 -4.7625,0.918492 -4.7625,0.434047 z"
           id="path359" />
      </g>
    </g>
  </g>
</svg>
