<?xml version="1.0" encoding="UTF-8" standalone="no"?>
<!-- Created with Inkscape (http://www.inkscape.org/) -->

<svg
   width="180.62222mm"
   height="180.62222mm"
   viewBox="0 0 180.62222 180.62222"
   version="1.1"
   id="svg5"
   inkscape:version="1.1.1 (3bf5ae0d25, 2021-09-20)"
   sodipodi:docname="faceplate.svg"
   xmlns:inkscape="http://www.inkscape.org/namespaces/inkscape"
   xmlns:sodipodi="http://sodipodi.sourceforge.net/DTD/sodipodi-0.dtd"
   xmlns="http://www.w3.org/2000/svg"
   xmlns:svg="http://www.w3.org/2000/svg">
  <sodipodi:namedview
     id="namedview7"
     pagecolor="#ffffff"
     bordercolor="#666666"
     borderopacity="1.0"
     inkscape:pageshadow="2"
     inkscape:pageopacity="0.0"
     inkscape:pagecheckerboard="0"
     inkscape:document-units="mm"
     showgrid="false"
     fit-margin-top="0"
     fit-margin-left="0"
     fit-margin-right="0"
     fit-margin-bottom="0"
     inkscape:zoom="0.5499273"
     inkscape:cx="692.81885"
     inkscape:cy="31.822388"
     inkscape:window-width="2458"
     inkscape:window-height="1417"
     inkscape:window-x="94"
     inkscape:window-y="-8"
     inkscape:window-maximized="1"
     inkscape:current-layer="layer1" />
  <defs
     id="defs2" />
  <g
     inkscape:label="Layer 1"
     inkscape:groupmode="layer"
     id="layer1"
     transform="translate(227.41422,-11.070331)">
    <g
       id="g8446"
       transform="matrix(1.5,0,0,1.5,-255.20988,-57.890666)">
      <g
         id="g327">
        <path
           style="fill:#b68249;stroke-width:0.352778"
           d="m 59.486383,138.423 c -0.640927,-0.52371 -0.737171,-0.77787 -0.417689,-1.10305 0.749967,-0.76334 3.676728,0.51807 3.145713,1.37728 -0.386158,0.62481 -1.801922,0.4825 -2.728024,-0.27423 z m 71.697077,-27.01254 c -0.0129,-0.19402 0.37098,-1.62277 0.85312,-3.175 1.05878,-3.40876 1.10776,-5.39602 0.17789,-7.2187 -0.45336,-0.88866 -7.05141,-7.384511 -18.78542,-18.494453 -9.94763,-9.418581 -18.633757,-17.527383 -19.30249,-18.019561 -2.000281,-1.472184 -4.705755,-2.304781 -7.489228,-2.304781 -2.417555,0 -3.430327,0.346558 -29.002736,9.924362 -14.57374,5.4584 -27.212085,10.286558 -28.08521,10.729242 -1.85505,0.94053 -4.032211,3.088922 -4.565107,4.504778 -0.560761,1.48989 -0.454621,3.51161 0.349748,6.662018 0.397944,1.558582 0.661052,3.093159 0.58469,3.410165 -0.350844,1.456496 -2.013775,-5.089776 -2.013775,-7.927404 0,-3.066496 2.168482,-5.735919 6.1569,-7.579208 1.173356,-0.542276 13.642752,-5.315684 27.709766,-10.607569 l 25.576388,-9.621612 3.358808,-0.01196 c 5.737973,-0.02046 5.117687,-0.482155 26.309916,19.58371 10.0391,9.505513 18.62001,17.823007 19.0687,18.483319 0.4487,0.660314 1.00966,1.925354 1.24659,2.811204 0.3801,1.42114 0.33807,1.92576 -0.35722,4.28902 -0.82565,2.80641 -1.75129,5.16396 -1.79133,4.56244 z M 88.121224,67.241646 c -0.02095,-0.828869 0.81612,-2.221459 1.335296,-2.221459 0.465011,0 0.464157,0.07284 -0.0072,0.617361 -0.293952,0.339548 -0.710604,0.934861 -0.925893,1.322917 -0.215287,0.388055 -0.396262,0.514586 -0.40216,0.281181 z"
           id="path335" />
        <path
           style="fill:#ff8f52;fill-opacity:1;stroke-width:0.352778"
           d="m 61.475775,140.30294 c -3.451829,-0.85293 -6.777334,-3.15274 -8.748244,-6.05002 -3.349374,-4.92366 -6.09964,-8.84038 -7.022528,-10.00096 -0.524757,-0.6599 -3.866698,-5.4067 -7.426533,-10.54844 -3.559835,-5.14174 -7.827733,-11.26833 -9.484215,-13.61467 -2.419954,-3.427775 -3.126938,-4.724495 -3.597773,-6.598895 -0.675192,-2.68795 -0.745387,-4.71698 -0.212203,-6.1336 0.532896,-1.41586 2.710057,-3.56425 4.565107,-4.50478 0.873125,-0.44269 13.51147,-5.27084 28.08521,-10.72924 25.572409,-9.57781 26.585181,-9.92437 29.002736,-9.92437 2.476584,0 5.458153,0.81221 6.928587,1.88742 0.587668,0.42971 0.54314,0.46003 -0.459581,0.31286 -0.610666,-0.0896 -1.82021,0.0466 -2.687878,0.30284 -1.546711,0.45669 -1.734604,0.67795 -2.43793,2.8708 -0.295053,0.91993 -1.280319,0.35499 -1.28596,-0.73735 -0.01309,-2.53483 -0.888199,-3.24602 -2.939503,-2.38893 -2.25921,0.94396 -2.631236,2.99991 -0.899693,4.97203 0.602185,0.68585 1.293456,1.247 1.536164,1.247 0.242704,0 0.92444,0.51594 1.514965,1.14653 0.590525,0.63059 2.478941,2.63575 4.196479,4.45592 1.717534,1.82017 2.803518,3.14456 2.413289,2.94309 -0.390225,-0.20146 -1.024851,-0.71475 -1.410279,-1.14065 -2.137004,-2.36136 -5.648137,-2.41618 -7.774872,-0.1214 l -0.871795,0.94068 -2.248384,-2.08361 c -1.236609,-1.14599 -2.345287,-2.32174 -2.463722,-2.61278 -0.118438,-0.29104 -0.810366,-0.84667 -1.537617,-1.23472 -1.137292,-0.60685 -1.364732,-0.93826 -1.625759,-2.36887 -0.329569,-1.80628 -0.914015,-2.23721 -2.495776,-1.84021 -1.138957,0.28586 -2.674793,2.06545 -2.674793,3.09931 0,1.09098 0.712453,2.03613 4.50837,5.9809 1.831206,1.90301 3.248423,3.54105 3.149378,3.6401 -0.09905,0.0991 -0.90393,-0.37244 -1.78863,-1.04775 -0.884703,-0.67531 -2.090377,-1.33366 -2.679276,-1.463 -1.217475,-0.2674 -3.323975,0.32139 -4.544353,1.2702 -0.752256,0.58485 -0.898479,0.59376 -1.651183,0.10057 -0.454209,-0.29761 -1.062694,-0.9026 -1.352187,-1.34443 -0.289497,-0.44182 -0.999663,-0.99936 -1.578151,-1.23898 -0.811978,-0.33633 -1.104026,-0.73074 -1.280859,-1.72981 -0.42092,-2.3781 -0.523713,-2.52887 -1.724219,-2.52887 -1.951909,0 -3.730554,1.59156 -3.745346,3.35139 -0.01154,1.37382 0.261158,1.75078 6.469027,8.94242 2.886318,3.34371 5.163259,6.16407 5.059867,6.26746 -0.214083,0.21408 -1.633407,-0.54706 -3.392523,-1.81932 -1.493386,-1.08007 -3.484263,-1.12757 -5.671785,-0.13529 -1.322419,0.59985 -1.637516,0.63695 -1.940277,0.22843 -1.304558,-1.76023 -4.228698,-5.19342 -4.423379,-5.19342 -0.129003,0 -0.413385,-0.39249 -0.631952,-0.87219 -0.21857,-0.47971 -0.941941,-1.09972 -1.607491,-1.37781 -1.010155,-0.42207 -1.249504,-0.73888 -1.448629,-1.91749 -0.369666,-2.18803 -0.88306,-2.68187 -2.477174,-2.38281 -1.93246,0.36253 -3.354783,1.90162 -3.354783,3.6302 0,1.24818 0.635159,2.16636 7.278896,10.52228 9.169604,11.532725 9.088589,11.425695 8.838071,11.676225 -0.115062,0.11505 -1.340468,-0.36552 -2.723124,-1.06794 -2.730267,-1.38704 -3.950853,-1.53721 -6.430013,-0.79109 l -1.614967,0.48602 -4.702906,-6.168045 c -2.586594,-3.39242 -4.985152,-6.60997 -5.330126,-7.1501 -0.344974,-0.54012 -1.097986,-1.17704 -1.673363,-1.41537 -0.80114,-0.33184 -1.131121,-0.77465 -1.409026,-1.8908 -0.500457,-2.00998 -0.822346,-2.49712 -1.739769,-2.63292 -2.041278,-0.30216 -4.675339,1.93045 -4.675339,3.96278 0,1.4497 -1.358787,-0.5162 18.298057,26.473685 9.573186,13.14449 13.690395,18.52591 14.563965,19.03593 0.985037,0.57511 1.74952,0.6956 3.998993,0.63032 3.758544,-0.10908 5.522814,-1.0873 6.09503,-3.37947 0.252868,-1.01295 0.246793,-1.01745 -1.045788,-0.77496 -1.087152,0.20395 -1.4755,0.0963 -2.3706,-0.65683 -0.588751,-0.4954 -1.201497,-0.90073 -1.361659,-0.90073 -0.160161,0 -0.449195,-0.43656 -0.642302,-0.97014 -0.193107,-0.53358 -1.002386,-1.83225 -1.798401,-2.88594 -0.796011,-1.05369 -1.447296,-2.2001 -1.447296,-2.54758 0,-1.0666 1.615797,-4.30748 2.598191,-5.21131 0.511274,-0.47038 0.929587,-1.22445 0.929587,-1.67569 0,-0.45125 0.130404,-0.82045 0.289786,-0.82045 0.159378,0 2.307614,2.52937 4.773852,5.62083 3.400009,4.26195 4.758507,5.70897 5.619242,5.98543 1.543435,0.49572 6.303634,0.5739 7.150996,0.11746 0.976517,-0.52603 2.152026,-1.88602 2.434071,-2.81608 0.193785,-0.63901 0.103008,-0.79375 -0.465652,-0.79375 -0.3885,0 -1.101277,0.15014 -1.583948,0.33365 -0.660629,0.25117 -0.987001,0.20182 -1.320189,-0.19965 -0.243431,-0.29331 -0.890729,-0.76504 -1.438438,-1.04827 -0.547708,-0.28323 -0.995831,-0.75769 -0.995831,-1.05436 0,-0.29667 -2.077759,-3.07315 -4.617244,-6.16996 l -4.617244,-5.63056 0.622135,-1.97793 c 0.342176,-1.08786 1.030446,-2.35654 1.529489,-2.81928 0.499043,-0.46274 1.073704,-1.33541 1.277027,-1.93929 l 0.369679,-1.09796 7.471093,8.65734 c 7.330994,8.49501 7.507019,8.66779 9.386958,9.21431 3.973724,1.15519 7.275308,0.44585 8.289978,-1.7811 0.56921,-1.24928 0.12563,-1.60988 -1.403181,-1.14067 -1.131828,0.34736 -1.393261,0.28701 -2.711697,-0.62606 -0.802506,-0.55577 -1.465132,-1.18887 -1.472494,-1.40689 -0.0074,-0.21801 -3.185802,-3.94864 -7.063197,-8.29027 -3.877395,-4.34163 -7.052395,-8.151515 -7.055556,-8.466395 -0.0098,-0.97723 1.324244,-3.63801 2.269011,-4.52557 0.495917,-0.4659 0.900243,-1.23878 0.900243,-1.72086 0,-0.86847 0.0058,-0.87002 0.755964,-0.2031 0.41578,0.36963 4.848577,5.05434 9.850663,10.410475 10.176604,10.89691 11.075194,11.60462 14.734704,11.60462 2.52446,0 4.40363,-1.05407 4.58002,-2.56904 0.12257,-1.05279 -0.48217,-1.25726 -1.73516,-0.58668 -0.55682,0.298 -1.00354,0.17513 -2.24437,-0.61736 -0.85204,-0.54418 -1.6797,-1.26137 -1.83924,-1.59377 -0.15955,-0.33238 -2.86977,-3.30565 -6.02272,-6.60723 -3.371085,-3.530025 -5.732639,-6.284545 -5.732639,-6.686555 0,-1.15431 1.323188,-3.84526 2.093492,-4.25751 0.505831,-0.27072 0.727749,-0.73691 0.725523,-1.52412 -0.0025,-0.92608 -0.536162,-1.71655 -2.908504,-4.30912 -4.640905,-5.07173 -2.299409,-2.86872 9.236288,8.69006 5.93183,5.94369 11.14233,10.915315 11.57889,11.048065 0.43657,0.13275 0.79375,0.45727 0.79375,0.72115 0,0.26388 0.43312,0.82048 0.96249,1.23688 0.83243,0.65479 1.29115,0.73467 3.39484,0.59121 2.80332,-0.19118 4.22133,-1.00023 4.40046,-2.5107 0.0944,-0.7959 7.1e-4,-0.93343 -0.52916,-0.77561 -2.25259,0.67109 -2.57641,0.64756 -3.72441,-0.27053 -0.63405,-0.50709 -1.31158,-1.08745 -1.5056,-1.28969 -0.19403,-0.20225 -4.67872,-4.667975 -9.96598,-9.923825 -6.49533,-6.45675 -9.61319,-9.79631 -9.61319,-10.29673 0,-1.20349 1.18499,-3.73512 1.8478,-3.94767 0.3372,-0.10814 0.74031,-0.6876 0.89582,-1.2877 l 0.28273,-1.09109 12.7094,12.03142 c 6.99018,6.61727 12.91616,12.47616 13.16885,13.01975 1.24637,2.681165 1.14178,4.682105 -0.34343,6.570245 -0.39806,0.50604 -3.41835,2.31153 -6.78978,4.05883 -3.34003,1.73103 -8.5334,4.41866 -11.54083,5.97252 -44.963243,23.23125 -41.087052,21.1339 -41.09452,22.2357 -0.0072,1.06484 -2.425276,1.92041 -5.772951,2.04261 -1.677825,0.0613 -3.368089,0.0329 -3.756144,-0.063 z m 0.738632,-1.60571 c 0.531015,-0.85921 -2.395746,-2.14062 -3.145713,-1.37728 -0.319482,0.32518 -0.223238,0.57934 0.417689,1.10305 0.926102,0.75673 2.341866,0.89904 2.728024,0.27423 z"
           id="path333" />
        <path
           style="fill:#3e3e3e;fill-opacity:1;stroke-width:0.352778"
           d="m 63.063275,150.50147 c -1.886049,-0.31572 -4.243067,-1.25113 -5.56441,-2.20831 -0.870095,-0.63029 -3.914927,-4.51051 -8.219987,-10.47524 -3.760883,-5.21077 -10.074656,-13.91912 -14.030607,-19.3519 -3.955951,-5.43278 -7.333774,-10.19528 -7.506268,-10.58333 -0.341005,-0.76714 -2.049011,-9.80639 -1.887742,-9.990462 0.165344,-0.188715 3.063787,3.951352 19.017752,27.164482 5.558406,8.08752 10.637774,15.17131 11.287485,15.74177 3.787824,3.32575 9.873647,4.38828 14.682403,2.5634 0.882756,-0.335 13.503381,-6.80639 28.045833,-14.38088 14.542446,-7.57448 27.313946,-14.20182 28.381096,-14.72742 1.06715,-0.52559 2.29684,-1.28833 2.73264,-1.69497 0.43579,-0.40665 0.86726,-0.66445 0.95882,-0.57289 0.30849,0.30849 -1.59296,5.37918 -2.42736,6.47314 -0.97175,1.27403 -0.35334,0.93092 -32.374754,17.9622 -15.90161,8.45761 -25.674884,13.45549 -26.973424,13.79372 -1.937089,0.50454 -4.189783,0.61005 -6.121477,0.28669 z m 1.675694,-18.12899 c -0.371034,-0.2161 -0.617361,-0.78218 -0.617361,-1.41873 0,-0.85436 -0.200124,-1.12892 -1.034987,-1.41996 -0.711725,-0.2481 -1.980572,-1.61969 -4.062433,-4.39137 -2.136059,-2.84383 -3.240395,-4.03057 -3.750702,-4.03057 -1.296744,0 -1.979263,-0.63892 -4.834265,-4.52544 -3.503429,-4.76923 -3.70476,-5.14757 -3.422671,-6.4319 0.204099,-0.92927 -0.32408,-1.78752 -5.034961,-8.18139 -2.894637,-3.928767 -5.462013,-7.517442 -5.705274,-7.974836 -0.698186,-1.312767 -7.06e-4,-1.729891 1.832959,-1.096041 1.31632,0.455037 1.985779,1.167049 5.62126,5.978556 2.269839,3.004101 4.279039,5.512691 4.464886,5.574641 0.185847,0.062 0.94573,-0.21314 1.688627,-0.61131 1.8011,-0.96533 3.938951,-0.93785 5.429882,0.0698 1.653187,1.11731 6.232877,6.79168 7.223816,8.95052 1.57915,3.4403 1.467224,5.27295 -0.444419,7.27679 -0.924782,0.96939 -0.924874,0.97007 -0.299822,2.28082 0.343881,0.72112 1.086474,1.89349 1.65021,2.60526 0.563735,0.71178 1.405332,1.96378 1.870219,2.78222 0.464887,0.81845 1.22023,1.67432 1.678545,1.90194 0.458311,0.22762 0.888062,0.79787 0.954994,1.2672 0.206714,1.44948 -1.694741,2.27548 -3.208503,1.39379 z m 14.774644,-7.68183 c -0.341634,-0.3775 -0.495791,-0.90617 -0.364215,-1.24905 0.17103,-0.4457 -0.06227,-0.70129 -0.932078,-1.02115 -0.87407,-0.32143 -2.587022,-2.21024 -6.945538,-7.6586 -4.490738,-5.61364 -6.093658,-7.37209 -7.163216,-7.85825 -0.947071,-0.43049 -2.245572,-1.69895 -4.153006,-4.05695 -3.162762,-3.909844 -3.676894,-4.747179 -3.383788,-5.511 0.134803,-0.351292 -0.990297,-2.055371 -3.176267,-4.810788 -1.861752,-2.346745 -3.385008,-4.485336 -3.385008,-4.752421 0,-0.794445 0.557548,-0.905873 1.843729,-0.368469 1.141868,0.4771 2.567221,1.837513 4.438485,4.236261 0.68786,0.881758 0.906758,0.976736 1.411111,0.612274 2.159067,-1.56023 2.817032,-1.830073 4.477508,-1.83631 l 1.763889,-0.0066 3.624615,3.797671 c 3.342679,3.502275 3.681145,3.986791 4.351387,6.229022 0.875587,2.9292 0.694619,4.30419 -0.74845,5.68674 -0.579667,0.55536 -1.053941,1.28913 -1.053941,1.63061 0,0.70639 1.860543,3.23321 6.800518,9.23585 1.886522,2.29233 3.430037,4.32465 3.430037,4.51627 0,0.1916 0.477206,0.51473 1.060461,0.71806 1.197642,0.4175 1.743414,1.76419 1.052403,2.59681 -0.604343,0.72819 -2.237154,0.65623 -2.948636,-0.12995 z m 14.535354,-6.82704 c -0.323007,-0.25076 -0.642235,-0.77342 -0.709401,-1.16148 -0.06717,-0.38805 -0.675869,-1.0078 -1.352677,-1.37722 -0.716922,-0.39131 -4.543682,-4.50031 -9.168059,-9.84425 -4.365625,-5.04491 -8.5725,-9.628786 -9.348611,-10.186376 -1.875434,-1.347385 -6.100823,-6.146666 -6.776,-7.69632 -0.295882,-0.679097 -1.154512,-2.009521 -1.908066,-2.9565 -2.072661,-2.604671 -1.727627,-3.351706 0.956814,-2.071585 1.288027,0.614218 1.294511,0.613322 1.864053,-0.256924 0.99065,-1.513689 1.728192,-2.076708 3.043721,-2.323504 2.039571,-0.382626 3.67459,0.613731 7.075608,4.311763 2.499218,2.717479 3.130578,3.638317 3.534276,5.154714 0.784327,2.94615 0.663687,3.624527 -0.957305,5.383093 l -1.457174,1.58085 0.875073,1.322328 c 1.610469,2.433581 15.148535,17.546401 15.885438,17.733231 0.40004,0.10143 0.900307,0.45862 1.111702,0.79375 0.840525,1.33251 -1.333846,2.63126 -2.669392,1.59443 z m 13.182083,-6.70009 c -0.23283,-0.23283 -0.42333,-0.71718 -0.42333,-1.07634 0,-0.40675 -0.44392,-0.83848 -1.17722,-1.14487 -0.73035,-0.30516 -3.65748,-3.14396 -7.711233,-7.47852 -3.593708,-3.842665 -8.620209,-9.105919 -11.170002,-11.696126 -2.549797,-2.590207 -4.635991,-4.870626 -4.635991,-5.067596 0,-0.19697 -1.170058,-1.570211 -2.600131,-3.051644 -2.577923,-2.670511 -3.640811,-4.154887 -3.252882,-4.542819 0.428043,-0.428042 3.033342,1.117473 4.080675,2.420744 0.605018,0.752859 1.371519,1.368838 1.703335,1.368838 0.336486,0 1.021302,-0.69202 1.548433,-1.564722 1.028651,-1.703002 2.518121,-2.397939 4.377648,-2.04247 0.979346,0.187212 7.908643,6.536641 8.654948,7.93067 0.182354,0.340621 0.428064,1.652828 0.546022,2.916012 l 0.214468,2.296703 -1.462645,1.391384 c -0.804457,0.76526 -1.462649,1.571674 -1.462649,1.792026 0,0.772146 1.600123,2.677421 7.390434,8.79984 3.60095,3.80748 6.20743,6.27807 6.80073,6.44617 1.21994,0.34564 1.90538,1.50487 1.31234,2.21944 -0.51086,0.61554 -2.15071,0.66552 -2.73295,0.0833 z m 12.71582,-6.36764 c -0.19404,-0.24253 -0.45225,-0.7665 -0.57381,-1.16437 -0.12156,-0.39788 -0.75146,-0.91522 -1.39979,-1.14966 -0.80599,-0.29145 -5.73693,-5.050734 -15.59136,-15.048598 -7.926913,-8.042285 -14.618293,-15.014977 -14.869732,-15.494867 -0.251439,-0.479887 -0.78456,-0.976436 -1.184709,-1.10344 -0.494619,-0.156986 -0.692728,-0.475336 -0.618789,-0.994364 0.08643,-0.606682 0.386076,-0.786271 1.459265,-0.874585 1.155732,-0.09511 1.4221,-0.282494 1.846957,-1.299323 0.636859,-1.524219 1.752392,-2.294312 3.31923,-2.291384 1.578299,0.0028 2.372349,0.540484 6.274759,4.247741 l 3.174079,3.015343 0.24999,2.154002 c 0.28623,2.466128 0.0164,3.186669 -1.78593,4.769135 -0.660232,0.579695 -1.200423,1.225032 -1.200423,1.434084 0,0.209056 4.788313,5.185181 10.640683,11.058059 7.41261,7.438574 10.90681,10.710147 11.51789,10.784057 1.02605,0.12409 1.68383,0.99995 1.36836,1.82203 -0.26447,0.68919 -2.10777,0.78473 -2.62667,0.13614 z M 35.19383,91.593003 c -1.716059,-0.634467 -1.473129,-2.583928 0.321995,-2.583928 1.205,0 1.89061,0.724807 1.733557,1.832667 -0.116741,0.823531 -0.993447,1.143945 -2.055552,0.751261 z m 13.82116,-5.60621 c -0.91034,-0.382785 -1.146553,-0.67135 -1.058334,-1.292881 0.21747,-1.532195 3.112174,-1.127958 3.112174,0.434608 0,1.082146 -0.763076,1.401025 -2.05384,0.858273 z M 61.89522,80.68213 c -1.739621,-0.94306 -0.499357,-2.807892 1.317047,-1.980283 1.038006,0.472948 1.265244,1.981281 0.35132,2.331985 -0.668041,0.256353 -0.469511,0.298203 -1.668367,-0.351702 z m 12.368749,-5.098486 c -0.772294,-0.460304 -0.804284,-1.596799 -0.05306,-1.885068 0.851453,-0.326735 2.434311,0.570925 2.434311,1.380529 0,0.80989 -1.37879,1.102025 -2.381251,0.504539 z"
           id="path329" />
        <path
           style="fill:#ff6b1b;fill-opacity:1;stroke-width:0.352778"
           d="m 62.726477,144.0311 c -2.038608,-0.42722 -5.073051,-1.92093 -6.56698,-3.23262 -0.649711,-0.57046 -5.729079,-7.65425 -11.287485,-15.74177 -12.559661,-18.2744 -13.523556,-19.66859 -16.492537,-23.85509 -1.521223,-2.14505 -2.363639,-3.66228 -2.293055,-4.1299 0.120057,-0.79537 -0.111468,-1.11138 12.185427,16.6318 3.563479,5.14174 6.908398,9.88854 7.433155,10.54844 0.922888,1.16058 3.673154,5.0773 7.022528,10.00096 1.664522,2.44688 3.666032,4.0365 6.797972,5.39904 2.270724,0.98786 8.063452,0.97543 10.06416,-0.0216 0.81758,-0.40743 1.412833,-0.95719 1.415207,-1.30703 0.0075,-1.10181 -3.868723,0.99555 41.094521,-22.2357 3.00743,-1.55386 8.2008,-4.24149 11.54083,-5.97252 3.37143,-1.7473 6.39172,-3.5528 6.78978,-4.05884 1.47645,-1.877 1.59828,-4.15627 0.34758,-6.50287 -0.41613,-0.78077 -0.40408,-0.80564 0.16344,-0.33736 1.02198,0.84328 1.97225,3.0838 1.97225,4.65012 0,0.81379 -0.43305,2.9226 -0.96234,4.68624 -1.07101,3.56872 -1.58217,4.19126 -4.6821,5.70229 -1.06715,0.52018 -13.83865,7.14505 -28.381101,14.72195 -14.54245,7.57689 -27.201152,14.06508 -28.130453,14.41818 -2.051498,0.77951 -5.894462,1.08399 -8.030799,0.6363 z m 0.154626,-10.41917 c -0.740633,-0.25462 -1.697504,-0.82973 -2.126386,-1.27804 -0.634397,-0.66313 -12.649225,-17.10108 -29.01678,-39.69898 -2.101857,-2.90193 -2.611885,-3.8554 -2.611885,-4.88276 0,-2.04508 2.626847,-4.278707 4.675339,-3.97548 0.917423,0.13581 1.239312,0.62294 1.739769,2.63293 0.277905,1.11615 0.607886,1.55895 1.409026,1.8908 0.575377,0.23832 1.328389,0.87524 1.673363,1.41537 0.344974,0.54013 2.743532,3.75767 5.330126,7.1501 l 4.702906,6.16805 1.614967,-0.48603 c 2.47916,-0.74612 3.699746,-0.59595 6.430013,0.7911 1.382656,0.70242 2.608062,1.18299 2.723124,1.06794 0.250518,-0.25053 0.331533,-0.1435 -8.838071,-11.67624 -6.643737,-8.35592 -7.278896,-9.274087 -7.278896,-10.522267 0,-1.72858 1.422323,-3.26767 3.354783,-3.6302 1.594114,-0.29907 2.107508,0.19477 2.477174,2.38281 0.199125,1.1786 0.438474,1.49542 1.448629,1.91749 0.66555,0.27808 1.388921,0.898087 1.607491,1.377797 0.218567,0.47971 0.502949,0.8722 0.631952,0.8722 0.194681,0 3.118821,3.43318 4.423379,5.19342 0.302761,0.40851 0.617858,0.37142 1.940277,-0.22844 2.187522,-0.99227 4.178399,-0.94478 5.671785,0.13529 1.759116,1.27226 3.17844,2.03341 3.392523,1.81932 0.103392,-0.10339 -2.173549,-2.92374 -5.059867,-6.26746 -6.207869,-7.191627 -6.480574,-7.568597 -6.469027,-8.942407 0.01478,-1.75983 1.793437,-3.35139 3.745346,-3.35139 1.200506,0 1.303299,0.15076 1.724219,2.52887 0.176833,0.99907 0.468881,1.39347 1.280859,1.72981 0.578488,0.23962 1.288654,0.79716 1.578151,1.23898 0.289493,0.44182 0.897978,1.04681 1.352187,1.34442 0.752704,0.4932 0.898927,0.48429 1.651183,-0.10057 1.220378,-0.94881 3.326878,-1.5376 4.544353,-1.2702 0.588899,0.12935 1.794573,0.7877 2.679276,1.46301 0.884698,0.6753 1.689588,1.14679 1.788628,1.04775 0.0991,-0.0991 -1.31817,-1.7371 -3.149376,-3.64011 -3.795917,-3.94477 -4.50837,-4.88992 -4.50837,-5.98089 0,-1.03386 1.535836,-2.81345 2.674793,-3.09932 1.581761,-0.39699 2.166207,0.0339 2.495776,1.84021 0.261027,1.43062 0.488467,1.76202 1.625757,2.36887 0.72725,0.38806 1.41918,0.94368 1.53762,1.23472 0.11843,0.29105 1.22711,1.4668 2.46372,2.61279 l 2.24839,2.08361 0.87179,-0.94068 c 2.12674,-2.29479 5.63787,-2.23996 7.77487,0.1214 0.38543,0.42589 1.02006,0.93918 1.41028,1.14065 0.39023,0.20147 -0.69575,-1.12293 -2.41329,-2.94309 -1.71754,-1.82017 -3.60595,-3.82534 -4.19648,-4.45593 -0.59052,-0.63059 -1.27226,-1.14652 -1.51496,-1.14652 -0.24271,0 -0.93398,-0.56115 -1.53617,-1.247 -1.73154,-1.97212 -1.35951,-4.02808 0.8997,-4.97203 2.0513,-0.85709 2.9264,-0.1459 2.9395,2.38892 0.008,1.52985 0.95693,1.51491 1.93245,-0.0304 1.13127,-1.79204 2.17933,-2.49231 3.70711,-2.47696 1.77519,0.0178 2.26947,0.3698 7.58478,5.40107 3.496381,3.30955 4.772141,4.7391 4.772141,5.34742 0,0.75205 -0.61632,1.68627 -1.31661,1.9957 -0.44913,0.19845 -1.50561,2.73161 -1.50561,3.61004 0,0.60505 2.52491,3.330477 9.61319,10.376657 5.28726,5.25585 9.77195,9.72157 9.96598,9.92382 0.19402,0.20224 0.87155,0.7826 1.5056,1.28969 1.148,0.91811 1.47182,0.94163 3.72441,0.27053 0.52972,-0.15781 0.62355,-0.0203 0.52916,0.77562 -0.17913,1.51047 -1.59714,2.31953 -4.40046,2.5107 -2.10369,0.14347 -2.56241,0.0636 -3.39484,-0.59121 -0.52937,-0.4164 -0.96249,-0.97299 -0.96249,-1.23688 0,-0.26388 -0.35718,-0.5884 -0.79375,-0.72115 -0.43656,-0.13274 -5.64706,-5.10438 -11.57889,-11.04807 -11.535701,-11.558767 -13.877191,-13.761787 -9.236291,-8.690057 2.37234,2.592577 2.90589,3.383047 2.90851,4.309117 0.002,0.78722 -0.2197,1.2534 -0.72553,1.52412 -0.7703,0.41225 -2.09349,3.1032 -2.09349,4.25751 0,0.40201 2.36156,3.15653 5.732641,6.68655 3.15295,3.3016 5.86317,6.27486 6.02272,6.60725 0.15954,0.33239 0.9872,1.04958 1.83924,1.59376 1.24083,0.79249 1.68755,0.91537 2.24437,0.61736 1.25299,-0.67058 1.85773,-0.4661 1.73516,0.58669 -0.17639,1.51498 -2.05556,2.56905 -4.58002,2.56905 -3.65951,0 -4.5581,-0.70771 -14.734701,-11.60463 -5.00209,-5.35613 -9.43489,-10.04084 -9.85067,-10.41047 -0.75021,-0.66692 -0.75596,-0.66537 -0.75596,0.2031 0,0.48208 -0.40433,1.25496 -0.90024,1.72086 -0.94477,0.88756 -2.27882,3.54834 -2.26901,4.52557 0.003,0.31488 3.17816,4.12476 7.05555,8.4664 3.8774,4.34163 7.05584,8.07226 7.0632,8.29027 0.007,0.21802 0.66999,0.85112 1.47249,1.40689 1.31844,0.91307 1.57987,0.97342 2.7117,0.62606 1.528811,-0.46921 1.972391,-0.10861 1.403181,1.14067 -1.01467,2.22695 -4.316251,2.93629 -8.289981,1.7811 -1.87994,-0.54652 -2.05596,-0.7193 -9.38696,-9.21431 l -7.47109,-8.65735 -0.36968,1.09796 c -0.20332,0.60388 -0.777982,1.47656 -1.277025,1.9393 -0.499043,0.46274 -1.187313,1.73142 -1.529489,2.81928 l -0.622135,1.97793 4.617249,5.63056 c 2.53948,3.09681 4.61724,5.87329 4.61724,6.16996 0,0.29667 0.44812,0.77113 0.99583,1.05436 0.54771,0.28323 1.19501,0.75496 1.43844,1.04827 0.33319,0.40147 0.65956,0.45082 1.32019,0.19965 0.48267,-0.18351 1.19545,-0.33365 1.58395,-0.33365 0.56866,0 0.65943,0.15474 0.46565,0.79375 -0.28205,0.93006 -1.45756,2.29005 -2.43407,2.81608 -0.84737,0.45644 -5.60756,0.37826 -7.151,-0.11746 -0.86073,-0.27646 -2.21923,-1.72348 -5.619242,-5.98543 -2.466238,-3.09146 -4.614474,-5.62083 -4.773852,-5.62083 -0.159382,0 -0.289786,0.3692 -0.289786,0.82045 0,0.45124 -0.418313,1.20531 -0.929587,1.67569 -0.982394,0.90383 -2.598191,4.14471 -2.598191,5.21131 0,0.34748 0.651285,1.49389 1.447296,2.54758 0.796015,1.05369 1.605294,2.35236 1.798401,2.88594 0.193107,0.53358 0.482141,0.97014 0.642302,0.97014 0.160162,0 0.772908,0.40533 1.361659,0.90073 0.8951,0.75318 1.283448,0.86078 2.3706,0.65683 1.292581,-0.24249 1.298656,-0.23799 1.045788,0.77496 -0.300513,1.20379 -1.095537,2.15561 -2.315213,2.77183 -1.349809,0.68197 -5.320916,0.87814 -6.885781,0.34017 z m 4.55797,-1.31915 c 0.852346,-0.62325 0.603839,-2.05959 -0.446596,-2.58129 -0.458315,-0.22762 -1.213658,-1.08349 -1.678545,-1.90194 -0.464887,-0.81844 -1.306484,-2.07044 -1.870219,-2.78222 L 43.730533,98.8808 c -3.635481,-4.8115 -4.30494,-5.52351 -5.62126,-5.97855 -1.833569,-0.63385 -2.531145,-0.21673 -1.832959,1.09604 0.243261,0.45739 2.810637,4.04607 5.705274,7.97484 l 17.042599,23.1693 c 2.081861,2.77168 3.350708,4.14327 4.062433,4.39137 0.834863,0.29104 1.034987,0.5656 1.034987,1.41996 0,1.61088 1.897997,2.37697 3.317466,1.33903 z m 15.023176,-7.47218 c 0.69101,-0.83262 0.14524,-2.17931 -1.0524,-2.59681 -0.58326,-0.20332 -1.06046,-0.52645 -1.06046,-0.71806 0,-0.19161 -1.54352,-2.22393 -3.43004,-4.51627 L 56.29271,91.6402 c -1.871264,-2.39875 -3.296617,-3.75916 -4.438485,-4.23626 -1.286181,-0.53741 -1.843729,-0.42598 -1.843729,0.36846 0,0.26709 1.523256,2.40568 3.385008,4.75243 2.18597,2.75541 3.31107,4.45949 3.176267,4.81078 -0.293106,0.76382 0.221026,1.60116 3.383788,5.51101 1.907434,2.358 3.205935,3.62646 4.153006,4.05695 1.069558,0.48616 2.672478,2.24461 7.163216,7.85825 4.358518,5.44836 6.071468,7.33717 6.945538,7.6586 0.86981,0.31986 1.10311,0.57545 0.93208,1.02115 -0.54414,1.41799 2.29847,2.60125 3.31285,1.379 z m 14.25391,-7.32472 c 0.48227,-0.77021 -0.0579,-1.75381 -1.1095,-2.02045 -0.73691,-0.18683 -14.27497,-15.29965 -15.88544,-17.73324 L 65.742966,82.569873 c -2.684441,-1.28012 -3.029475,-0.53308 -0.956814,2.071587 0.753554,0.94698 1.612184,2.2774 1.908066,2.9565 0.675177,1.54965 4.900566,6.34893 6.776,7.69632 0.776111,0.55759 4.982991,5.14147 9.348611,10.18638 4.62438,5.34394 8.45114,9.45294 9.16806,9.84425 0.67681,0.36942 1.28551,0.98917 1.35268,1.37722 0.26917,1.55522 2.56229,2.09427 3.37659,0.79375 z M 109.964,111.08024 c 0.59304,-0.71457 -0.0924,-1.8738 -1.31234,-2.21944 -0.5933,-0.1681 -3.19978,-2.63869 -6.80073,-6.44617 L 80.340939,79.526343 c -1.04734,-1.30327 -3.65264,-2.84878 -4.08068,-2.42074 -0.38793,0.38793 0.67496,1.87231 3.25288,4.54282 1.43008,1.48143 2.60013,2.854667 2.60013,3.051637 0,0.19697 2.0862,2.47739 4.636,5.0676 2.54979,2.59021 7.57629,7.85346 11.17,11.69613 4.053751,4.33456 6.980881,7.17336 7.711231,7.47852 0.7333,0.30639 1.17722,0.73812 1.17722,1.14487 0,0.35916 0.1905,0.84351 0.42333,1.07634 0.58224,0.58224 2.22209,0.53226 2.73295,-0.0833 z m 12.60954,-6.4205 c 0.31547,-0.82208 -0.34231,-1.69794 -1.36836,-1.82203 -0.61108,-0.0739 -2.90537,-1.65092 -10.31798,-9.089495 -8.28586,-8.351249 -14.964554,-15.681568 -20.064161,-22.008789 -1.543386,-1.358598 -2.49936,-2.868533 -3.65509,-2.773433 -1.07319,0.0883 -1.37284,0.2679 -1.45927,0.87459 -0.0739,0.51902 0.12417,0.83737 0.61879,0.99436 0.40015,0.127 0.93327,0.62355 1.18471,1.10344 0.25144,0.47989 6.94282,7.45258 14.869731,15.494867 9.85443,9.99786 14.78537,14.75715 15.59136,15.0486 0.64833,0.23444 1.27823,0.75178 1.39979,1.14966 0.12156,0.39787 0.37977,0.92184 0.57381,1.16437 0.5189,0.64859 2.3622,0.55305 2.62667,-0.13614 z m -85.324159,-13.818 c 0.157053,-1.10786 -0.528557,-1.83267 -1.733557,-1.83267 -1.216205,0 -1.929352,1.0325 -1.278463,1.85097 0.964618,1.21297 2.839088,1.20158 3.01202,-0.0183 z m 13.819448,-5.71322 c 0,-1.562567 -2.894704,-1.966807 -3.112174,-0.43461 -0.08822,0.62153 0.147994,0.91009 1.058334,1.29288 1.290764,0.54275 2.05384,0.22387 2.05384,-0.85827 z m 12.494757,-4.094687 c 0.913924,-0.35071 0.686686,-1.85904 -0.35132,-2.33199 -1.816404,-0.82761 -3.056668,1.03723 -1.317047,1.98029 1.198856,0.6499 1.000326,0.60805 1.668367,0.3517 z m 13.081633,-5.95473 c 0,-0.8096 -1.582859,-1.70726 -2.434312,-1.38053 -0.751223,0.28827 -0.719233,1.42477 0.05306,1.88507 1.00246,0.59749 2.381252,0.30535 2.381252,-0.50454 z"
           id="path331"
           sodipodi:nodetypes="sssssssssssssssssssssssssssssssscsssssssssssssssssssssssssssssssscsssssssssssssssssssssssssscsssssssssssssssssssscssscssssssssssssssssssssssssssccssccsssssssccsssssssssssssccsssssssssccssssssssssssccsssssssssssssssssssssssss" />
        <path
           style="fill:#ff8f52;fill-opacity:1;stroke:none;stroke-width:0.264583px;stroke-linecap:butt;stroke-linejoin:miter;stroke-opacity:1"
           d="M 66.194243,80.085596 83.283807,99.065292 87.795316,92.776162 72.402893,76.195125 Z"
           id="path5604-8"
           sodipodi:nodetypes="ccccc" />
        <path
           style="fill:#ff8f52;fill-opacity:1;stroke:none;stroke-width:0.264583px;stroke-linecap:butt;stroke-linejoin:miter;stroke-opacity:1"
           d="M 82.459325,78.888805 97.683818,94.754112 101.34817,87.507302 86.809411,73.086739 Z"
           id="path5604-1"
           sodipodi:nodetypes="ccccc" />
        <path
           style="fill:#ff8f52;fill-opacity:1;stroke:none;stroke-width:0.264583px;stroke-linecap:butt;stroke-linejoin:miter;stroke-opacity:1"
           d="m 87.162243,67.848248 c 0.959024,-0.606602 1.208608,-0.336945 2.125276,0.578313 L 103.33202,82.695277 109.90324,79.16151 93.557368,64.209449 c -7.578299,-1.215069 -6.017152,2.398839 -6.395125,3.638799 z"
           id="path5604-9"
           sodipodi:nodetypes="cccccc" />
        <path
           style="fill:#ff8f52;fill-opacity:1;stroke:none;stroke-width:0.264583px;stroke-linecap:butt;stroke-linejoin:miter;stroke-opacity:1"
           d="M 48.656577,103.03392 63.64353,122.44598 69.480714,116.63081 55.949367,99.438292 Z"
           id="path5604" />
        <path
           style="fill:#ff8f52;fill-opacity:1;stroke:none;stroke-width:0.264583px;stroke-linecap:butt;stroke-linejoin:miter;stroke-opacity:1"
           d="M 57.252598,90.131352 72.17323,108.40108 78.010414,102.58591 62.855297,85.40218 Z"
           id="path5604-5"
           sodipodi:nodetypes="ccccc" />
      </g>
    </g>
  </g>
</svg>
