<?xml version="1.0" encoding="UTF-8" standalone="no"?>
<!-- Created with Inkscape (http://www.inkscape.org/) -->

<svg
   width="180.62222mm"
   height="180.62222mm"
   viewBox="0 0 180.62222 180.62222"
   version="1.1"
   id="svg5"
   inkscape:version="1.1.1 (3bf5ae0d25, 2021-09-20)"
   sodipodi:docname="knobs.svg"
   xmlns:inkscape="http://www.inkscape.org/namespaces/inkscape"
   xmlns:sodipodi="http://sodipodi.sourceforge.net/DTD/sodipodi-0.dtd"
   xmlns:xlink="http://www.w3.org/1999/xlink"
   xmlns="http://www.w3.org/2000/svg"
   xmlns:svg="http://www.w3.org/2000/svg">
  <sodipodi:namedview
     id="namedview7"
     pagecolor="#ffffff"
     bordercolor="#666666"
     borderopacity="1.0"
     inkscape:pageshadow="2"
     inkscape:pageopacity="0.0"
     inkscape:pagecheckerboard="0"
     inkscape:document-units="mm"
     showgrid="false"
     fit-margin-top="0"
     fit-margin-left="0"
     fit-margin-right="0"
     fit-margin-bottom="0"
     inkscape:zoom="1.7709961"
     inkscape:cx="341.05101"
     inkscape:cy="341.33333"
     inkscape:window-width="2458"
     inkscape:window-height="1417"
     inkscape:window-x="94"
     inkscape:window-y="-8"
     inkscape:window-maximized="1"
     inkscape:current-layer="layer1" />
  <defs
     id="defs2" />
  <g
     inkscape:label="Layer 1"
     inkscape:groupmode="layer"
     id="layer1"
     transform="translate(227.41422,-11.070331)">
    <g
       id="g297"
       transform="matrix(1.5,0,0,1.5,67.421799,-56.97721)">
      <path
         style="fill:#ffa23f;fill-opacity:1;stroke:none;stroke-width:0.352778;stroke-opacity:1"
         sodipodi:type="inkscape:offset"
         inkscape:radius="0.95090556"
         inkscape:original="M -122.71094 64.060547 C -123.22425 64.055651 -123.73621 64.173612 -124.30273 64.388672 C -125.45202 64.824962 -125.75443 65.186817 -126.47656 66.998047 C -126.93777 68.154877 -127.39459 69.696445 -127.49219 70.421875 C -127.66178 71.682175 -127.53879 71.874475 -124.7168 74.765625 C -123.09244 76.429795 -121.06069 78.256852 -120.20117 78.826172 C -118.42503 80.002642 -117.44486 80.106886 -115.83008 79.291016 C -113.40157 78.064016 -113.11328 77.546762 -113.11328 74.414062 L -113.11328 71.560547 L -116.60156 68.152344 C -119.62419 65.199429 -121.171 64.075235 -122.71094 64.060547 z M -128.49414 76.025391 C -129.08658 76.068547 -129.65943 76.284316 -130.25977 76.650391 C -131.04817 77.131151 -131.61589 77.970784 -132.28906 79.652344 C -133.38815 82.397804 -133.43834 83.232811 -132.58594 84.525391 C -131.19048 86.641452 -126.13079 91.554766 -124.67578 92.207031 C -123.04585 92.937707 -122.20747 92.863304 -120.09375 91.804688 C -118.28667 90.899651 -117.91231 90.026781 -118.00781 86.933594 L -118.08984 84.304688 L -121.30664 80.935547 C -124.75779 77.323614 -126.71683 75.89592 -128.49414 76.025391 z M -143.64648 78.824219 C -144.45857 78.829409 -145.27392 78.998105 -145.91211 79.328125 C -147.02619 79.904235 -148.34001 82.78839 -148.64453 85.330078 C -148.80668 86.68351 -148.68279 86.893209 -145.63867 90.449219 C -143.55563 92.882529 -141.93876 94.425895 -140.93164 94.941406 C -139.01202 95.92398 -138.2126 95.930542 -136.19141 94.980469 C -133.78159 93.847735 -133.45096 93.131355 -133.75391 89.708984 L -134.00781 86.847656 L -137.23047 83.320312 C -139.00332 81.380723 -140.88231 79.571268 -141.40625 79.298828 C -142.02546 78.976848 -142.8344 78.819029 -143.64648 78.824219 z M -154.0625 89.179688 C -154.87867 89.295705 -155.61804 89.641259 -156.22852 90.207031 C -157.22296 91.128645 -158.78481 96.296704 -158.39258 97.369141 C -158.25966 97.73258 -156.86673 99.660261 -155.29883 101.65234 C -153.09258 104.45547 -152.0536 105.47247 -150.70312 106.15039 C -149.74341 106.63216 -148.47336 107.02253 -147.88086 107.01953 C -146.53744 107.01229 -144.27762 105.7472 -143.33398 104.47461 C -142.6759 103.58714 -142.6485 103.29516 -142.98633 100.73633 L -143.35352 97.960938 L -146.64258 94.03125 C -149.24296 90.924618 -150.24725 89.980697 -151.43945 89.525391 C -152.35348 89.176323 -153.24633 89.06367 -154.0625 89.179688 z M -162.00781 101.89648 C -162.78385 101.84178 -163.55886 102.01281 -164.43945 102.40234 C -166.26097 103.20808 -167.0565 104.57611 -167.78125 108.15039 C -168.27545 110.5877 -168.18806 110.79217 -164.4707 115.78711 C -161.86748 119.28501 -160.69663 120.25856 -158.44531 120.80664 C -157.86322 120.94835 -157.37658 121.08166 -157.36328 121.10156 C -157.34999 121.12142 -156.53201 120.89666 -155.54492 120.60352 C -153.29621 119.93573 -151.56158 118.11956 -151.58008 116.45117 C -151.59751 114.87823 -152.47773 111.33837 -153.04102 110.57617 C -156.28982 106.18013 -158.76174 103.21384 -159.57031 102.74414 C -160.45512 102.23016 -161.23177 101.95119 -162.00781 101.89648 z "
         xlink:href="#path305"
         id="path966"
         inkscape:href="#path305"
         d="m -122.70117,63.109375 c -0.665,-0.0063 -1.30309,0.14905 -1.93945,0.390625 -0.63033,0.239281 -1.2043,0.544809 -1.64063,1.068359 -0.43633,0.523551 -0.70822,1.150329 -1.07813,2.078125 -0.48883,1.22613 -0.95002,2.710836 -1.07617,3.648438 -0.0897,0.666596 -0.0583,1.469184 0.40821,2.199219 0.46646,0.730035 1.21732,1.487372 2.63086,2.935547 1.6582,1.698846 3.6047,3.483886 4.66992,4.189453 0.94443,0.625565 1.77094,1.037208 2.66992,1.132812 0.89898,0.0956 1.76519,-0.161119 2.65625,-0.611328 1.24874,-0.630924 2.14195,-1.1636 2.66992,-2.111328 0.52798,-0.947728 0.56836,-2.019715 0.56836,-3.615235 v -2.853515 a 0.95100065,0.95100065 0 0 0 -0.28711,-0.679688 l -3.48828,-3.408203 c -1.52617,-1.490966 -2.6931,-2.540515 -3.74023,-3.253906 -1.04714,-0.713391 -2.02514,-1.099853 -3.02344,-1.109375 z m -5.86133,11.966797 c -0.7772,0.05661 -1.5033,0.342127 -2.19141,0.761719 -1.03533,0.631337 -1.71683,1.709517 -2.41797,3.460937 -0.56005,1.398973 -0.89136,2.358058 -0.94726,3.277344 -0.0559,0.919286 0.2575,1.740644 0.74023,2.472656 0.80231,1.216602 2.41381,2.947793 4.0625,4.548828 0.82435,0.800518 1.65056,1.555279 2.37696,2.16211 0.7264,0.60683 1.29233,1.053251 1.875,1.314453 0.88149,0.395161 1.70254,0.628136 2.58203,0.550781 0.87949,-0.07735 1.72056,-0.422847 2.81445,-0.970703 0.98948,-0.495558 1.79327,-1.128408 2.20508,-2.089844 0.41181,-0.961436 0.45527,-2.072498 0.40625,-3.660156 l -0.082,-2.628906 a 0.95100065,0.95100065 0 0 0 -0.26367,-0.626953 l -3.2168,-3.369141 c -1.74443,-1.825698 -3.12451,-3.123294 -4.36719,-3.984375 -1.24268,-0.861081 -2.40966,-1.303726 -3.57617,-1.21875 z m -15.08984,2.796875 c -0.93971,0.006 -1.88299,0.190249 -2.69727,0.611328 -0.99667,0.515394 -1.55014,1.510461 -2.09766,2.712891 -0.54752,1.202429 -0.9742,2.63049 -1.14062,4.019531 -0.0852,0.710876 -0.0531,1.516142 0.42383,2.328125 0.47689,0.811983 1.27881,1.743259 2.80273,3.523437 2.11195,2.46708 3.67119,4.040577 4.9961,4.71875 1.0067,0.51529 1.84411,0.842084 2.75781,0.84961 0.91369,0.0075 1.76527,-0.298995 2.82031,-0.794922 1.2596,-0.592075 2.21126,-1.193154 2.69531,-2.240235 0.48406,-1.04708 0.43983,-2.229306 0.28516,-3.976562 l -0.25391,-2.861328 a 0.95100065,0.95100065 0 0 0 -0.24609,-0.556641 l -3.22266,-3.527343 c -0.89994,-0.984587 -1.82264,-1.933321 -2.59765,-2.679688 -0.38751,-0.373183 -0.73669,-0.694949 -1.03516,-0.951172 -0.29846,-0.256222 -0.49785,-0.434201 -0.80469,-0.59375 -0.80712,-0.419693 -1.74624,-0.588034 -2.68554,-0.582031 z m -10.54493,10.365234 c -0.99741,0.141781 -1.92808,0.576734 -2.67773,1.271485 -0.48257,0.447227 -0.73325,0.988078 -1.03516,1.667968 -0.3019,0.679891 -0.58745,1.476366 -0.83007,2.279297 -0.24263,0.802931 -0.44223,1.608492 -0.5586,2.316407 -0.11637,0.707914 -0.23893,1.231193 0.0137,1.921874 0.12411,0.339353 0.23247,0.459536 0.41797,0.740235 0.18551,0.280698 0.4274,0.626278 0.71289,1.021484 0.57099,0.790409 1.31592,1.777569 2.10742,2.783199 2.22686,2.82931 3.40148,3.99851 4.91797,4.75977 0.53814,0.27014 1.1335,0.50287 1.69532,0.67578 0.56181,0.17291 1.04812,0.2975 1.55664,0.29492 a 0.95100065,0.95100065 0 0 0 0.002,0 c 0.96731,-0.005 1.93983,-0.39209 2.88281,-0.91992 0.94299,-0.52783 1.82354,-1.20284 2.42188,-2.00976 0.355,-0.47875 0.66695,-1.03814 0.73047,-1.72071 0.0635,-0.68257 -0.0332,-1.42161 -0.20313,-2.70898 l -0.36719,-2.775392 a 0.95100065,0.95100065 0 0 0 -0.21484,-0.484376 l -3.28906,-3.929687 c -2.61688,-3.12634 -3.75042,-4.237073 -5.18555,-4.785156 -1.04314,-0.398374 -2.10091,-0.540125 -3.09766,-0.398438 z m -7.74414,12.708989 c -0.95901,-0.0676 -1.90762,0.15456 -2.88281,0.58593 -1.046,0.4627 -1.91179,1.18128 -2.51953,2.22657 -0.60774,1.04528 -0.998,2.37077 -1.36914,4.20117 -0.2503,1.23443 -0.37396,2.25378 0.13477,3.42773 0.50872,1.17396 1.48349,2.46721 3.34374,4.9668 1.31715,1.76983 2.29311,2.93977 3.29883,3.77734 1.00572,0.83757 2.05105,1.30197 3.26563,1.59766 0.28363,0.0691 0.54457,0.13728 0.72851,0.1875 0.092,0.0251 0.16685,0.0448 0.20508,0.0566 -0.008,-0.003 -0.0139,-0.006 -0.043,-0.0195 -0.0124,-0.006 -0.0386,-0.021 -0.0605,-0.0332 0.0394,0.0182 0.18723,0.0858 0.1875,0.0859 5.9e-4,1.9e-4 0.17319,0.0394 0.2207,0.043 0.095,0.007 0.13359,9.7e-4 0.16602,-0.002 0.0648,-0.006 0.0906,-0.0102 0.11914,-0.0156 0.0572,-0.0108 0.1028,-0.0217 0.1582,-0.0351 0.11079,-0.0269 0.25019,-0.0648 0.41992,-0.11133 0.33947,-0.0931 0.79624,-0.223 1.29492,-0.3711 1.28591,-0.38187 2.41197,-1.08148 3.24805,-1.95703 0.83608,-0.87554 1.40943,-1.94967 1.39648,-3.11718 -0.0106,-0.95591 -0.2506,-2.23809 -0.55468,-3.46094 -0.15205,-0.61143 -0.32067,-1.19719 -0.4961,-1.69922 -0.17542,-0.50203 -0.31614,-0.89125 -0.5957,-1.26953 -1.63215,-2.20851 -3.07123,-4.06165 -4.21484,-5.4336 -0.57181,-0.68597 -1.06987,-1.25145 -1.49024,-1.68945 -0.42037,-0.438 -0.71526,-0.73672 -1.11133,-0.96679 -0.96456,-0.56032 -1.89176,-0.90709 -2.84961,-0.97461 z m 3.78711,20.68359 c 1e-4,1.5e-4 0.26233,0.25514 0.2793,0.27148 -0.0249,-0.0157 -0.10005,-0.0726 -0.0996,-0.0723 4.4e-4,3.6e-4 -0.17989,-0.19953 -0.17969,-0.19922 z" />
      <path
         style="fill:#ff6b1b;fill-opacity:1;stroke-width:0.352778"
         d="m -158.44617,120.80712 c -2.25132,-0.54808 -3.42059,-1.52259 -6.02381,-5.02049 -3.71736,-4.99494 -3.80582,-5.19892 -3.31162,-7.63623 0.72475,-3.57428 1.52034,-4.94284 3.34186,-5.74858 1.76119,-0.77906 3.09995,-0.68469 4.86956,0.34327 0.80857,0.4697 3.28086,3.43456 6.52966,7.8306 0.56329,0.7622 1.44353,4.30178 1.46096,5.87472 0.0185,1.66839 -1.71652,3.48582 -3.96523,4.15361 -0.98709,0.29314 -1.80559,0.51673 -1.81888,0.49687 -0.0133,-0.0199 -0.50041,-0.15206 -1.0825,-0.29377 z m 7.74219,-14.65718 c -1.35047,-0.67792 -2.38944,-1.69479 -4.59569,-4.49792 -1.5679,-1.992083 -2.95948,-3.919325 -3.0924,-4.282764 -0.39223,-1.072437 1.16869,-6.240999 2.16313,-7.162613 1.22096,-1.131545 2.96115,-1.378909 4.7892,-0.680773 1.1922,0.455306 2.19659,1.398619 4.79697,4.505251 l 3.28903,3.929366 0.36652,2.776123 c 0.33783,2.55883 0.31064,2.85147 -0.34744,3.73894 -0.94364,1.27259 -3.20368,2.53729 -4.5471,2.54453 -0.5925,0.003 -1.8625,-0.38837 -2.82222,-0.87014 z m 9.77328,-11.208197 c -1.00712,-0.515511 -2.62535,-2.059714 -4.70839,-4.493024 -3.04412,-3.55601 -3.16694,-3.765236 -3.00479,-5.118668 0.30452,-2.541688 1.61695,-5.426128 2.73103,-6.002238 1.27637,-0.66004 3.26731,-0.67276 4.50573,-0.0288 0.52394,0.27244 2.40314,2.08229 4.17599,4.02188 l 3.22338,3.526527 0.25338,2.862471 c 0.30295,3.422371 -0.0281,4.138196 -2.43792,5.27093 -2.02119,0.950073 -2.81879,0.943494 -4.73841,-0.03908 z m 16.25487,-2.7351 c -1.45501,-0.652265 -6.51463,-5.566079 -7.91009,-7.68214 -0.8524,-1.29258 -0.80145,-2.12673 0.29764,-4.87219 0.67317,-1.68156 1.24007,-2.52025 2.02847,-3.00101 2.40134,-1.4643 4.35172,-0.53084 8.95325,4.28507 l 3.21754,3.36743 0.0812,2.629789 c 0.0955,3.093187 -0.27844,3.966598 -2.08552,4.871635 -2.11372,1.058616 -2.95252,1.132092 -4.58245,0.401416 z m 4.47538,-13.37977 c -0.85952,-0.56932 -2.89177,-2.39672 -4.51613,-4.06089 -2.82199,-2.89115 -2.94548,-3.08444 -2.77589,-4.34474 0.0976,-0.72543 0.55485,-2.26546 1.01606,-3.42229 0.72213,-1.81123 1.02392,-2.17368 2.17321,-2.60997 2.26609,-0.86024 3.6706,-0.17386 7.70077,3.76336 l 3.48821,3.40775 v 2.85474 c 0,3.1327 -0.288,3.64973 -2.71651,4.87673 -1.61478,0.81587 -2.59358,0.71178 -4.36972,-0.46469 z"
         id="path305" />
      <path
         style="fill:#4c4c4e;stroke-width:0.352778"
         d="m -154.36466,149.35037 c -2.26924,-0.81608 -4.21062,-2.09891 -5.19817,-3.43484 -2.31261,-3.12845 -26.96464,-37.20473 -27.43891,-37.92854 -0.5349,-0.81636 -1.63913,-5.79432 -3.41354,-15.388453 -0.61896,-3.346728 -0.67421,-4.251871 -0.32968,-5.401793 0.50189,-1.675165 2.44692,-3.901225 4.39984,-5.03556 0.79234,-0.46022 13.585,-5.388815 28.42812,-10.952431 26.10002,-9.783011 27.07053,-10.115772 29.51249,-10.119018 2.9883,-0.004 5.42624,0.729802 7.62967,2.296379 0.87725,0.623704 8.71445,7.884365 17.416,16.134803 8.701557,8.250435 16.751092,15.869221 17.887865,16.930635 1.13677,1.061409 2.446458,2.678948 2.910417,3.594528 1.368559,2.70072 1.14156,4.48044 -1.635785,12.82499 -1.16779,3.50864 -1.648442,4.47968 -2.732073,5.51947 -1.437305,1.37915 -55.009934,30.05149 -58.086844,31.08837 -2.42672,0.81777 -6.88862,0.75643 -9.3494,-0.12854 z m 13.91016,-3.34327 c 3.29847,-1.62804 11.71222,-5.99296 18.69722,-9.69982 6.985,-3.70686 16.92821,-8.9673 22.09601,-11.68988 10.394583,-5.47621 11.567784,-6.35706 11.854458,-8.90041 0.156087,-1.3848 0.366864,-1.7233 1.568066,-2.51821 1.570344,-1.03921 2.691553,-3.23395 3.006996,-5.88614 0.300496,-2.5265 -0.716417,-3.85899 -8.946716,-11.723101 -4.044597,-3.864645 -10.166474,-9.857458 -13.604164,-13.317361 -3.4377,-3.459907 -6.29879,-6.290737 -6.35797,-6.290737 -0.0592,0 -0.40183,0.546308 -0.76141,1.214018 -0.35959,0.66771 -0.90789,1.311522 -1.21845,1.430697 -0.38331,0.147087 -0.3124,-0.05184 0.22079,-0.619393 0.67614,-0.719716 0.78545,-1.226485 0.78545,-3.641368 v -2.8053 l -3.48821,-3.407756 c -4.03046,-3.937497 -5.43491,-4.62378 -7.70077,-3.762964 -1.11344,0.423006 -1.45647,0.811686 -2.06976,2.345214 -0.40432,1.010998 -0.83026,1.74304 -0.94654,1.626761 -0.11627,-0.116276 -0.0326,-0.603818 0.1859,-1.083423 0.31604,-0.693628 0.29317,-0.942746 -0.11179,-1.217793 -0.89655,-0.608922 -4.454,-0.0071 -7.64308,1.293114 -1.70312,0.694345 -4.60471,1.7945 -6.44797,2.444782 -1.84327,0.650286 -4.38327,1.609341 -5.64445,2.131229 -1.26118,0.521889 -4.11868,1.63037 -6.35,2.463292 -2.23132,0.832919 -5.32694,2.020987 -6.87916,2.640147 -1.55223,0.61916 -4.64785,1.811828 -6.87917,2.650373 -9.43082,3.544158 -16.45424,6.24077 -17.16188,6.589233 -0.41674,0.205218 -1.55502,1.070589 -2.52951,1.923048 -2.30846,2.019385 -3.07403,3.895457 -2.54781,6.243556 0.46997,2.097113 2.21754,5.308085 3.80231,6.986362 1.12763,1.19415 1.19119,1.3861 0.96296,2.90806 -0.33006,2.20099 0.0334,3.86599 1.1278,5.16663 0.83215,0.98896 1.04277,1.06411 2.40828,0.85934 l 1.49639,-0.22439 3.37006,4.88368 c 1.85354,2.68603 4.19889,6.07431 5.21191,7.52952 1.01301,1.45521 2.87624,4.15396 4.14051,5.99722 4.58747,6.68838 6.55887,9.37678 7.93489,10.82085 l 1.40287,1.47225 -0.74468,0.94671 c -0.85694,1.08942 -0.72457,1.51418 1.2231,3.9249 1.28708,1.59306 3.72434,2.95665 5.95419,3.33121 2.81726,0.47324 4.39175,0.0218 10.58333,-3.03415 z m -3.86193,-13.19831 c -0.10968,-0.17745 2e-5,-0.39573 0.24376,-0.48507 0.35459,-0.12995 0.35503,-0.25585 0.002,-0.62985 -0.24254,-0.25709 -0.44097,-0.6738 -0.44097,-0.92604 0,-0.7117 1.34263,-0.54018 1.75147,0.22375 0.4723,0.8825 0.46667,0.92965 -0.18917,1.5855 -0.62771,0.62771 -1.07564,0.70362 -1.36729,0.23171 z m -2.1854,-4.18311 c -1.21677,-0.98145 -2.36684,-3.60813 -1.57978,-3.60813 0.4481,0 3.22128,3.75907 2.96342,4.01693 -0.32622,0.32623 -0.55684,0.25809 -1.38364,-0.4088 z m -5.88739,-0.12454 c -0.35521,-0.20653 -1.59582,-1.82889 -2.75691,-3.60525 -1.28724,-1.96933 -2.48075,-3.39241 -3.05834,-3.64661 -0.92305,-0.40623 -0.9112,-0.41591 0.46386,-0.3789 0.77611,0.0209 1.75514,-0.0759 2.17562,-0.21497 0.61851,-0.20465 0.73539,-0.13229 0.61202,0.3789 -0.1053,0.4363 0.31318,0.958 1.35215,1.68568 3.65699,2.56129 5.08236,4.52611 4.12248,5.68269 -0.48281,0.58176 -1.99188,0.6328 -2.91088,0.0985 z m 22.62628,-3.73511 c -0.30467,-0.34673 -0.66058,-0.98064 -0.79091,-1.40868 -0.13033,-0.42804 -0.74442,-1.1845 -1.36464,-1.68101 -0.62022,-0.49652 -1.32299,-1.06246 -1.56171,-1.25765 -0.45038,-0.36825 -1.03261,-0.33024 -0.90288,0.0589 0.0408,0.12242 -0.24182,0.50856 -0.62805,0.85809 -1.07812,0.97569 -2.29025,0.32904 -4.67746,-2.49538 -2.57648,-3.04834 -7.02843,-8.88708 -7.61055,-9.98125 -0.23778,-0.44694 -0.92047,-1.10948 -1.51707,-1.4723 l -1.08475,-0.65967 1.40262,0.18813 c 0.93489,0.1254 1.80411,-0.0109 2.60657,-0.40857 l 1.20394,-0.5967 -1.05834,0.87911 c -0.58208,0.48351 -0.97895,0.94261 -0.88194,1.02022 0.097,0.0776 0.97014,0.63859 1.94028,1.24662 0.97014,0.60802 2.31097,1.67 2.97962,2.35995 1.07938,1.11375 2.1148,1.72414 1.65059,0.97302 -0.0957,-0.15478 -0.0579,-0.46915 0.0839,-0.6986 0.4808,-0.77796 2.73072,1.21165 6.19116,5.47483 1.85193,2.28154 3.94085,4.72771 4.64206,5.43594 1.30306,1.31612 1.51196,2.49101 0.47831,2.69008 -0.30075,0.0579 -0.79609,-0.17839 -1.10075,-0.52512 z m -31.15267,-4.64175 c -1.38623,-0.86095 -2.06961,-1.64516 -5.11223,-5.86645 -2.37919,-3.30086 -2.53201,-3.62347 -2.37588,-5.01544 0.1011,-0.9013 -0.0282,-1.86361 -0.32797,-2.44148 -0.27217,-0.5246 -0.37114,-1.05918 -0.21994,-1.18796 0.1512,-0.12877 1.07219,-0.96269 2.04664,-1.85316 0.97445,-0.89046 2.24445,-1.7213 2.82222,-1.84631 0.82635,-0.1788 0.72734,-0.0739 -0.46403,0.49185 -1.70484,0.8095 -2.53186,2.2783 -3.2348,5.74507 -0.49421,2.43738 -0.40582,2.64119 3.31245,7.63734 1.74934,2.35056 3.09863,3.79427 3.98171,4.26034 0.73465,0.38772 1.17697,0.71138 0.98294,0.71923 -0.19403,0.008 -0.82903,-0.28152 -1.41111,-0.64303 z m 7.9375,-0.92756 c 0.4557,-0.48507 0.90792,-0.88195 1.00493,-0.88195 0.097,0 -0.19645,0.39688 -0.65215,0.88195 -0.4557,0.48507 -0.90792,0.88194 -1.00494,0.88194 -0.097,0 0.19646,-0.39687 0.65216,-0.88194 z m 36.64389,-1.10816 c -0.26629,-0.31845 -0.64489,-1.15189 -0.84133,-1.85208 -0.26896,-0.95868 -0.68738,-1.43492 -1.69423,-1.92836 -1.23071,-0.60315 -1.3869,-0.61017 -1.96367,-0.0882 -0.72073,0.65226 -1.56322,0.72171 -2.5231,0.208 -0.6955,-0.37222 -10.65917,-11.80977 -13.14048,-15.084303 -0.77579,-1.02379 -1.30691,-1.965054 -1.18026,-2.091697 0.34216,-0.34216 2.62406,0.830717 4.66371,2.397107 0.98806,0.758803 2.06751,1.379633 2.39877,1.379633 0.33126,0 1.03097,0.2236 1.55491,0.49689 0.99363,0.51829 7.23632,7.08215 9.92842,10.43922 0.85576,1.06716 2.34343,2.76112 3.30592,3.76436 1.15217,1.20096 1.67694,2.01442 1.53618,2.38125 -0.27878,0.72648 -1.42936,0.7142 -2.04484,-0.0218 z m -35.1973,-1.71406 c -0.0945,-1.64959 -0.99225,-5.09957 -1.509,-5.79881 -4.88868,-6.61501 -6.13043,-7.92921 -8.04036,-8.50949 -0.88422,-0.26865 -0.88487,-0.27164 -0.0656,-0.30166 1.34677,-0.0493 2.78917,1.04716 4.3557,3.31119 0.80927,1.1696 2.05433,2.84092 2.76681,3.71404 0.71247,0.87313 1.45117,1.905 1.64154,2.29306 0.59073,1.2041 1.24795,4.54681 1.07559,5.4705 -0.15021,0.80493 -0.16926,0.78977 -0.22473,-0.17883 z m 47.81001,-5.15938 c -0.32962,-1.64808 -0.28717,-1.77877 0.53787,-1.65613 0.89833,0.13354 2.25258,1.81502 1.90924,2.37057 -0.13189,0.2134 -0.68683,0.38799 -1.23321,0.38799 -0.83041,0 -1.0296,-0.1809 -1.2139,-1.10243 z m -0.89024,-2.91137 c -0.68486,-0.8252 -2.13656,-1.01666 -3.07021,-0.40491 -1.45894,0.95594 -2.42182,0.33472 -6.76857,-4.36687 -6.64598,-7.188527 -8.24345,-9.206084 -7.28923,-9.206084 0.46427,0 2.59543,1.247478 4.28887,2.510504 1.01032,0.753526 2.05974,1.370051 2.33203,1.370051 0.77315,0 3.084,1.667764 4.81173,3.472669 0.86481,0.90343 2.67739,2.79336 4.02797,4.19983 1.35057,1.40647 2.37219,2.64062 2.27026,2.74255 -0.10194,0.10193 -0.37322,-0.041 -0.60285,-0.31774 z m -39.01938,-3.37906 c 0.894,-1.13494 0.94741,-1.39108 0.77237,-3.70417 -0.11799,-1.559202 -0.0821,-2.090651 0.0962,-1.426579 0.15635,0.582079 0.30306,1.730519 0.32602,2.552069 0.0341,1.22146 -0.15849,1.70375 -1.05665,2.64584 l -1.09838,1.15209 z m 53.712047,0.199 c -0.339548,-0.25775 -0.617361,-0.75663 -0.617361,-1.10861 0,-0.56781 0.09943,-0.54655 0.881945,0.18858 1.308558,1.22933 1.099678,1.95565 -0.264584,0.92003 z m -63.974487,-1.361 -0.67204,-0.79375 0.79375,0.67204 c 0.74593,0.63155 0.95435,0.91546 0.67204,0.91546 -0.0669,0 -0.42413,-0.35719 -0.79375,-0.79375 z m -1.41111,-1.76389 -0.67204,-0.79375 0.79375,0.67204 c 0.74593,0.63155 0.95435,0.91546 0.67204,0.91546 -0.0669,0 -0.42413,-0.35719 -0.79375,-0.79375 z m 51.79118,-5.99722 c -7.98235,-7.906745 -13.37704,-13.763681 -12.84178,-13.942102 0.23407,-0.07802 1.45594,0.424497 2.71526,1.116711 1.25933,0.692213 2.28969,1.098747 2.28969,0.903407 0,-1.002086 3.02248,1.577266 10.50342,8.963498 8.202975,8.099136 8.257501,8.162826 7.083675,8.275306 -0.650611,0.0623 -1.333744,0.26078 -1.51807,0.44097 -1.0625,1.03868 -2.111347,0.3051 -8.232195,-5.75779 z m -53.20229,4.23333 -0.67204,-0.793747 0.79375,0.672037 c 0.74593,0.63155 0.95435,0.91546 0.67204,0.91546 -0.0669,0 -0.42413,-0.35718 -0.79375,-0.79375 z m -1.24621,-1.587497 c -0.43881,-0.559526 -0.42633,-0.572004 0.1332,-0.133195 0.33954,0.266295 0.61736,0.544107 0.61736,0.617362 0,0.29035 -0.2897,0.103473 -0.75056,-0.484167 z m 14.53674,-0.421668 c -0.0153,-0.280427 -0.45284,-0.953456 -0.97227,-1.495626 -0.51943,-0.54217 -0.85297,-1.077221 -0.74118,-1.189002 0.32426,-0.324259 2.12395,2.242012 1.92303,2.742138 -0.13385,0.333174 -0.18906,0.318022 -0.20958,-0.05751 z m -33.44568,-2.551462 c -1.65764,-2.419611 -1.57126,-3.112276 0.38811,-3.1123 0.84224,-1.5e-5 1.36604,0.312892 2.21351,1.322292 1.1017,1.312206 1.11585,1.31718 1.85208,0.650896 0.71658,-0.648494 0.766,-0.649619 1.44746,-0.03291 0.96151,0.870147 0.88895,1.207491 -0.35277,1.64036 -0.58209,0.202918 -1.05834,0.486678 -1.05834,0.63058 0,0.345009 -1.63467,1.08077 -2.39785,1.079263 -0.33905,-7.05e-4 -1.25046,-0.94954 -2.0922,-2.178194 z m 37.80639,0.551134 c -1.44855,-0.751519 -1.45842,-0.836573 -0.0709,-0.611416 0.67929,0.110232 1.58115,0.01171 2.0142,-0.220056 1.12569,-0.602456 1.14012,-0.312946 0.0292,0.586803 -0.88697,0.718397 -1.02612,0.735659 -1.97249,0.244669 z m -19.20102,-2.268657 c 0.36515,-1.419578 0.59205,-2.697325 0.50422,-2.839438 -0.0878,-0.142109 -0.80373,0.08512 -1.59088,0.504952 l -1.43118,0.763334 -1.56029,-1.763889 c -1.79199,-2.025812 -2.20819,-2.95402 -1.52008,-3.390029 1.02714,-0.650825 2.35671,-0.334151 3.12456,0.744196 0.81685,1.147159 1.41111,1.370005 1.41111,0.529166 0,-0.758027 0.93501,-0.652494 1.78948,0.20198 0.62631,0.626311 0.88677,0.676892 1.81653,0.352777 1.52864,-0.532885 3.30728,-0.470055 4.5254,0.159858 1.47837,0.764498 1.28864,0.913476 -0.34575,0.271473 -3.05114,-1.198527 -5.20102,0.179095 -6.19555,3.970045 -0.35382,1.348712 -0.76665,2.592698 -0.9174,2.764412 -0.15074,0.171718 0.0247,-0.849259 0.38983,-2.268837 z m 11.42755,-0.07185 -0.67203,-0.79375 0.79375,0.672038 c 0.74592,0.63155 0.95434,0.915462 0.67203,0.915462 -0.0669,0 -0.42413,-0.357187 -0.79375,-0.79375 z m 12.72175,-0.199795 c 0.18755,-0.273699 0.44415,-1.233678 0.57022,-2.133293 l 0.22922,-1.635662 0.0471,1.460225 c 0.0307,0.952066 -0.16771,1.694452 -0.57023,2.133293 -0.33954,0.370188 -0.46391,0.449136 -0.27635,0.175437 z m 9.97774,-0.813809 c -1.6412,-0.842296 -1.73215,-1.149858 -0.14378,-0.486192 0.64853,0.270973 1.52165,0.403105 1.94028,0.293631 0.9163,-0.239617 1.00185,0.08248 0.14378,0.541352 -0.43484,0.232541 -1.00848,0.12942 -1.94028,-0.348791 z m -24.29847,-0.92667 c -0.43881,-0.559527 -0.42633,-0.572005 0.1332,-0.133195 0.33954,0.266294 0.61736,0.544107 0.61736,0.617361 0,0.29035 -0.2897,0.103473 -0.75056,-0.484166 z m 3.71565,-0.176389 -0.67204,-0.79375 0.79375,0.672038 c 0.74593,0.63155 0.95435,0.915462 0.67204,0.915462 -0.0669,0 -0.42413,-0.357188 -0.79375,-0.79375 z m 18.15657,-0.529167 c -0.43881,-0.559527 -0.42633,-0.572004 0.1332,-0.133195 0.58764,0.460859 0.77451,0.750556 0.48416,0.750556 -0.0733,0 -0.35106,-0.277812 -0.61736,-0.617361 z m -48.27314,-0.417781 c -0.56217,-1.050424 -0.43609,-1.255038 0.34037,-0.552358 0.7559,0.684086 0.91876,1.234722 0.36518,1.234722 -0.1872,0 -0.5047,-0.307064 -0.70555,-0.682364 z m 56.30073,-0.152488 c 0.47316,-0.772876 0.59891,-1.643341 0.53348,-3.692874 -0.10544,-3.302543 0.12919,-3.216099 0.45127,0.166268 0.22704,2.384329 0.1909,2.571213 -0.68205,3.527777 l -0.92178,1.01007 z m -30.95814,-0.135287 c -0.43881,-0.559526 -0.42633,-0.572004 0.13319,-0.133194 0.33955,0.266294 0.61736,0.544106 0.61736,0.617361 0,0.29035 -0.28969,0.103473 -0.75055,-0.484167 z m 2.13496,-1.763888 -0.85524,-0.970139 0.97014,0.855242 c 0.90674,0.799356 1.13192,1.085035 0.85524,1.085035 -0.0632,0 -0.49975,-0.436562 -0.97014,-0.970138 z m 17.6466,-0.705556 -1.21573,-1.322917 1.32292,1.215733 c 0.7276,0.668651 1.32291,1.263964 1.32291,1.322916 0,0.269388 -0.29852,0.01563 -1.4301,-1.215732 z m -18.93917,-0.881944 c -0.19103,-0.242535 -0.46036,-0.917223 -0.59851,-1.499306 -0.13815,-0.582083 -0.57128,-1.40136 -0.96252,-1.820612 -0.95544,-1.023877 -0.72278,-2.030197 0.50207,-2.171569 0.96277,-0.111125 1.11104,-0.353836 0.97904,-1.602631 -0.0383,-0.36238 0.0894,-0.557805 0.28541,-0.436679 0.19511,0.120583 1.12084,-0.192334 2.05718,-0.695371 3.19972,-1.719019 5.56021,-0.759661 8.91572,3.623561 l 1.83556,2.397746 -2.58414,-2.709355 c -1.42128,-1.490147 -2.9309,-2.87921 -3.35471,-3.086805 -1.09524,-0.536494 -3.14821,-0.467022 -4.33501,0.146695 -1.66509,0.861057 -3.48523,6.553874 -2.48195,7.762755 0.24309,0.292897 0.3626,0.532543 0.26558,0.532543 -0.097,0 -0.33269,-0.198438 -0.52372,-0.440972 z M -160.8897,86.37842 c -0.65381,-0.997843 -0.43173,-1.854341 0.31921,-1.231114 0.51454,0.427031 0.93672,2.123024 0.52848,2.123024 -0.14481,0 -0.52627,-0.401359 -0.84769,-0.89191 z m 27.86354,-2.008809 c -0.30204,-0.431225 -0.54917,-1.315049 -0.54917,-1.964048 0,-1.000731 -0.10232,-1.147526 -0.67349,-0.966244 -0.5111,0.162218 -1.08524,-0.263176 -2.38125,-1.764337 -0.93927,-1.087952 -1.70776,-2.165632 -1.70776,-2.394846 0,-0.571835 1.73846,-0.725971 2.65509,-0.235408 0.68443,0.366299 0.71666,0.339495 0.37022,-0.307834 -0.69454,-1.297778 -0.39334,-1.264959 1.01538,0.110627 l 1.39487,1.362047 1.42837,-1.290454 c 1.17309,-1.059811 1.69616,-1.290126 2.92667,-1.288644 2.08362,0.0025 3.46696,0.969384 7.31606,5.113471 l 3.27667,3.527778 -3.61431,-3.649528 c -4.60486,-4.649728 -6.30436,-5.426224 -8.691,-3.970885 -0.7884,0.480759 -1.3553,1.319449 -2.02847,3.001003 -1.07568,2.686999 -1.15204,3.622351 -0.38511,4.717302 0.30205,0.431229 0.4698,0.784052 0.37279,0.784052 -0.097,0 -0.42352,-0.352823 -0.72556,-0.784052 z m 14.1793,-4.356615 c -0.53358,-0.289472 -0.97014,-0.606202 -0.97014,-0.703844 0,-0.09765 0.30707,-0.01319 0.68236,0.187656 0.95553,0.51138 2.00098,0.455126 3.21572,-0.173037 0.57244,-0.296023 1.04081,-0.458001 1.04081,-0.359946 0,0.162842 -2.65932,1.622347 -2.89636,1.589602 -0.0562,-0.0078 -0.53881,-0.250962 -1.07239,-0.540431 z m -2.07347,-1.473916 c -0.43881,-0.559527 -0.42633,-0.572004 0.13319,-0.133195 0.58764,0.460859 0.77452,0.750556 0.48417,0.750556 -0.0733,0 -0.35107,-0.277812 -0.61736,-0.617361 z m -3.93111,-3.534756 c -2.28304,-2.293669 -3.07161,-3.320069 -3.04913,-3.968749 0.0286,-0.824065 0.0484,-0.814536 0.34062,0.16377 0.17066,0.571306 1.62195,2.357243 3.22508,3.96875 1.60314,1.611506 2.83561,2.930013 2.73884,2.930013 -0.0968,0 -1.56171,-1.392202 -3.25541,-3.093784 z"
         id="path303" />
      <path
         style="fill:#3e3e40;stroke-width:0.352778"
         d="m -151.03783,149.04125 c -2.22985,-0.37456 -4.66711,-1.73815 -5.95419,-3.33121 -1.94767,-2.41072 -2.08004,-2.83548 -1.2231,-3.9249 l 0.74468,-0.94671 -1.40287,-1.47225 c -1.37602,-1.44407 -3.34742,-4.13247 -7.93489,-10.82085 -1.26427,-1.84326 -3.1275,-4.54201 -4.14051,-5.99722 -1.01302,-1.45521 -3.35837,-4.84349 -5.21191,-7.52952 l -3.37006,-4.88368 -1.49639,0.22439 c -1.36551,0.20477 -1.57613,0.12962 -2.40828,-0.85934 -1.09442,-1.30064 -1.45786,-2.96564 -1.1278,-5.16663 0.22823,-1.52196 0.16467,-1.71391 -0.96296,-2.90806 -1.58477,-1.678277 -3.33234,-4.889249 -3.80231,-6.986362 -0.52622,-2.348099 0.23935,-4.224171 2.54781,-6.243556 0.97449,-0.852459 2.11277,-1.71783 2.52951,-1.923048 0.70764,-0.348463 7.73106,-3.045075 17.16188,-6.589233 2.23132,-0.838545 5.32694,-2.031213 6.87917,-2.650373 1.55222,-0.61916 4.64784,-1.807228 6.87916,-2.640147 2.23132,-0.832922 5.08882,-1.941403 6.35,-2.463292 1.26118,-0.521888 3.80118,-1.480943 5.64445,-2.131229 1.84326,-0.650282 4.70076,-1.732365 6.35,-2.404625 3.26031,-1.32896 5.8161,-1.853008 7.26438,-1.489509 0.75795,0.190232 0.87964,0.371137 0.67906,1.009516 -0.13441,0.427764 -0.24813,1.174627 -0.25272,1.659696 -0.006,0.605758 -0.0606,0.682156 -0.17521,0.243956 -0.21819,-0.834238 -1.45867,-0.655295 -2.09056,0.301573 -0.40634,0.615318 -0.39459,0.839187 0.0795,1.516122 0.44115,0.629821 0.65923,0.708766 1.05367,0.381416 0.39938,-0.331463 0.49738,-0.275766 0.49738,0.282674 0,0.882273 6.28232,7.021922 8.53732,8.343441 1.34117,0.785979 1.79164,0.897421 2.37203,0.586811 0.58091,-0.3109 0.67917,-0.286297 0.5194,0.130055 -0.12691,0.330701 0.19614,0.716809 0.90751,1.084672 1.15521,0.597379 2.23404,0.468464 3.20762,-0.383293 0.41735,-0.365129 0.8442,-0.397757 1.76156,-0.134663 2.03906,0.584796 2.18329,0.486474 1.43126,-0.975681 -0.37423,-0.727604 -1.157,-1.775573 -1.73949,-2.328816 l -1.05908,-1.0059 -0.61312,0.935736 c -0.33721,0.514657 -1.10548,1.173434 -1.70726,1.46395 -0.99276,0.47927 -1.03069,0.477601 -0.40935,-0.01803 0.37663,-0.300436 0.7882,-0.546245 0.91459,-0.546245 0.12639,0 0.52902,-0.555625 0.89474,-1.234722 0.36571,-0.679097 0.71337,-1.234722 0.77256,-1.234722 0.0592,0 2.92027,2.83083 6.35797,6.290737 3.43769,3.459903 9.559567,9.452715 13.604164,13.317361 8.230299,7.86412 9.247212,9.1966 8.946716,11.7231 -0.315443,2.65219 -1.436652,4.84693 -3.006996,5.88614 -1.201202,0.79492 -1.411979,1.13342 -1.568066,2.51822 -0.286674,2.54334 -1.459875,3.42419 -11.854458,8.90041 -5.1678,2.72257 -15.11101,7.98302 -22.09601,11.68987 -23.29832,12.36417 -25.57855,13.35582 -29.28055,12.73398 z m 10.05416,-3.10846 c 2.81341,-1.39197 9.32216,-4.77048 14.46389,-7.50781 5.14174,-2.73733 14.66674,-7.779 21.16667,-11.2037 17.705507,-9.32874 17.034231,-8.85893 17.155907,-12.00709 0.03533,-0.91406 0.07908,-1.93973 0.09722,-2.27928 0.01813,-0.33955 0.278994,-0.61736 0.57967,-0.61736 1.047584,0 2.5319,-1.03222 2.955745,-2.05547 0.665724,-1.6072 -0.12676,-5.00008 -1.167878,-5.00008 -0.254564,0 -0.639392,-0.35719 -0.855175,-0.79375 -0.334508,-0.67677 -0.363746,-0.58491 -0.198364,0.62329 0.144904,1.05863 -0.03274,1.92969 -0.70243,3.44394 -1.055546,2.38678 -1.692582,2.75115 -2.987378,1.70872 -2.080274,-1.67481 -2.230473,-1.67355 -5.412391,0.0455 -4.061368,2.19423 -5.020006,2.68569 -11.052426,5.66618 -2.91042,1.43797 -5.92667,2.95256 -6.70278,3.36574 -0.77611,0.41319 -3.95111,2.0099 -7.05555,3.54824 -3.10445,1.53835 -6.4382,3.19998 -7.40834,3.69253 -0.97014,0.49254 -4.22451,2.11181 -7.23194,3.59836 -3.00743,1.48655 -5.71883,2.92196 -6.02533,3.18981 -0.3065,0.26784 -1.5765,0.89973 -2.82222,1.4042 -3.81391,1.54448 -8.08578,4.04092 -8.08578,4.72524 0,0.34909 3.16266,1.98359 4.40972,2.27899 l 1.05833,0.2507 -1.18703,0.49974 c -1.65125,0.69517 -3.81011,0.62375 -6.2213,-0.20582 -2.46196,-0.84703 -3.12306,-0.87658 -3.71284,-0.16594 -0.92238,1.1114 1.59363,4.36156 4.41583,5.7043 1.49373,0.7107 2.20218,0.82356 4.58867,0.73104 2.69643,-0.10454 3.05023,-0.22223 7.9375,-2.64027 z m -6.51035,-13.66726 c 1.29158,-1.29158 1.12768,-2.49253 -0.45382,-3.32532 -0.63144,-0.3325 -1.0007,-0.30763 -1.83457,0.12358 -2.36966,1.2254 -3.38016,0.52769 -6.34901,-4.38368 -0.99183,-1.64081 -1.99778,-3.10681 -2.23543,-3.2578 -0.23765,-0.15098 -0.27334,-0.27451 -0.0793,-0.27451 0.70226,0 1.2071,0.57546 3.29702,3.75823 1.16923,1.78064 2.4431,3.4073 2.83082,3.6148 0.9848,0.52705 2.35172,0.47018 2.83999,-0.11815 0.9575,-1.1537 -0.44627,-3.09481 -4.1096,-5.68269 -0.82048,-0.57961 -1.49516,-1.23658 -1.4993,-1.45995 -0.004,-0.22337 0.54665,-0.73311 1.22399,-1.13275 2.24723,-1.3259 3.1323,-3.70763 2.32542,-6.25779 -0.17799,-0.56253 -0.41521,-1.44368 -0.52715,-1.9581 -0.11195,-0.51444 -0.88764,-1.78444 -1.72376,-2.82223 -0.83612,-1.03779 -2.18468,-2.84384 -2.99681,-4.01344 -1.85084,-2.66553 -2.96748,-3.34895 -5.41921,-3.31671 -2.38024,0.0313 -2.58379,0.12472 -5.01226,2.30078 -1.95289,1.74991 -1.99204,1.82098 -1.51231,2.74567 0.29755,0.57353 0.42643,1.5381 0.32561,2.43692 -0.15613,1.39197 -0.003,1.71458 2.37588,5.01544 3.04262,4.22129 3.726,5.0055 5.11223,5.86645 0.58208,0.36151 0.89958,0.6573 0.70556,0.6573 -0.19403,0 -0.87256,-0.3169 -1.50784,-0.70424 -0.63528,-0.38733 -1.22561,-0.70423 -1.31184,-0.70423 -0.59977,0 0.83531,1.77602 4.12932,5.11032 2.10581,2.13158 4.17801,4.38531 4.60488,5.00828 0.42688,0.62298 1.35354,1.45721 2.05926,1.85385 0.70572,0.39663 1.48195,0.96072 1.72495,1.25352 0.6605,0.79585 2.04045,0.6433 3.0173,-0.33355 z m 4.54488,0.31155 c 0.65584,-0.65585 0.66147,-0.703 0.18917,-1.5855 -0.40884,-0.76393 -1.75147,-0.93545 -1.75147,-0.22375 0,0.25224 0.19843,0.66895 0.44097,0.92604 0.35283,0.374 0.35239,0.4999 -0.002,0.62985 -0.46766,0.1714 -0.26094,0.80772 0.26241,0.80772 0.16871,0 0.55622,-0.24946 0.86112,-0.55436 z m -2.16905,-3.5426 c 0.25786,-0.25786 -2.51532,-4.01693 -2.96342,-4.01693 -1.13455,0 1.38006,4.18123 2.54123,4.22549 0.11319,0.004 0.30317,-0.0895 0.42219,-0.20856 z m 12.37723,-4.04253 c 2.2976,-1.8073 -0.41835,-4.7283 -2.75388,-2.96179 -0.37663,0.28487 -0.95602,0.51795 -1.28752,0.51795 -0.65411,0 -3.17599,-2.61875 -5.45909,-5.66879 -4.59539,-6.13908 -7.12433,-9.83301 -6.5049,-9.5015 0.38892,0.20815 0.97999,0.80942 1.31349,1.33617 1.01291,1.59985 5.53154,7.50837 7.74427,10.12635 2.38721,2.82442 3.59934,3.47107 4.67746,2.49538 0.38623,-0.34953 0.66885,-0.75949 0.62805,-0.91101 -0.14102,-0.52362 0.29831,-0.5205 0.94816,0.007 1.74537,1.41604 3.03459,2.80164 3.03459,3.26144 0,0.74847 1.29848,1.79616 1.92713,1.55492 0.8811,-0.33811 0.62363,-1.436 -0.60422,-2.57655 -0.63059,-0.58576 -2.65353,-2.94379 -4.49543,-5.24007 -3.50248,-4.36651 -5.91041,-6.53446 -6.39211,-5.75506 -0.14663,0.23724 -0.18833,0.558 -0.0927,0.71278 0.46421,0.75112 -0.57121,0.14074 -1.65059,-0.97302 -0.66865,-0.68995 -2.00948,-1.75193 -2.97962,-2.35995 -0.97014,-0.60803 -1.83382,-1.15856 -1.91928,-1.2234 -0.0855,-0.0648 0.13533,-0.39192 0.49067,-0.72685 0.35533,-0.33493 0.52842,-0.39996 0.38464,-0.14452 -0.39776,0.70671 0.85276,1.45206 2.45508,1.4633 1.62365,0.0114 3.70417,-1.10031 3.70417,-1.97928 0,-0.82903 2.07939,-2.59429 3.05595,-2.59429 0.80713,0 2.66247,1.62317 4.93964,4.32152 1.10614,1.31074 1.88218,1.6922 1.88218,0.92518 0,-0.21875 -1.08387,-1.68719 -2.4086,-3.26319 -1.32473,-1.57601 -3.40828,-4.21484 -4.63011,-5.86408 -1.22182,-1.649236 -2.63826,-3.366961 -3.14764,-3.817165 l -0.92615,-0.81855 1.39474,0.72438 c 1.3427,0.697353 1.42167,0.700853 2.11667,0.09372 0.39706,-0.346865 1.39366,-1.058852 2.21468,-1.582194 1.64008,-1.045443 2.05793,-2.017265 1.74399,-4.056151 l -0.20076,-1.303764 0.54745,1.019189 c 0.7865,1.464243 0.25831,2.938776 -1.54552,4.314606 -0.80809,0.616349 -1.67657,1.205996 -1.92997,1.310333 -0.66803,0.275061 0.99376,1.646149 1.99516,1.646149 1.38456,0 3.14839,-0.779945 4.5125,-1.995367 0.72816,-0.648797 1.4901,-1.179632 1.69321,-1.179632 1.01432,0 5.03667,2.947352 8.1846,5.997226 0.3004,0.29104 1.23658,1.20385 2.08039,2.02847 2.7585,2.69574 2.55832,1.46308 -0.28171,-1.73463 -0.885,-0.996475 -2.46682,-2.971583 -3.51515,-4.389143 -1.04834,-1.417556 -2.57951,-3.046444 -3.40262,-3.619754 -0.8231,-0.573309 -2.28996,-1.88977 -3.25968,-2.925469 l -1.76314,-1.883089 2.11591,2.006649 c 1.16376,1.103658 2.81564,2.400575 3.67084,2.882043 l 1.55493,0.875393 1.97285,-1.07582 c 1.08507,-0.591704 2.33789,-1.470029 2.78403,-1.951839 0.73394,-0.792603 0.79345,-1.115733 0.62496,-3.393718 -0.12325,-1.666378 -0.0814,-2.219491 0.1238,-1.635764 0.43911,1.24919 0.44783,4.153627 0.0149,4.962557 -0.201,0.37556 -1.14226,1.07648 -2.0917,1.557598 -2.2178,1.123845 -2.38454,1.443454 -1.09969,2.107876 1.31543,0.680233 1.58033,0.678187 3.05937,-0.02367 0.89681,-0.425569 1.28671,-0.902271 1.55604,-1.902502 0.19766,-0.734053 0.27124,-1.564336 0.16352,-1.84507 -0.10773,-0.280733 0.03,-0.697854 0.30599,-0.926938 1.09717,-0.910565 3.76836,1.093753 10.73969,8.058485 5.011715,5.006965 7.127123,6.881795 8.362286,7.411245 2.042452,0.8755 2.708116,0.8867 3.725703,0.0627 1.768024,-1.43166 -0.388856,-3.78856 -2.478263,-2.70809 -0.560381,0.28979 -1.117685,0.68676 -1.238452,0.88217 -0.437264,0.7075 -1.039713,0.3005 -4.304334,-2.90791 -8.04733,-7.908763 -15.01608,-15.388033 -16.7213,-17.946265 -0.46834,-0.702638 -1.64452,-1.874463 -2.61373,-2.604061 -0.9692,-0.729597 -3.07836,-2.600914 -4.68702,-4.158484 -2.13962,-2.071673 -3.02975,-2.727025 -3.31563,-2.441138 -0.55762,0.557619 0.47804,2.021294 1.98253,2.801874 1.05998,0.549953 8.31488,7.826146 8.31488,8.339282 0,0.109227 -1.52836,-1.423327 -3.39635,-3.405677 -3.9804,-4.224091 -5.36337,-5.187453 -7.45055,-5.189972 -1.23051,-0.0014 -1.75358,0.228833 -2.92667,1.288644 l -1.42838,1.290455 -1.39486,-1.362047 c -1.40872,-1.375587 -1.70993,-1.408406 -1.01538,-0.110628 0.34644,0.64733 0.31421,0.674134 -0.37022,0.307834 -0.91663,-0.490562 -2.65509,-0.336426 -2.65509,0.235409 0,0.229213 0.76849,1.306893 1.70776,2.394846 1.29601,1.501161 1.87014,1.926554 2.38125,1.764337 0.57742,-0.183265 0.67349,-0.03313 0.67349,1.052621 0,0.981714 0.32892,1.641274 1.46326,2.934187 l 1.46325,1.667814 -1.63964,-1.65516 c -1.04827,-1.058185 -1.63964,-1.964739 -1.63964,-2.513531 0,-0.695681 -0.17911,-0.858382 -0.94493,-0.858382 -0.70603,0 -1.41608,-0.523992 -2.80847,-2.07257 -1.24352,-1.382998 -1.86811,-1.867503 -1.87729,-1.456224 -0.008,0.338988 0.54187,1.231357 1.22097,1.983035 0.6791,0.751677 1.23472,1.524476 1.23472,1.717329 0,0.192853 0.32814,0.808612 0.7292,1.368354 0.40105,0.559742 0.20415,0.382715 -0.43757,-0.393396 -4.20818,-5.089469 -6.20922,-5.988869 -9.51202,-4.275318 -0.98013,0.508512 -1.9388,0.827695 -2.13038,0.709295 -0.19157,-0.118395 -0.31711,0.0799 -0.27898,0.440655 0.132,1.248795 -0.0163,1.491506 -0.97904,1.602631 -1.22485,0.141372 -1.45751,1.147692 -0.50207,2.171569 0.39124,0.419252 0.8238,1.238529 0.96126,1.820612 0.13745,0.582083 0.50641,1.373099 0.8199,1.757811 0.53737,0.659465 0.5335,0.671159 -0.0678,0.20447 -0.35075,-0.272253 -0.85692,-0.983891 -1.12481,-1.581419 -0.6686,-1.49129 -2.30486,-3.265699 -3.27359,-3.549967 -0.667,-0.195728 -0.86451,-0.05859 -1.16753,0.810648 -0.28112,0.806432 -0.85308,1.265396 -2.49542,2.002437 -1.47841,0.663469 -2.01812,1.068801 -1.76294,1.323982 0.57119,0.571193 4.56829,-1.048187 5.10213,-2.067073 0.43099,-0.822558 0.43979,-0.818215 1.98985,0.981294 l 1.55695,1.80751 -0.83849,0.67897 c -0.88118,0.713532 -0.85937,0.761365 0.77498,1.699376 0.32606,0.187138 0.93648,0.856509 1.35649,1.487495 l 0.76366,1.147244 -1.00371,-1.119163 c -2.10351,-2.345471 -4.53382,-3.100892 -7.09909,-2.206636 -0.92976,0.324115 -1.19022,0.273534 -1.81653,-0.352777 -0.85447,-0.854474 -1.78948,-0.960007 -1.78948,-0.20198 0,0.840839 -0.59426,0.617993 -1.41111,-0.529166 -0.76785,-1.078347 -2.09742,-1.395021 -3.12456,-0.744196 -0.68811,0.436009 -0.27191,1.364217 1.52008,3.390029 l 1.56029,1.763889 1.43118,-0.763334 c 1.60687,-0.857035 1.89673,-0.698461 1.45055,0.79356 -0.25276,0.845213 -0.31285,0.889688 -0.33778,0.250006 -0.0295,-0.757325 -0.0688,-0.764511 -1.47303,-0.269084 -1.3853,0.488763 -2.79062,0.251576 -2.79062,-0.470998 0,-0.563562 -2.78553,-3.589083 -2.99394,-3.251877 -0.26795,0.433546 -0.0742,0.782479 1.54388,2.780266 1.17326,1.448591 1.20843,1.565212 0.60497,2.006466 -0.35238,0.257666 -1.43505,0.754133 -2.40594,1.10326 -0.97089,0.349126 -2.16183,1.002309 -2.64653,1.451515 -0.78094,0.723752 -0.82359,0.884929 -0.37468,1.4157 0.78253,0.925217 2.08663,3.314662 1.90707,3.494232 -0.0883,0.0883 -0.5313,-0.0452 -0.98448,-0.29654 -0.45318,-0.25139 -0.93509,-0.46269 -1.07091,-0.46956 -0.13582,-0.007 -0.79073,-0.606173 -1.45535,-1.331774 l -1.2084,-1.319269 -1.71965,0.519409 c -0.94581,0.28568 -1.98207,0.436975 -2.30281,0.336219 -0.32073,-0.100757 -1.18626,-1.129884 -1.92339,-2.286946 -1.46556,-2.300457 -1.90317,-2.577264 -1.90317,-1.203822 0,0.584807 0.45064,1.312778 1.28694,2.07893 1.59129,1.457805 1.43713,1.993127 -0.91759,3.186353 -0.97926,0.49623 -1.78046,1.13295 -1.78046,1.41494 0,0.55063 3.25487,5.51252 4.04769,6.1705 0.36131,0.29986 1.02968,0.20442 2.73412,-0.39044 1.24074,-0.43302 2.51712,-0.68708 2.83638,-0.56456 0.31927,0.12251 0.93977,0.90517 1.3789,1.73924 0.7381,1.40193 0.80861,1.45025 0.93332,0.63958 0.0742,-0.4823 -0.15472,-1.41471 -0.5087,-2.07202 l -0.64361,-1.1951 1.25192,-1.10298 c 0.68856,-0.60664 1.51289,-1.52638 1.83185,-2.04386 0.6183,-1.00312 0.14638,-0.90461 7.43172,-1.55135 l 2.2436,-0.19917 1.29104,1.79704 c 1.06003,1.47549 1.22448,1.92143 0.91899,2.49222 -0.44928,0.8395 -0.0951,1.6026 1.79637,3.87019 1.54798,1.85582 3.01292,6.13668 2.62811,7.67992 -0.13209,0.52973 -1.046,1.7412 -2.03092,2.69216 -1.67522,1.61747 -1.74878,1.75972 -1.14001,2.20486 1.24472,0.91017 3.67329,0.42863 5.36659,-1.06409 0.43656,-0.38485 0.79971,-0.87049 0.80699,-1.0792 0.007,-0.20872 0.53031,-0.98326 1.16228,-1.72121 1.02111,-1.19236 1.25012,-1.30329 2.05709,-0.99649 0.49944,0.18989 1.25715,0.79367 1.68381,1.34173 2.80453,3.60255 4.34125,5.16557 6.37247,6.48154 1.89513,1.22781 2.43211,1.27336 3.65659,0.31018 z m -18.31764,-18.51469 c -0.64569,-0.51731 -0.63444,-0.52465 0.19716,-0.12861 1.07986,0.51429 1.27999,0.67724 0.83178,0.67724 -0.18929,0 -0.65231,-0.24689 -1.02894,-0.54863 z m 7.16452,-1.08253 c 1.22142,-1.16871 1.4993,-1.67035 1.4993,-2.70658 0,-2.15813 -0.74174,-4.951598 -1.65839,-6.245598 l -0.87465,-1.234722 1.02036,1.074004 c 0.73882,0.777659 1.20119,1.841874 1.67572,3.856876 0.64204,2.72637 0.64167,2.80811 -0.0184,4.02576 -0.37058,0.68359 -1.2294,1.56283 -1.9085,1.95387 l -1.23472,0.71098 1.4993,-1.43459 z m -9.36064,-0.39732 c -1.01405,-1.00823 -2.72273,-3.14528 -3.55748,-4.44937 -0.51192,-0.799741 0.32228,0.0902 3.17868,3.39104 1.837,2.12283 2.05111,2.72103 0.3788,1.05833 z m -4.70728,-5.997219 c -0.43881,-0.559527 -0.42633,-0.572004 0.1332,-0.133195 0.33954,0.266295 0.61736,0.544107 0.61736,0.617361 0,0.290351 -0.2897,0.103474 -0.75056,-0.484166 z m -0.98548,-2.057869 c 0.0169,-0.410969 0.10052,-0.494559 0.21313,-0.213138 0.10191,0.25466 0.0894,0.558931 -0.0278,0.676159 -0.11723,0.117224 -0.2006,-0.09114 -0.18529,-0.463021 z m 0.0321,-1.381714 c -0.006,-0.388056 0.12606,-1.023056 0.29282,-1.411111 0.38629,-0.898956 0.38629,0.0285 0,1.234722 -0.22706,0.708988 -0.28448,0.743581 -0.29282,0.176389 z m 15.51943,-2.174156 -1.99744,-1.99777 2.11666,1.888773 c 1.16417,1.038824 2.18281,1.937819 2.26366,1.99777 0.0808,0.05995 0.0272,0.108994 -0.11922,0.108994 -0.14641,0 -1.16506,-0.898994 -2.26366,-1.997767 z m -3.79484,-0.207094 -0.67204,-0.79375 0.79375,0.672038 c 0.74593,0.63155 0.95435,0.915462 0.67204,0.915462 -0.0669,0 -0.42413,-0.357188 -0.79375,-0.79375 z m 0.36969,-3.527778 -1.39451,-1.499306 1.49931,1.394513 c 1.39434,1.296882 1.66141,1.604099 1.39451,1.604099 -0.0576,0 -0.73233,-0.674688 -1.49931,-1.499306 z m 12.97483,-1.675694 c 0,-0.679098 0.0726,-0.95691 0.16134,-0.617361 0.0887,0.339548 0.0887,0.895173 0,1.234722 -0.0887,0.339548 -0.16134,0.06174 -0.16134,-0.617361 z m -1.16688,-2.38125 -0.85524,-0.970139 0.97014,0.855242 c 0.90674,0.799356 1.13192,1.085036 0.85524,1.085036 -0.0632,0 -0.49975,-0.436563 -0.97014,-0.970139 z m -28.75712,32.543754 c -0.61238,-0.93462 -0.84951,-1.08936 -0.84951,-0.55437 0,0.33183 0.9751,1.43631 1.26806,1.43631 0.0876,0 -0.10072,-0.39688 -0.41855,-0.88194 z m 44.31311,0.34912 c 1.49252,-0.77181 1.9429,-1.77648 1.26213,-2.81547 -0.81641,-1.24601 -1.79759,-1.40485 -3.22571,-0.52223 -1.50713,0.93146 -2.58392,0.73893 -3.42772,-0.61287 -0.97437,-1.56099 -4.10846,-4.83872 -4.37337,-4.57381 -0.1323,0.1323 0.0784,0.5971 0.46813,1.0329 0.38977,0.43579 1.05268,1.34798 1.47312,2.02708 0.42044,0.67909 1.35893,1.74123 2.08554,2.36029 2.46951,2.10402 4.386,3.63693 4.54699,3.63693 0.0883,0 0.62419,-0.23977 1.19089,-0.53282 z m 5.16778,-0.37713 c 0.14076,-0.36683 -0.38401,-1.18029 -1.53618,-2.38125 -0.96249,-1.00324 -2.45016,-2.6972 -3.30592,-3.76436 -2.6921,-3.35707 -8.93479,-9.92093 -9.92842,-10.43922 -0.52394,-0.27329 -1.22365,-0.49689 -1.55491,-0.49689 -0.33126,0 -1.41071,-0.62083 -2.39877,-1.379633 -2.03965,-1.56639 -4.32155,-2.739267 -4.66371,-2.397107 -0.12665,0.126643 0.40447,1.067907 1.18026,2.091697 2.48131,3.274533 12.44498,14.712083 13.14048,15.084303 0.95988,0.51371 1.80237,0.44426 2.5231,-0.208 0.57677,-0.52197 0.73296,-0.51495 1.96367,0.0882 1.00685,0.49344 1.42527,0.96968 1.69423,1.92836 0.19644,0.70019 0.57504,1.53363 0.84133,1.85208 0.61548,0.73602 1.76606,0.7483 2.04484,0.0218 z m 13.01498,-6.18082 c 0.34334,-0.55555 -1.01091,-2.23703 -1.90924,-2.37057 -0.82504,-0.12264 -0.86749,0.008 -0.53787,1.65613 0.1843,0.92153 0.38349,1.10243 1.2139,1.10243 0.54638,0 1.10132,-0.17459 1.23321,-0.38799 z m -4.15721,-0.51395 c 0.92843,-0.6503 1.01322,-1.78789 0.20021,-2.68625 -0.76185,-0.84184 -1.92249,-0.81877 -3.0402,0.0604 -0.49333,0.38806 -1.11005,0.70538 -1.37049,0.70516 -0.26044,-2.2e-4 -1.54604,-1.0576 -2.8569,-2.34973 -1.31085,-1.29212 -2.48568,-2.24701 -2.61073,-2.12197 -0.33676,0.33676 4.04034,4.74255 5.87605,5.91458 1.80598,1.15304 2.68102,1.26301 3.80206,0.4778 z m -74.86644,-1.95319 c 0.1311,-0.21212 -0.39661,-1.04556 -1.1727,-1.85208 -0.77609,-0.80652 -1.60753,-1.84897 -1.84765,-2.31656 -0.39213,-0.7636 -0.47103,-0.78861 -0.7749,-0.24562 -0.23419,0.41849 -0.18326,0.84301 0.1655,1.37933 0.2771,0.42613 0.69895,1.3701 0.93745,2.0977 0.36703,1.11975 0.58876,1.32292 1.44378,1.32292 0.55558,0 1.11742,-0.17356 1.24852,-0.38569 z m 74.01889,-3.58348 c -1.35058,-1.40647 -3.16316,-3.2964 -4.02797,-4.19983 -1.72773,-1.804905 -4.03858,-3.472669 -4.81173,-3.472669 -0.27229,0 -1.32171,-0.616525 -2.33203,-1.370051 -1.69344,-1.263026 -3.8246,-2.510504 -4.28887,-2.510504 -0.95422,0 0.64325,2.017557 7.28923,9.206084 4.34675,4.70159 5.30963,5.32281 6.76857,4.36687 0.93365,-0.61175 2.38535,-0.42029 3.07021,0.40491 0.22963,0.27669 0.50091,0.41967 0.60285,0.31774 0.10193,-0.10193 -0.91969,-1.33608 -2.27026,-2.74255 z m 17.506605,-0.55545 c 0,-0.1602 -0.396875,-0.66413 -0.881944,-1.11983 -0.782511,-0.73513 -0.881945,-0.75639 -0.881945,-0.18858 0,0.35198 0.277813,0.85086 0.617361,1.10861 0.712925,0.54119 1.146528,0.61675 1.146528,0.1998 z m -6.50875,-3.56412 c 0.184326,-0.18019 0.867459,-0.37863 1.51807,-0.44097 1.173826,-0.11248 1.1193,-0.17617 -7.083675,-8.275306 -7.48094,-7.386232 -10.50342,-9.965584 -10.50342,-8.963498 0,0.19534 -1.03036,-0.211194 -2.28969,-0.903407 -1.25932,-0.692214 -2.48119,-1.194732 -2.71526,-1.116711 -0.53526,0.178421 4.85943,6.035357 12.84178,13.942102 6.120848,6.06289 7.169695,6.79647 8.232195,5.75779 z m 7.567083,-0.69296 c 0,-0.17327 -0.238125,-0.40641 -0.529166,-0.5181 -0.537732,-0.20635 -0.722486,0.16944 -0.293981,0.59794 0.337147,0.33715 0.823147,0.29001 0.823147,-0.0798 z m -2.645833,-2.859969 c -0.119916,-0.194028 -0.376777,-0.352778 -0.570805,-0.352778 -0.194028,0 -0.254667,0.15875 -0.134751,0.352778 0.119917,0.194028 0.376778,0.352778 0.570805,0.352778 0.194028,0 0.254667,-0.15875 0.134751,-0.352778 z m -82.919375,-0.762183 c 0.4942,-0.225171 0.89854,-0.527142 0.89854,-0.671044 0,-0.143901 0.47625,-0.427662 1.05834,-0.630579 1.24172,-0.432869 1.31428,-0.770213 0.35277,-1.640361 -0.68146,-0.616722 -0.73088,-0.615597 -1.44746,0.03292 -0.73623,0.666284 -0.75038,0.66131 -1.85208,-0.650897 -0.84747,-1.009399 -1.37127,-1.322306 -2.21351,-1.322292 -1.95937,2.5e-5 -2.04575,0.69269 -0.38811,3.112301 1.53674,2.243127 2.02497,2.483739 3.59151,1.769974 z m -5.06494,-5.964615 c 1.20012,-0.854566 1.36981,-2.235846 0.34223,-2.785791 -2.39934,-1.284087 -4.68362,0.97161 -2.84541,2.809811 0.88639,0.886393 1.22924,0.883102 2.50318,-0.02402 z m 4.55237,-0.27408 c 0,-0.163957 -0.3175,-0.585435 -0.70555,-0.936622 -0.77646,-0.70268 -0.90254,-0.498066 -0.34037,0.552358 0.36813,0.687854 1.04592,0.936869 1.04592,0.384264 z m 75.847223,-0.05468 c 0,-0.194028 -0.16812,-0.352778 -0.373599,-0.352778 -0.205479,0 -0.275484,0.15875 -0.155568,0.352778 0.119916,0.194027 0.288036,0.352777 0.373599,0.352777 0.08556,0 0.155568,-0.15875 0.155568,-0.352777 z m -81.844443,-5.01807 c 1.45521,-0.71519 4.55083,-1.921976 6.87917,-2.681743 2.32833,-0.75977 5.2652,-1.88861 6.52638,-2.508532 1.26119,-0.619926 3.08681,-1.340838 4.05695,-1.602031 2.15395,-0.57991 10.40654,-3.923114 10.89852,-4.415088 0.8087,-0.808697 -0.96419,-0.23732 -8.78185,2.830276 -1.55223,0.609082 -4.28805,1.638928 -6.07962,2.288544 -1.79156,0.649619 -5.44281,2.049797 -8.11389,3.11151 -2.67107,1.061713 -6.03594,2.382143 -7.47748,2.934286 -2.35814,0.903224 -2.70309,1.159831 -3.43959,2.558694 -1.29886,2.466989 -0.96379,2.68067 1.03349,0.659066 1.15963,-1.173744 2.84132,-2.360813 4.49792,-3.174982 z m 19.84396,0.266343 c -0.19983,-1.045322 -0.97822,-1.803576 -1.30638,-1.272589 -0.23489,0.380065 0.76028,2.14376 1.20963,2.14376 0.1448,0 0.18834,-0.392028 0.0968,-0.871171 z m -4.43267,-0.601433 c 1.5137,-1.42205 0.84536,-2.760729 -1.3783,-2.760729 -1.08966,0 -1.42389,0.166313 -1.74337,0.867494 -0.31652,0.694683 -0.27826,1.046057 0.19208,1.763889 0.72184,1.101662 1.84196,1.151118 2.92959,0.129346 z m 13.17781,-5.170653 c 1.72665,-1.398161 -0.21506,-3.546376 -2.33317,-2.5813 -0.91683,0.417735 -1.10552,1.396249 -0.49074,2.544971 0.46094,0.861272 1.78413,0.878293 2.82391,0.03633 z m 12.61534,-5.068965 c 0.66928,-0.669272 0.49821,-1.981214 -0.31508,-2.416475 -1.61906,-0.866496 -3.58875,0.640585 -2.78936,2.134253 0.43048,0.804358 2.40299,0.983675 3.10444,0.282222 z m -8.39611,-2.257524 c 3.49224,-1.12825 6.84991,-2.581278 6.58258,-2.848603 -0.31888,-0.318879 -9.84017,3.334018 -10.45434,4.010861 -0.10185,0.112247 0.0529,0.114628 0.34398,0.0053 0.29105,-0.109329 1.87855,-0.634732 3.52778,-1.167557 z m 12.45777,-4.919186 c 0.75622,-0.542301 0.75057,-0.548368 -0.28693,-0.308317 -0.58209,0.13468 -1.45521,0.469836 -1.94028,0.744788 -0.87868,0.498062 -0.87761,0.499205 0.28693,0.308317 0.64288,-0.105382 1.51601,-0.440535 1.94028,-0.744788 z m 5.71029,-1.130166 c 0.95763,-0.192366 1.26082,-0.37761 0.94345,-0.576439 -0.64146,-0.40186 -3.92165,0.05836 -5.0004,0.701566 -0.84425,0.503393 -0.80657,0.518012 0.88195,0.342099 0.97014,-0.101071 2.39889,-0.311323 3.175,-0.467226 z"
         id="path301" />
      <path
         style="fill:#343335;stroke-width:0.352778"
         d="m -153.50984,147.84202 c -2.8222,-1.34274 -5.33821,-4.5929 -4.41583,-5.7043 0.58978,-0.71064 1.25088,-0.68109 3.71284,0.16594 2.41119,0.82957 4.57005,0.90099 6.2213,0.20582 l 1.18703,-0.49974 -1.05833,-0.2507 c -1.24706,-0.2954 -4.40972,-1.9299 -4.40972,-2.27899 0,-0.68432 4.27187,-3.18076 8.08578,-4.72524 1.24572,-0.50447 2.51572,-1.13636 2.82222,-1.4042 0.3065,-0.26785 3.0179,-1.70326 6.02533,-3.18981 3.00743,-1.48655 6.2618,-3.10582 7.23194,-3.59836 0.97014,-0.49255 4.30389,-2.15418 7.40834,-3.69253 3.10444,-1.53834 6.27944,-3.13505 7.05555,-3.54824 0.77611,-0.41318 3.79236,-1.92777 6.70278,-3.36574 6.03242,-2.98049 6.991057,-3.47195 11.052425,-5.66618 3.181918,-1.7191 3.332117,-1.72036 5.412391,-0.0455 1.294796,1.04243 1.931832,0.67806 2.987378,-1.70872 0.669675,-1.51425 0.847334,-2.38531 0.70243,-3.44394 -0.165382,-1.2082 -0.136144,-1.30006 0.198364,-0.62329 0.215783,0.43656 0.600611,0.79375 0.855175,0.79375 1.041118,0 1.833602,3.39288 1.167878,5.00008 -0.423845,1.02325 -1.908161,2.05547 -2.955745,2.05547 -0.300676,0 -0.56153,0.27781 -0.57967,0.61736 -0.01813,0.33955 -0.06189,1.36522 -0.09722,2.27928 -0.121676,3.14816 0.5496,2.67835 -17.155906,12.00709 -6.49993,3.4247 -16.02493,8.46637 -21.16667,11.2037 -5.14173,2.73733 -11.65048,6.11584 -14.46389,7.50781 -4.88727,2.41804 -5.24107,2.53573 -7.9375,2.64027 -2.38649,0.0925 -3.09494,-0.0204 -4.58867,-0.73104 z m 2.99852,-15.24294 c -0.243,-0.2928 -1.01923,-0.85689 -1.72495,-1.25352 -0.70572,-0.39664 -1.63238,-1.23087 -2.05926,-1.85385 -0.42687,-0.62297 -2.49907,-2.8767 -4.60488,-5.00828 -3.57674,-3.6205 -4.73273,-5.11032 -3.96522,-5.11032 0.17648,0 0.41491,0.15215 0.52985,0.33811 0.11493,0.18596 1.14333,0.6788 2.28533,1.0952 1.99359,0.7269 2.14342,0.87062 3.758,3.60486 3.01497,5.10577 4.11428,5.8914 6.51004,4.65251 0.83387,-0.43121 1.20313,-0.45608 1.83457,-0.12358 1.5815,0.83279 1.7454,2.03374 0.45382,3.32532 -0.97685,0.97685 -2.3568,1.1294 -3.0173,0.33355 z m 14.11377,-7.91731 c -2.03122,-1.31597 -3.56794,-2.87899 -6.37247,-6.48154 -0.42666,-0.54806 -1.18437,-1.15184 -1.68381,-1.34173 -0.80697,-0.3068 -1.03598,-0.19587 -2.05709,0.99649 -0.63197,0.73795 -1.15499,1.51249 -1.16228,1.72121 -0.007,0.20871 -0.37043,0.69435 -0.80699,1.0792 -1.6933,1.49272 -4.12187,1.97426 -5.36659,1.06409 -0.60877,-0.44514 -0.53521,-0.58739 1.14001,-2.20486 0.98492,-0.95096 1.89883,-2.16243 2.03092,-2.69216 0.38481,-1.54324 -1.08013,-5.8241 -2.62811,-7.67992 -1.89146,-2.26759 -2.24565,-3.03069 -1.79637,-3.87019 0.30549,-0.57079 0.14104,-1.01673 -0.91899,-2.49222 l -1.29104,-1.79704 -2.2436,0.19917 c -7.28534,0.64674 -6.81342,0.54823 -7.43172,1.55135 -0.31896,0.51748 -1.14329,1.43722 -1.83185,2.04386 l -1.25192,1.10298 0.64361,1.1951 c 0.35398,0.65731 0.58289,1.58972 0.5087,2.07202 -0.12471,0.81067 -0.19522,0.76235 -0.93332,-0.63958 -0.43913,-0.83407 -1.05963,-1.61673 -1.3789,-1.73924 -0.31926,-0.12252 -1.59564,0.13154 -2.83638,0.56456 -1.70444,0.59486 -2.37281,0.6903 -2.73412,0.39044 -0.79282,-0.65798 -4.04769,-5.61987 -4.04769,-6.1705 0,-0.28199 0.8012,-0.91871 1.78046,-1.41494 2.35472,-1.193226 2.50888,-1.728548 0.91759,-3.186353 -0.8363,-0.766152 -1.28694,-1.494123 -1.28694,-2.07893 0,-1.373442 0.43761,-1.096635 1.90317,1.203822 0.73713,1.157062 1.60266,2.186189 1.92339,2.286946 0.32074,0.100756 1.357,-0.05054 2.30281,-0.336219 l 1.71965,-0.519409 1.2084,1.319269 c 0.66462,0.725601 1.31953,1.324904 1.45535,1.331774 0.13582,0.007 0.61773,0.21817 1.07091,0.46956 0.45318,0.25137 0.8962,0.38482 0.98448,0.29654 0.17956,-0.17957 -1.12454,-2.569015 -1.90707,-3.494232 -0.44891,-0.530771 -0.40626,-0.691948 0.37468,-1.4157 0.4847,-0.449206 1.67564,-1.102389 2.64653,-1.451515 0.97089,-0.349127 2.05356,-0.845594 2.40594,-1.10326 0.60346,-0.441254 0.56829,-0.557875 -0.60497,-2.006466 -1.61806,-1.997787 -1.81183,-2.34672 -1.54388,-2.780266 0.20841,-0.337206 2.99394,2.688315 2.99394,3.251877 0,0.731309 1.40838,0.958685 2.83043,0.456953 l 1.48251,-0.52306 -0.22257,1.144923 c -0.71818,3.694314 -0.6697,4.244897 0.53568,6.083811 0.63591,0.970135 1.56176,2.252275 2.05744,2.849185 0.49568,0.59692 1.33256,1.63987 1.85974,2.31768 0.52718,0.67781 1.84254,1.67966 2.92303,2.22634 1.69114,0.85564 2.33942,1.51495 4.65863,4.73787 5.78737,8.04253 8.57086,11.32865 9.59586,11.32865 0.3315,0 0.91089,-0.23308 1.28752,-0.51795 1.49487,-1.13067 3.6834,-0.24522 3.6834,1.49026 0,0.81801 -1.53533,2.20634 -2.42883,2.19627 -0.31338,-0.004 -1.28416,-0.46924 -2.15728,-1.03492 z m -27.66786,-6.21581 c -0.50605,-0.50604 -0.74948,-1.20952 -0.41855,-1.20952 0.0747,0 0.39586,0.39688 0.71369,0.88195 0.65613,1.00138 0.52462,1.14734 -0.29514,0.32757 z m 41.72415,-0.70131 c -3.40714,-2.79136 -4.20774,-3.55991 -4.93932,-4.74154 -0.42044,-0.6791 -1.08335,-1.59129 -1.47312,-2.02708 -0.38977,-0.4358 -0.60043,-0.9006 -0.46813,-1.0329 0.26491,-0.26491 3.399,3.01282 4.37337,4.57381 0.8438,1.3518 1.92059,1.54433 3.42772,0.61287 1.42812,-0.88262 2.4093,-0.72378 3.22571,0.52223 0.42072,0.6421 0.45638,0.99682 0.15654,1.55709 -0.32438,0.6061 -2.05092,1.7912 -2.60956,1.7912 -0.0883,0 -0.85024,-0.56506 -1.69321,-1.25568 z m 13.10759,-6.82684 c -1.83571,-1.17203 -6.21281,-5.57782 -5.87605,-5.91458 0.12505,-0.12504 1.29988,0.82985 2.61073,2.12197 1.31086,1.29213 2.59646,2.34951 2.8569,2.34973 0.26044,2.2e-4 0.87716,-0.3171 1.37049,-0.70516 1.11771,-0.87918 2.27835,-0.90225 3.0402,-0.0604 0.81301,0.89836 0.72822,2.03595 -0.20021,2.68625 -1.12104,0.78521 -1.99608,0.67524 -3.80206,-0.4778 z m -73.75668,-2.41262 c -0.2385,-0.7276 -0.66035,-1.67157 -0.93745,-2.0977 -0.34876,-0.53632 -0.39969,-0.96084 -0.1655,-1.37933 0.30387,-0.54299 0.38277,-0.51798 0.7749,0.24562 0.24012,0.46759 1.07156,1.51004 1.84765,2.31656 1.52861,1.58856 1.50662,2.23777 -0.0758,2.23777 -0.85502,0 -1.07675,-0.20317 -1.44378,-1.32292 z m 51.41339,-0.35278 c -2.27717,-2.69835 -4.13251,-4.32152 -4.93964,-4.32152 -0.97656,0 -3.05595,1.76526 -3.05595,2.59429 0,1.55337 -4.28379,2.60548 -5.82084,1.42962 -0.7894,-0.6039 -0.68728,-0.73349 1.55817,-1.97736 0.59501,-0.32961 1.34341,-1.14781 1.66311,-1.81823 0.54367,-1.14008 0.53973,-1.39806 -0.0608,-3.98683 -0.58366,-2.516124 -0.80644,-2.928323 -2.44926,-4.531772 -0.99396,-0.970139 -2.47843,-2.676702 -3.29882,-3.792361 -0.82039,-1.11566 -1.60567,-2.033521 -1.74507,-2.039691 -0.1394,-0.0062 -0.55491,-0.239395 -0.92335,-0.518276 -0.65127,-0.492958 -0.64705,-0.525558 0.15178,-1.172408 l 0.82167,-0.665349 -1.55695,-1.80751 c -1.55006,-1.799509 -1.55886,-1.803852 -1.98985,-0.981294 -0.53384,1.018886 -4.53094,2.638266 -5.10213,2.067073 -0.25518,-0.255181 0.28453,-0.660513 1.76294,-1.323982 1.64234,-0.737041 2.2143,-1.196005 2.49542,-2.002437 0.30302,-0.869241 0.50053,-1.006376 1.16753,-0.810648 0.95928,0.281492 2.60006,2.051293 3.26515,3.521883 0.74135,1.639185 7.06117,8.497933 8.65626,9.394426 0.92489,0.519818 2.30819,1.983761 3.94025,4.169971 1.38326,1.852915 3.6012,4.658395 4.92877,6.234395 1.32758,1.576 2.41377,3.04444 2.41377,3.26319 0,0.76702 -0.77604,0.38556 -1.88218,-0.92518 z m 35.098415,-3.28769 c -1.056657,-0.46905 -3.616235,-2.7621 -8.244845,-7.386329 -6.97497,-6.968366 -9.64599,-8.972775 -10.74329,-8.06209 -0.27603,0.229083 -0.41373,0.646204 -0.306,0.926938 0.10772,0.280733 0.0341,1.111017 -0.16352,1.84507 -0.26933,1.000231 -0.65923,1.476932 -1.55604,1.902502 -1.47904,0.701848 -1.74394,0.703894 -3.05937,0.02367 -1.28485,-0.664421 -1.11811,-0.984031 1.09969,-2.107875 2.02105,-1.024142 2.45785,-1.693605 2.45517,-3.762936 -0.004,-3.029384 -0.57865,-4.103984 -4.2965,-8.033226 -1.93584,-2.045906 -4.06072,-4.000525 -4.72196,-4.343598 -1.50449,-0.78058 -2.54015,-2.244255 -1.98253,-2.801873 0.28588,-0.285888 1.17601,0.369464 3.31563,2.441137 1.60866,1.55757 3.71782,3.428887 4.68702,4.158484 0.96921,0.729598 2.14539,1.901423 2.61373,2.604061 1.70522,2.558232 8.67397,10.037502 16.7213,17.946265 3.264621,3.20842 3.867071,3.61542 4.304335,2.90791 0.120766,-0.1954 0.678071,-0.59238 1.238451,-0.88216 2.089408,-1.08048 4.246287,1.27642 2.478264,2.70808 -0.993207,0.80425 -1.882285,0.7848 -3.839535,-0.084 z m -21.521595,-2.53314 c -0.84381,-0.82462 -1.77999,-1.73743 -2.08039,-2.02847 -3.14793,-3.049872 -7.17028,-5.997224 -8.1846,-5.997224 -0.20311,0 -0.97665,0.548721 -1.71899,1.219383 -1.77594,1.604458 -4.3139,2.325021 -5.61174,1.593254 -1.36511,-0.769694 -1.28313,-1.11621 0.54018,-2.283471 2.10744,-1.349163 2.81696,-2.707982 2.19983,-4.212946 -0.24329,-0.593295 -0.55356,-1.71819 -0.6895,-2.499762 -0.16125,-0.927174 -0.82243,-2.127338 -1.90246,-3.453314 -0.91041,-1.117748 -1.6553,-2.205288 -1.6553,-2.416753 0,-0.211469 -0.55562,-0.999501 -1.23472,-1.751178 -0.6791,-0.751678 -1.22854,-1.644047 -1.22097,-1.983035 0.009,-0.411279 0.63377,0.07323 1.87729,1.456224 1.39239,1.548578 2.10244,2.07257 2.80847,2.07257 0.76048,0 0.94493,0.164169 0.94493,0.841012 0,1.007716 6.3291,8.062083 8.69145,9.687425 0.84348,0.580327 2.39132,2.214958 3.43966,3.632514 1.04833,1.41756 2.63015,3.392668 3.51515,4.389141 2.84003,3.19771 3.04021,4.43037 0.28171,1.73463 z m 29.462771,-1.20533 c -0.428505,-0.4285 -0.243751,-0.80429 0.293981,-0.59794 0.291041,0.11169 0.529166,0.34483 0.529166,0.5181 0,0.36985 -0.486,0.41699 -0.823147,0.0798 z m -2.528242,-2.939809 c -0.119916,-0.194028 -0.05928,-0.352778 0.134751,-0.352778 0.194028,0 0.450889,0.15875 0.570805,0.352778 0.119916,0.194028 0.05928,0.352778 -0.134751,0.352778 -0.194027,0 -0.450888,-0.15875 -0.570805,-0.352778 z m -89.781939,-6.702778 c -1.83821,-1.838201 0.44607,-4.093898 2.84541,-2.809811 1.02758,0.549945 0.85789,1.931225 -0.34223,2.785791 -1.27394,0.907122 -1.61679,0.910413 -2.50318,0.02402 z m 82.373606,-0.352777 c -0.119916,-0.194028 -0.04991,-0.352778 0.155568,-0.352778 0.205479,0 0.373599,0.15875 0.373599,0.352778 0,0.194027 -0.07,0.352777 -0.155568,0.352777 -0.08556,0 -0.253683,-0.15875 -0.373599,-0.352777 z M -186.13922,90.69298 c 0,-0.269201 0.36837,-1.189112 0.81859,-2.044248 0.7365,-1.398863 1.08145,-1.65547 3.43959,-2.558694 1.44154,-0.552143 4.80641,-1.872573 7.47748,-2.934286 2.67108,-1.061713 6.32233,-2.461891 8.11389,-3.11151 1.79157,-0.649616 4.52739,-1.679462 6.07962,-2.288544 7.81766,-3.067596 9.59055,-3.638973 8.78185,-2.830276 -0.49198,0.491974 -8.74457,3.835178 -10.89852,4.415088 -0.97014,0.261193 -2.79576,0.982105 -4.05695,1.602031 -1.26118,0.619922 -4.19805,1.748762 -6.52638,2.508532 -5.88908,1.921687 -9.14565,3.598118 -11.37709,5.856725 -1.01864,1.031053 -1.85208,1.654383 -1.85208,1.385182 z m 18.8317,-5.0246 c -0.47034,-0.717832 -0.5086,-1.069206 -0.19208,-1.763889 0.31948,-0.701181 0.65371,-0.867494 1.74337,-0.867494 2.22366,0 2.892,1.338679 1.3783,2.760729 -1.08763,1.021772 -2.20775,0.972316 -2.92959,-0.129346 z m 51.63566,-4.235975 c -0.53358,-0.294034 -0.97014,-0.685613 -0.97014,-0.870176 0,-0.184563 0.76904,-0.725272 1.70898,-1.201572 0.93994,-0.476303 1.98602,-1.28882 2.32462,-1.805594 l 0.61564,-0.939588 1.05908,1.0059 c 0.58249,0.553243 1.36526,1.601212 1.73949,2.328816 0.75203,1.462155 0.6078,1.560477 -1.43126,0.975681 -0.92742,-0.26598 -1.33964,-0.231133 -1.76156,0.148904 -0.87773,0.790596 -2.23166,0.938001 -3.28485,0.357629 z m -38.35217,-0.841661 c -0.61478,-1.148722 -0.42609,-2.127236 0.49074,-2.544971 2.11811,-0.965076 4.05982,1.183139 2.33317,2.5813 -1.03978,0.841964 -2.36297,0.824943 -2.82391,-0.03633 z m 12.33481,-5.314858 c -0.79939,-1.493668 1.1703,-3.000749 2.78936,-2.134253 0.81329,0.435261 0.98436,1.747203 0.31508,2.416475 -0.70145,0.701453 -2.67396,0.522136 -3.10444,-0.282222 z m -9.16343,-0.813044 c 0.61417,-0.676843 10.13546,-4.32974 10.45434,-4.010861 0.26733,0.267325 -3.09034,1.720353 -6.58258,2.848603 -1.64923,0.532825 -3.23673,1.058228 -3.52778,1.167557 -0.29104,0.109329 -0.44583,0.106948 -0.34398,-0.0053 z m 21.39723,-3.790219 c -0.4987,-0.712005 -0.51401,-0.936241 -0.10607,-1.553986 0.26221,-0.397055 0.81573,-0.772647 1.23006,-0.834648 0.59555,-0.08912 0.75332,0.06893 0.75332,0.754669 0,0.477069 -0.29126,1.227092 -0.64725,1.666717 l -0.64725,0.79932 z m -7.29491,-1.854754 c 0.48507,-0.274952 1.35819,-0.610108 1.94028,-0.744788 1.0375,-0.240051 1.04315,-0.233984 0.28693,0.308317 -0.42427,0.304253 -1.2974,0.639406 -1.94028,0.744788 -1.16454,0.190888 -1.16561,0.189745 -0.28693,-0.308317 z m 3.88055,-1.44151 c 1.07875,-0.643206 4.35894,-1.103426 5.0004,-0.701566 0.51463,0.322404 -1.08409,0.727541 -4.11845,1.043665 -1.68852,0.175913 -1.7262,0.161294 -0.88195,-0.342099 z"
         id="path299" />
    </g>
  </g>
</svg>
